;TYPE=PLATED
;Layer: PTH_Through
;EasyEDA Pro Client v3.2.121, 2026-04-28 17:19:32
;Gerber Generator version 0.3
M48
METRIC,LZ,0000.00000
;Hole size 1 = 0.30500 METRIC
T01C0.30500
;Hole size 2 = 0.60000 METRIC
T02C0.60000
%
G05
G90
T01
X4.318Y1.905
X-1.524Y-14.859
X-0.508Y-14.859
X-2.62038Y15.99417
X-3.71517Y16.71705
X0.49803Y15.99417
X-0.49408Y16.70687
X-7.874Y12.92403
X0.381Y-14.859
X0.2794Y0.3302
X0.0Y1.143
X1.397Y-14.859
X-6.34Y1.12092
X-6.1214Y-0.889
X3.302Y-3.429
X3.302Y-4.7498
X3.29545Y-7.95675
X1.96885Y-3.49285
X3.302Y-5.98364
X0.54252Y3.28846
X1.524Y5.461
X0.50355Y5.83755
X2.1336Y3.1242
X4.6482Y10.4394
X-1.59405Y4.24795
X0.9906Y-0.86054
X-3.04801Y-0.47596
X-8.382Y-11.811
X-8.382Y11.938
X2.413Y18.288
X18.669Y11.811
X-4.318Y-14.478
X3.175Y-15.113
X-0.635Y-2.921
X-5.207Y-2.413
X-2.18449Y-0.47596
X-2.18449Y0.38764
X-3.048Y0.38764
X-3.04809Y-1.33956
X-2.18449Y-1.33956
X-3.91169Y0.38764
X-3.91169Y-1.33956
X-3.91169Y-0.47596
X0.762Y-4.318
X4.445Y-10.16
X4.445Y-12.29528
X-8.382Y-9.56733
X-8.382Y-7.32367
X-8.382Y-5.08
X-8.382Y-14.46091
X-8.382Y-18.49023
X-4.318Y-18.49023
X-5.969Y-9.56733
X-3.683Y-9.56733
X-5.969Y-10.83733
X-3.683Y-10.795
X-4.826Y-6.731
X3.175Y-18.542
X5.6515Y-18.542
X8.128Y-18.542
X10.6045Y-18.542
X13.081Y-18.542
X5.65247Y-15.113
X8.12995Y-15.113
X10.60742Y-15.113
X13.08489Y-15.113
X8.128Y-11.811
X10.541Y-11.811
X13.05108Y-11.811
X16.25161Y-11.811
X18.542Y-11.811
X-8.382Y-3.16738
X-8.382Y-0.62738
X-8.382Y1.91262
X-8.382Y4.45262
X-8.382Y7.874
X-8.382Y9.906
X-6.35Y9.906
X-6.35Y11.94135
X-4.56037Y7.9038
X-1.524Y8.89
X1.05235Y8.92073
X1.016Y11.938
X-1.50899Y11.9578
X-2.5412Y-13.081
X-5.7162Y-13.081
X-1.524Y-6.985
X-2.667Y18.288
X7.493Y18.288
X10.70317Y18.288
X13.98091Y18.288
X15.65275Y11.811
X12.6365Y11.811
X9.62025Y11.811
X6.604Y11.811
X18.669Y13.97
X9.62025Y13.97
X5.334Y15.621
X-7.366Y13.97
X2.2098Y4.5466
T02
X10.78499Y16.764
X9.53501Y16.764
M30