G04 Layer: BottomLayer*
G04 EasyEDA Pro v3.2.121, 2026-04-28 17:19:32*
G04 Gerber Generator version 0.3*
G04 Scale: 100 percent, Rotated: No, Reflected: No*
G04 Dimensions in millimeters*
G04 Leading zeros omitted, absolute positions, 4 integers and 5 decimals*
G04 Generated by one-click*
%FSLAX45Y45*%
%MOMM*%
%AMRect*21,1,$1,$2,0,0,$3*%
%ADD10C,0.2032*%
%ADD11C,0.254*%
%ADD12C,0.19812*%
%ADD13C,0.508*%
%ADD14O,1.524X2.54*%
%ADD15O,1.524X1.016*%
%ADD16R,0.30312X0.324*%
%ADD17R,0.54X0.79009*%
%ADD18R,1.5354X1.35999*%
%ADD19R,1.52999X1.35999*%
%ADD20R,0.7X1.2*%
%ADD21R,1.524X0.6*%
%ADD22R,1.0X1.75001*%
%ADD23R,0.36843X0.324*%
%ADD24R,0.79009X0.54*%
%ADD25R,0.324X0.36843*%
%ADD26Rect,0.9X1.3X45.0*%
%ADD27R,2.59999X2.59999*%
%ADD28R,0.8X0.2*%
%ADD29R,0.2X0.8*%
%ADD30Rect,1.1X0.8X135.0*%
%ADD31Rect,0.8X0.86401X135.0*%
%ADD32Rect,0.79009X0.54X45.0*%
%ADD33R,0.324X0.30312*%
%ADD34Rect,0.5X0.54X135.0*%
%ADD35R,1.0X0.6*%
%ADD36C,1.0*%
%ADD37R,1.0X1.0*%
%ADD38C,0.61*%
%ADD39C,0.762*%
G75*


G04 Copper Start*
G36*
G01X1455865Y-1882088D02*
G01X-869256Y-1882088D01*
G01X-869256Y-476498D01*
G01X-772569Y-476498D01*
G01X-777632Y-486464D01*
G01X-779376Y-497504D01*
G01X-779376Y-551505D01*
G01X-777623Y-562572D01*
G01X-772536Y-572556D01*
G01X-764613Y-580479D01*
G01X-754629Y-585566D01*
G01X-743562Y-587319D01*
G01X-664553Y-587319D01*
G01X-656872Y-586485D01*
G01X-649549Y-584024D01*
G01X-642226Y-586485D01*
G01X-634545Y-587319D01*
G01X-555536Y-587319D01*
G01X-544469Y-585566D01*
G01X-534485Y-580479D01*
G01X-526562Y-572556D01*
G01X-521475Y-562572D01*
G01X-519722Y-551505D01*
G01X-519722Y-548453D01*
G01X-514576Y-541133D01*
G01X-507712Y-534270D01*
G01X-504754Y-537622D01*
G01X-426973Y-615404D01*
G01X-419264Y-621261D01*
G01X-410268Y-624840D01*
G01X-400643Y-625879D01*
G01X-391090Y-624302D01*
G01X-382310Y-620223D01*
G01X-386396Y-629006D01*
G01X-387979Y-638562D01*
G01X-386943Y-648194D01*
G01X-383364Y-657195D01*
G01X-377504Y-664908D01*
G01X-299723Y-742690D01*
G01X-290657Y-749276D01*
G01X-280001Y-752739D01*
G01X-268796Y-752739D01*
G01X-258139Y-749276D01*
G01X-249074Y-742690D01*
G01X-192505Y-686121D01*
G01X-186934Y-678910D01*
G01X-183362Y-670526D01*
G01X-174978Y-666954D01*
G01X-167767Y-661383D01*
G01X-111198Y-604814D01*
G01X-109220Y-602668D01*
G01X-109220Y-955014D01*
G01X-117804Y-951489D01*
G01X-127005Y-950286D01*
G01X-280005Y-950286D01*
G01X-291072Y-952039D01*
G01X-301055Y-957126D01*
G01X-308979Y-965049D01*
G01X-314066Y-975033D01*
G01X-315819Y-986100D01*
G01X-315819Y-1122100D01*
G01X-314066Y-1133167D01*
G01X-308979Y-1143151D01*
G01X-301055Y-1151074D01*
G01X-291072Y-1156161D01*
G01X-280005Y-1157914D01*
G01X-127005Y-1157914D01*
G01X-117804Y-1156711D01*
G01X-109220Y-1153186D01*
G01X-109220Y-1276462D01*
G01X-184729Y-1351971D01*
G01X-191995Y-1361440D01*
G01X-196562Y-1372467D01*
G01X-198120Y-1384300D01*
G01X-198120Y-1436609D01*
G01X-199452Y-1438602D01*
G01X-202828Y-1442835D01*
G01X-211165Y-1455172D01*
G01X-216540Y-1469059D01*
G01X-218681Y-1483795D01*
G01X-217479Y-1498637D01*
G01X-212997Y-1512837D01*
G01X-205459Y-1525678D01*
G01X-195246Y-1536514D01*
G01X-182872Y-1544798D01*
G01X-168962Y-1550113D01*
G01X-154217Y-1552189D01*
G01X-139380Y-1550923D01*
G01X-125200Y-1546379D01*
G01X-112392Y-1538785D01*
G01X-101600Y-1528525D01*
G01X-92072Y-1537806D01*
G01X-80883Y-1544998D01*
G01X-68485Y-1549813D01*
G01X-55374Y-1552056D01*
G01X-42080Y-1551638D01*
G01X-29137Y-1548576D01*
G01X-17065Y-1542992D01*
G01X-6350Y-1535111D01*
G01X4365Y-1542992D01*
G01X16437Y-1548576D01*
G01X29380Y-1551638D01*
G01X42674Y-1552056D01*
G01X55785Y-1549813D01*
G01X68183Y-1544998D01*
G01X79372Y-1537806D01*
G01X88900Y-1528525D01*
G01X100301Y-1539241D01*
G01X113894Y-1546987D01*
G01X128925Y-1551333D01*
G01X144555Y-1552036D01*
G01X159915Y-1549058D01*
G01X174150Y-1542564D01*
G01X186466Y-1532915D01*
G01X196180Y-1520650D01*
G01X202750Y-1506450D01*
G01X205809Y-1491106D01*
G01X206415Y-1485726D01*
G01X206883Y-1483375D01*
G01X349829Y-1340429D01*
G01X357095Y-1330960D01*
G01X361662Y-1319933D01*
G01X363220Y-1308100D01*
G01X363220Y-917010D01*
G01X375631Y-925770D01*
G01X389381Y-932227D01*
G01X404048Y-936182D01*
G01X419180Y-937514D01*
G01X469980Y-937514D01*
G01X487143Y-935796D01*
G01X503625Y-930712D01*
G01X518773Y-922462D01*
G01X531986Y-911374D01*
G01X542740Y-897888D01*
G01X550608Y-882539D01*
G01X555279Y-865934D01*
G01X556567Y-848733D01*
G01X554420Y-831619D01*
G01X548925Y-815268D01*
G01X540299Y-800331D01*
G01X528884Y-787400D01*
G01X540614Y-774028D01*
G01X549365Y-758541D01*
G01X554767Y-741594D01*
G01X556594Y-723900D01*
G01X554767Y-706206D01*
G01X549365Y-689259D01*
G01X540614Y-673772D01*
G01X528884Y-660400D01*
G01X540614Y-647028D01*
G01X549365Y-631541D01*
G01X554767Y-614594D01*
G01X556594Y-596900D01*
G01X554767Y-579206D01*
G01X549365Y-562259D01*
G01X540614Y-546772D01*
G01X528884Y-533400D01*
G01X540614Y-520028D01*
G01X549365Y-504541D01*
G01X554767Y-487594D01*
G01X556594Y-469900D01*
G01X554767Y-452206D01*
G01X549365Y-435259D01*
G01X540614Y-419772D01*
G01X528884Y-406400D01*
G01X540299Y-393469D01*
G01X548925Y-378532D01*
G01X554420Y-362181D01*
G01X556567Y-345067D01*
G01X555279Y-327866D01*
G01X550608Y-311261D01*
G01X542740Y-295912D01*
G01X531986Y-282426D01*
G01X518773Y-271338D01*
G01X503625Y-263088D01*
G01X487143Y-258004D01*
G01X469980Y-256286D01*
G01X419180Y-256286D01*
G01X402042Y-257998D01*
G01X385582Y-263068D01*
G01X370450Y-271294D01*
G01X357245Y-282352D01*
G01X343580Y-277950D01*
G01X329288Y-276592D01*
G01X315038Y-278342D01*
G01X301499Y-283119D01*
G01X289305Y-290697D01*
G01X279028Y-300722D01*
G01X271150Y-312723D01*
G01X266039Y-326140D01*
G01X263935Y-340341D01*
G01X264938Y-354663D01*
G01X268999Y-368433D01*
G01X275928Y-381007D01*
G01X285402Y-391794D01*
G01X296975Y-400290D01*
G01X310105Y-406096D01*
G01X324177Y-408940D01*
G01X309856Y-411864D01*
G01X296523Y-417854D01*
G01X284826Y-426619D01*
G01X275334Y-437734D01*
G01X268507Y-450659D01*
G01X260929Y-440640D01*
G01X228088Y-407799D01*
G01X239825Y-399820D01*
G01X249594Y-389525D01*
G01X256950Y-377388D01*
G01X261554Y-363963D01*
G01X263197Y-349867D01*
G01X261802Y-335743D01*
G01X257433Y-322240D01*
G01X250292Y-309975D01*
G01X240704Y-299511D01*
G01X229110Y-291327D01*
G01X216039Y-285797D01*
G01X202091Y-283176D01*
G01X196711Y-282570D01*
G01X194360Y-282102D01*
G01X123078Y-210820D01*
G01X388170Y-210820D01*
G01X395938Y-211634D01*
G01X403369Y-214039D01*
G01X410468Y-216337D01*
G01X417888Y-217114D01*
G01X448201Y-217114D01*
G01X457200Y-215965D01*
G01X466199Y-217114D01*
G01X496512Y-217114D01*
G01X507579Y-215361D01*
G01X517563Y-210274D01*
G01X525486Y-202351D01*
G01X530573Y-192367D01*
G01X532326Y-181300D01*
G01X532326Y-148900D01*
G01X530573Y-137835D01*
G01X525488Y-127853D01*
G01X517568Y-119930D01*
G01X518394Y-112283D01*
G01X518394Y-52283D01*
G01X517233Y-43241D01*
G01X513828Y-34785D01*
G01X517233Y-26329D01*
G01X518394Y-17287D01*
G01X518394Y42713D01*
G01X517235Y51748D01*
G01X513835Y60198D01*
G01X517235Y68648D01*
G01X518394Y77683D01*
G01X518394Y137683D01*
G01X516809Y148220D01*
G01X512194Y157824D01*
G01X504957Y165646D01*
G01X499333Y171463D01*
G01X507927Y180057D01*
G01X515540Y189334D01*
G01X521197Y199917D01*
G01X524680Y211400D01*
G01X525856Y223342D01*
G01X525856Y733067D01*
G01X527691Y747720D01*
G01X533081Y761468D01*
G01X541694Y773463D01*
G01X552556Y775423D01*
G01X562305Y780596D01*
G01X570015Y788493D01*
G01X574956Y798362D01*
G01X576656Y809267D01*
G01X576656Y869267D01*
G01X574956Y880172D01*
G01X570015Y890041D01*
G01X562305Y897937D01*
G01X552556Y903111D01*
G01X541694Y905071D01*
G01X533081Y917066D01*
G01X527691Y930814D01*
G01X525856Y945467D01*
G01X525856Y1006426D01*
G01X526000Y1009933D01*
G01X526330Y1012919D01*
G01X527842Y1021437D01*
G01X529207Y1028071D01*
G01X531134Y1043939D01*
G01X529208Y1059808D01*
G01X533476Y1067177D01*
G01X539235Y1073452D01*
G01X540842Y1073452D01*
G01X551909Y1075205D01*
G01X561893Y1080292D01*
G01X569816Y1088215D01*
G01X574903Y1098199D01*
G01X576656Y1109266D01*
G01X576656Y1169266D01*
G01X574903Y1180333D01*
G01X569816Y1190317D01*
G01X561893Y1198240D01*
G01X551909Y1203327D01*
G01X540842Y1205080D01*
G01X388442Y1205080D01*
G01X377375Y1203327D01*
G01X367391Y1198240D01*
G01X359468Y1190317D01*
G01X354381Y1180333D01*
G01X352628Y1169266D01*
G01X352628Y1109266D01*
G01X354381Y1098199D01*
G01X359468Y1088215D01*
G01X367391Y1080292D01*
G01X377375Y1075205D01*
G01X388442Y1073452D01*
G01X390050Y1073452D01*
G01X395965Y1066961D01*
G01X400290Y1059317D01*
G01X400178Y1058739D01*
G01X398506Y1043940D01*
G01X400178Y1029141D01*
G01X401514Y1022197D01*
G01X402962Y1013553D01*
G01X403287Y1010432D01*
G01X403428Y1006820D01*
G01X403428Y945467D01*
G01X401594Y930814D01*
G01X396203Y917066D01*
G01X387590Y905071D01*
G01X376729Y903111D01*
G01X366980Y897937D01*
G01X359269Y890041D01*
G01X354329Y880172D01*
G01X352628Y869267D01*
G01X352628Y809267D01*
G01X353827Y800080D01*
G01X319635Y800080D01*
G01X308568Y798327D01*
G01X298584Y793240D01*
G01X290661Y785317D01*
G01X285574Y775333D01*
G01X283821Y764266D01*
G01X283821Y644266D01*
G01X285574Y633199D01*
G01X290661Y623215D01*
G01X298584Y615292D01*
G01X308568Y610205D01*
G01X319635Y608452D01*
G01X389635Y608452D01*
G01X396668Y609149D01*
G01X403428Y611215D01*
G01X403428Y250438D01*
G01X390717Y242556D01*
G01X380097Y232025D01*
G01X372106Y219382D01*
G01X367152Y205269D01*
G01X365486Y190406D01*
G01X367194Y175547D01*
G01X363588Y169618D01*
G01X358872Y164527D01*
G01X352330Y156856D01*
G01X348185Y147665D01*
G01X346766Y137683D01*
G01X346766Y77683D01*
G01X347924Y68648D01*
G01X351324Y60198D01*
G01X347924Y51748D01*
G01X346766Y42713D01*
G01X346766Y-17287D01*
G01X347926Y-26329D01*
G01X351332Y-34785D01*
G01X347926Y-43241D01*
G01X346766Y-52283D01*
G01X346766Y-112283D01*
G01X347476Y-119380D01*
G01X297674Y-119380D01*
G01X298379Y-112309D01*
G01X298379Y-52309D01*
G01X296626Y-41242D01*
G01X291539Y-31258D01*
G01X283616Y-23335D01*
G01X273632Y-18248D01*
G01X262565Y-16495D01*
G01X162565Y-16495D01*
G01X151498Y-18248D01*
G01X141514Y-23335D01*
G01X133591Y-31258D01*
G01X128504Y-41242D01*
G01X126751Y-52309D01*
G01X126751Y-112309D01*
G01X127456Y-119380D01*
G01X95138Y-119380D01*
G01X46878Y-71120D01*
G01X63500Y-71120D01*
G01X75333Y-69562D01*
G01X86360Y-64995D01*
G01X95829Y-57729D01*
G01X121229Y-32329D01*
G01X128495Y-22860D01*
G01X133062Y-11833D01*
G01X134620Y0D01*
G01X134620Y55310D01*
G01X142439Y48085D01*
G01X152037Y43477D01*
G01X162565Y41895D01*
G01X262565Y41895D01*
G01X273632Y43648D01*
G01X283616Y48735D01*
G01X291539Y56658D01*
G01X296626Y66642D01*
G01X298379Y77709D01*
G01X298379Y137709D01*
G01X296647Y148711D01*
G01X291618Y158650D01*
G01X283958Y171244D01*
G01X278349Y184875D01*
G01X274929Y199213D01*
G01X273779Y213909D01*
G01X273779Y245617D01*
G01X291556Y240419D01*
G01X303200Y238473D01*
G01X357200Y238473D01*
G01X368267Y240226D01*
G01X378251Y245313D01*
G01X386174Y253236D01*
G01X391261Y263220D01*
G01X393014Y274287D01*
G01X393014Y353296D01*
G01X392181Y360977D01*
G01X389720Y368300D01*
G01X392181Y375623D01*
G01X393014Y383304D01*
G01X393014Y462313D01*
G01X391261Y473380D01*
G01X386174Y483364D01*
G01X378251Y491287D01*
G01X368267Y496374D01*
G01X357200Y498127D01*
G01X303200Y498127D01*
G01X292133Y496374D01*
G01X282149Y491287D01*
G01X274226Y483364D01*
G01X269139Y473380D01*
G01X267386Y462313D01*
G01X267386Y383304D01*
G01X267657Y378902D01*
G01X255142Y376136D01*
G01X242445Y374384D01*
G01X235484Y375584D01*
G01X228701Y376935D01*
G01X215592Y378696D01*
G01X202395Y377821D01*
G01X189633Y374344D01*
G01X177815Y368403D01*
G01X167412Y360235D01*
G01X158836Y350165D01*
G01X152430Y338593D01*
G01X148447Y325980D01*
G01X147047Y312828D01*
G01X148285Y299659D01*
G01X149575Y292013D01*
G01X150824Y283669D01*
G01X151351Y275465D01*
G01X151351Y213909D01*
G01X149441Y195004D01*
G01X143788Y176864D01*
G01X134620Y160221D01*
G01X134620Y294198D01*
G01X133087Y305937D01*
G01X128592Y316889D01*
G01X121435Y326320D01*
G01X120968Y328672D01*
G01X120362Y334052D01*
G01X117612Y348420D01*
G01X111779Y361835D01*
G01X103147Y373645D01*
G01X92135Y383275D01*
G01X79280Y390256D01*
G01X65207Y394249D01*
G01X149875Y478917D01*
G01X152226Y479385D01*
G01X157606Y479991D01*
G01X172714Y482974D01*
G01X186726Y489362D01*
G01X198888Y498809D01*
G01X208542Y510807D01*
G01X215169Y524707D01*
G01X218410Y539762D01*
G01X218092Y555158D01*
G01X214232Y570066D01*
G01X207037Y583682D01*
G01X196895Y595270D01*
G01X184354Y604208D01*
G01X170090Y610011D01*
G01X180296Y615010D01*
G01X188421Y622955D01*
G01X193649Y633046D01*
G01X195452Y644266D01*
G01X195452Y764266D01*
G01X193699Y775333D01*
G01X188612Y785317D01*
G01X180689Y793240D01*
G01X170705Y798327D01*
G01X159638Y800080D01*
G01X89638Y800080D01*
G01X78571Y798327D01*
G01X68587Y793240D01*
G01X60664Y785317D01*
G01X55577Y775333D01*
G01X53824Y764266D01*
G01X53824Y649979D01*
G01X38440Y648990D01*
G01X23700Y644476D01*
G01X10400Y636681D01*
G01X-741Y626025D01*
G01X-9120Y613086D01*
G01X-14285Y598561D01*
G01X-15957Y583236D01*
G01X-14045Y567939D01*
G01X-8653Y553497D01*
G01X-72Y540690D01*
G01X2681Y537238D01*
G01X-94801Y439757D01*
G01X-100351Y454964D01*
G01X-109421Y468374D01*
G01X-121469Y479186D01*
G01X-135778Y486757D01*
G01X-151495Y490636D01*
G01X-154377Y491146D01*
G01X-156484Y491793D01*
G01X-158070Y493379D01*
G01X-162563Y499865D01*
G01X-164491Y507515D01*
G01X-166080Y515919D01*
G01X-169617Y523706D01*
G01X-174899Y530432D01*
G01X-210255Y565787D01*
G01X-217230Y571219D01*
G01X-225323Y574777D01*
G01X-228881Y582870D01*
G01X-234313Y589845D01*
G01X-269668Y625201D01*
G01X-278077Y631444D01*
G01X-287933Y634988D01*
G01X-298393Y635529D01*
G01X-295733Y641173D01*
G01X-288815Y644611D01*
G01X-282794Y649453D01*
G01X-226926Y705321D01*
G01X-220340Y714386D01*
G01X-216878Y725043D01*
G01X-216878Y736248D01*
G01X-220340Y746904D01*
G01X-226926Y755970D01*
G01X-265110Y794154D01*
G01X-274176Y800740D01*
G01X-284832Y804202D01*
G01X-296037Y804202D01*
G01X-306694Y800740D01*
G01X-315759Y794154D01*
G01X-371627Y738286D01*
G01X-376469Y732265D01*
G01X-379907Y725347D01*
G01X-386825Y721909D01*
G01X-392846Y717067D01*
G01X-448714Y661199D01*
G01X-453746Y654878D01*
G01X-457233Y647589D01*
G01X-458998Y639704D01*
G01X-461295Y631617D01*
G01X-466151Y624755D01*
G01X-783605Y307301D01*
G01X-791314Y297253D01*
G01X-796161Y285552D01*
G01X-797814Y272996D01*
G01X-797814Y-79248D01*
G01X-796161Y-91804D01*
G01X-791314Y-103505D01*
G01X-783605Y-113553D01*
G01X-729425Y-167732D01*
G01X-724628Y-174534D01*
G01X-722393Y-182551D01*
G01X-721422Y-187960D01*
G01X-722574Y-196971D01*
G01X-722574Y-233813D01*
G01X-721220Y-243567D01*
G01X-717262Y-252583D01*
G01X-710998Y-260180D01*
G01X-702901Y-265784D01*
G01X-707511Y-265486D01*
G01X-744353Y-265486D01*
G01X-755420Y-267239D01*
G01X-765404Y-272326D01*
G01X-773327Y-280249D01*
G01X-778414Y-290233D01*
G01X-780167Y-301300D01*
G01X-780167Y-333700D01*
G01X-778487Y-344540D01*
G01X-776025Y-354070D01*
G01X-869256Y-354070D01*
G01X-869256Y663059D01*
G01X-830134Y663059D01*
G01X-828154Y637903D01*
G01X-822263Y613365D01*
G01X-812607Y590051D01*
G01X-799422Y568535D01*
G01X-783033Y549347D01*
G01X-763844Y532958D01*
G01X-742328Y519773D01*
G01X-719015Y510116D01*
G01X-694477Y504226D01*
G01X-669320Y502246D01*
G01X-644164Y504226D01*
G01X-619626Y510116D01*
G01X-596313Y519773D01*
G01X-574797Y532958D01*
G01X-555608Y549347D01*
G01X-539219Y568535D01*
G01X-526034Y590051D01*
G01X-516378Y613365D01*
G01X-510487Y637903D01*
G01X-508507Y663059D01*
G01X-510487Y688216D01*
G01X-516378Y712754D01*
G01X-526034Y736067D01*
G01X-539219Y757583D01*
G01X-555608Y776772D01*
G01X-574797Y793160D01*
G01X-596313Y806345D01*
G01X-619626Y816002D01*
G01X-644164Y821893D01*
G01X-669320Y823873D01*
G01X-694477Y821893D01*
G01X-719015Y816002D01*
G01X-742328Y806345D01*
G01X-763844Y793160D01*
G01X-783033Y776772D01*
G01X-799422Y757583D01*
G01X-812607Y736067D01*
G01X-822263Y712754D01*
G01X-828154Y688216D01*
G01X-830134Y663059D01*
G01X-830134Y663059D01*
G01X-869256Y663059D01*
G01X-869256Y914273D01*
G01X158808Y914273D01*
G01X160574Y897471D01*
G01X165795Y881403D01*
G01X174243Y866771D01*
G01X185548Y854216D01*
G01X199216Y844285D01*
G01X214650Y837413D01*
G01X231176Y833901D01*
G01X248071Y833901D01*
G01X264597Y837413D01*
G01X280031Y844285D01*
G01X293700Y854216D01*
G01X305004Y866771D01*
G01X313452Y881403D01*
G01X318673Y897471D01*
G01X320439Y914273D01*
G01X318673Y931075D01*
G01X313452Y947143D01*
G01X305004Y961775D01*
G01X293700Y974330D01*
G01X280031Y984261D01*
G01X264597Y991133D01*
G01X248071Y994645D01*
G01X231176Y994645D01*
G01X214650Y991133D01*
G01X199216Y984261D01*
G01X185548Y974330D01*
G01X174243Y961775D01*
G01X165795Y947143D01*
G01X160574Y931075D01*
G01X158808Y914273D01*
G01X158808Y914273D01*
G01X-869256Y914273D01*
G01X-869256Y1292403D01*
G01X-853714Y1292403D01*
G01X-852035Y1277573D01*
G01X-847082Y1263495D01*
G01X-839106Y1250881D01*
G01X-828511Y1240370D01*
G01X-815834Y1232494D01*
G01X-801717Y1227653D01*
G01X-786874Y1226091D01*
G01X-772059Y1227888D01*
G01X-765276Y1229238D01*
G01X-756695Y1230719D01*
G01X-753642Y1231046D01*
G01X-750083Y1231189D01*
G01X160599Y1231189D01*
G01X160599Y1231189D01*
G01X158812Y1213520D01*
G01X160928Y1195887D01*
G01X166844Y1179142D01*
G01X176274Y1164093D01*
G01X188764Y1151468D01*
G01X203710Y1141876D01*
G01X220390Y1135779D01*
G01X237999Y1133474D01*
G01X255686Y1135070D01*
G01X272598Y1140490D01*
G01X287917Y1149474D01*
G01X300904Y1161587D01*
G01X310932Y1176244D01*
G01X317517Y1192738D01*
G01X320340Y1210271D01*
G01X319265Y1227998D01*
G01X351758Y1226731D01*
G01X384134Y1223699D01*
G01X388442Y1223439D01*
G01X540842Y1223439D01*
G01X545150Y1223699D01*
G01X581031Y1226953D01*
G01X617042Y1228039D01*
G01X678002Y1228039D01*
G01X690323Y1229292D01*
G01X702139Y1232999D01*
G01X726650Y1237684D01*
G01X750466Y1245134D01*
G01X773278Y1255251D01*
G01X794787Y1267903D01*
G01X814714Y1282925D01*
G01X831569Y1293969D01*
G01X846172Y1307853D01*
G01X858052Y1324130D01*
G01X866823Y1342272D01*
G01X872202Y1361691D01*
G01X874014Y1381760D01*
G01X874014Y1474781D01*
G01X876564Y1481783D01*
G01X877220Y1483360D01*
G01X1030986Y1483360D01*
G01X1030986Y1381760D01*
G01X1032893Y1361177D01*
G01X1038550Y1341296D01*
G01X1047764Y1322792D01*
G01X1060221Y1306297D01*
G01X1075496Y1292371D01*
G01X1093071Y1281489D01*
G01X1112346Y1274022D01*
G01X1132665Y1270224D01*
G01X1153335Y1270224D01*
G01X1173654Y1274022D01*
G01X1192929Y1281489D01*
G01X1210504Y1292371D01*
G01X1225779Y1306297D01*
G01X1238236Y1322792D01*
G01X1247450Y1341296D01*
G01X1253107Y1361177D01*
G01X1255014Y1381760D01*
G01X1255014Y1483360D01*
G01X1253107Y1503943D01*
G01X1247450Y1523824D01*
G01X1238236Y1542328D01*
G01X1225779Y1558823D01*
G01X1210504Y1572749D01*
G01X1192929Y1583631D01*
G01X1173654Y1591098D01*
G01X1153335Y1594896D01*
G01X1132665Y1594896D01*
G01X1112346Y1591098D01*
G01X1093071Y1583631D01*
G01X1075496Y1572749D01*
G01X1060221Y1558823D01*
G01X1047764Y1542328D01*
G01X1038550Y1523824D01*
G01X1032893Y1503943D01*
G01X1030986Y1483360D01*
G01X1030986Y1483360D01*
G01X877220Y1483360D01*
G01X879266Y1488271D01*
G01X882193Y1494507D01*
G01X885259Y1500200D01*
G01X888446Y1505269D01*
G01X891725Y1509660D01*
G01X895733Y1514099D01*
G01X924946Y1543313D01*
G01X943887Y1559789D01*
G01X964928Y1573483D01*
G01X987662Y1584130D01*
G01X1011652Y1591526D01*
G01X1019286Y1594251D01*
G01X1026111Y1598623D01*
G01X1031778Y1604418D01*
G01X1048182Y1596119D01*
G01X1065978Y1591504D01*
G01X1084349Y1590786D01*
G01X1102451Y1593997D01*
G01X1119453Y1600991D01*
G01X1134576Y1611445D01*
G01X1147125Y1624881D01*
G01X1156524Y1640681D01*
G01X1162341Y1658121D01*
G01X1164311Y1676400D01*
G01X1162341Y1694679D01*
G01X1156524Y1712119D01*
G01X1147125Y1727919D01*
G01X1134576Y1741355D01*
G01X1119453Y1751809D01*
G01X1102451Y1758803D01*
G01X1084349Y1762014D01*
G01X1065978Y1761296D01*
G01X1048182Y1756681D01*
G01X1031778Y1748382D01*
G01X1023921Y1755824D01*
G01X1014201Y1760579D01*
G01X1003503Y1762214D01*
G01X903503Y1762214D01*
G01X891718Y1760219D01*
G01X881246Y1754458D01*
G01X873253Y1745571D01*
G01X868629Y1734549D01*
G01X861233Y1710559D01*
G01X850586Y1687824D01*
G01X836892Y1666784D01*
G01X820416Y1647843D01*
G01X789641Y1617068D01*
G01X785134Y1612982D01*
G01X780665Y1609607D01*
G01X775546Y1606325D01*
G01X769830Y1603161D01*
G01X763600Y1600132D01*
G01X757128Y1597318D01*
G01X750544Y1594787D01*
G01X730399Y1590824D01*
G01X711316Y1583251D01*
G01X693936Y1572323D01*
G01X678842Y1558406D01*
G01X666542Y1541968D01*
G01X657449Y1523561D01*
G01X651867Y1503804D01*
G01X649986Y1483360D01*
G01X649986Y1442954D01*
G01X636338Y1421246D01*
G01X620354Y1401195D01*
G01X602235Y1383051D01*
G01X582206Y1367040D01*
G01X560517Y1353361D01*
G01X559881Y1353207D01*
G01X545150Y1354807D01*
G01X540842Y1355067D01*
G01X424250Y1355067D01*
G01X425449Y1364254D01*
G01X425449Y1484254D01*
G01X423696Y1495321D01*
G01X418609Y1505305D01*
G01X410686Y1513228D01*
G01X400702Y1518315D01*
G01X389635Y1520068D01*
G01X319635Y1520068D01*
G01X308568Y1518315D01*
G01X298584Y1513228D01*
G01X290661Y1505305D01*
G01X285574Y1495321D01*
G01X283821Y1484254D01*
G01X283821Y1381854D01*
G01X279400Y1382014D01*
G01X204163Y1382014D01*
G01X195452Y1381391D01*
G01X195452Y1484254D01*
G01X193699Y1495321D01*
G01X188612Y1505305D01*
G01X180689Y1513228D01*
G01X170705Y1518315D01*
G01X159638Y1520068D01*
G01X89638Y1520068D01*
G01X78571Y1518315D01*
G01X68587Y1513228D01*
G01X60664Y1505305D01*
G01X55577Y1495321D01*
G01X53824Y1484254D01*
G01X53824Y1364254D01*
G01X55440Y1353617D01*
G01X-750083Y1353617D01*
G01X-753642Y1353759D01*
G01X-756695Y1354087D01*
G01X-765276Y1355567D01*
G01X-772059Y1356918D01*
G01X-786874Y1358715D01*
G01X-801717Y1357153D01*
G01X-815834Y1352312D01*
G01X-828511Y1344436D01*
G01X-839106Y1333925D01*
G01X-847082Y1321311D01*
G01X-852035Y1307232D01*
G01X-853714Y1292403D01*
G01X-869256Y1292403D01*
G01X-869256Y1671705D01*
G01X-437831Y1671705D01*
G01X-436137Y1656812D01*
G01X-431142Y1642681D01*
G01X-423101Y1630032D01*
G01X-412425Y1619512D01*
G01X-399660Y1611659D01*
G01X-385456Y1606872D01*
G01X-370541Y1605398D01*
G01X-355675Y1607310D01*
G01X-341619Y1612513D01*
G01X-329090Y1620739D01*
G01X-326933Y1622325D01*
G01X-325361Y1623191D01*
G01X-323944Y1623191D01*
G01X-327634Y1609153D01*
G01X-328181Y1594650D01*
G01X-325559Y1580374D01*
G01X-319895Y1567011D01*
G01X-311459Y1555201D01*
G01X-300656Y1545508D01*
G01X-288003Y1538398D01*
G01X-274106Y1534211D01*
G01X-259631Y1533147D01*
G01X-245272Y1535258D01*
G01X-231715Y1540442D01*
G01X-219611Y1548452D01*
G01X-217454Y1550038D01*
G01X-215883Y1550903D01*
G01X3648Y1550903D01*
G01X5219Y1550038D01*
G01X7376Y1548452D01*
G01X20918Y1539725D01*
G01X36164Y1534521D01*
G01X52215Y1533147D01*
G01X68124Y1535684D01*
G01X82952Y1541983D01*
G01X95823Y1551671D01*
G01X105978Y1564177D01*
G01X112818Y1578762D01*
G01X115939Y1594567D01*
G01X115158Y1610658D01*
G01X110519Y1626085D01*
G01X102297Y1639939D01*
G01X90976Y1651401D01*
G01X77226Y1659795D01*
G01X61858Y1664627D01*
G01X45778Y1665609D01*
G01X29936Y1662686D01*
G01X15266Y1656028D01*
G01X16889Y1672197D01*
G01X14531Y1688276D01*
G01X8334Y1703298D01*
G01X-1331Y1716362D01*
G01X-13883Y1726683D01*
G01X-28569Y1733641D01*
G01X-44505Y1736819D01*
G01X-60736Y1736026D01*
G01X-76287Y1731309D01*
G01X-90224Y1722951D01*
G01X-92646Y1721267D01*
G01X-94631Y1720219D01*
G01X-325361Y1720219D01*
G01X-326933Y1721084D01*
G01X-329090Y1722670D01*
G01X-341619Y1730896D01*
G01X-355675Y1736099D01*
G01X-370541Y1738011D01*
G01X-385456Y1736537D01*
G01X-399660Y1731751D01*
G01X-412425Y1723897D01*
G01X-423101Y1713377D01*
G01X-431142Y1700728D01*
G01X-436137Y1686597D01*
G01X-437831Y1671705D01*
G01X-437831Y1671705D01*
G01X-869256Y1671705D01*
G01X-869256Y1906276D01*
G01X443803Y1906276D01*
G01X1439015Y1906276D01*
G01X1449181Y1891011D01*
G01X1456588Y1874233D01*
G01X1461019Y1856436D01*
G01X1462344Y1838144D01*
G01X1460524Y1819894D01*
G01X1455611Y1802224D01*
G01X1447751Y1785653D01*
G01X1437175Y1770669D01*
G01X1414870Y1749934D01*
G01X1395407Y1726511D01*
G01X1379106Y1700786D01*
G01X1366239Y1673183D01*
G01X1357015Y1644159D01*
G01X1351589Y1614192D01*
G01X1350048Y1583777D01*
G01X1352419Y1553415D01*
G01X1358663Y1523607D01*
G01X1368676Y1494846D01*
G01X1382294Y1467605D01*
G01X1399291Y1442335D01*
G01X1419387Y1419452D01*
G01X1442250Y1399335D01*
G01X1467504Y1382314D01*
G01X1494732Y1368670D01*
G01X1523484Y1358630D01*
G01X1553285Y1352358D01*
G01X1583645Y1349958D01*
G01X1614062Y1351470D01*
G01X1644034Y1356868D01*
G01X1673067Y1366064D01*
G01X1700682Y1378905D01*
G01X1726422Y1395181D01*
G01X1749864Y1414622D01*
G01X1770621Y1436908D01*
G01X1787745Y1448672D01*
G01X1806822Y1456902D01*
G01X1827130Y1461288D01*
G01X1847903Y1461664D01*
G01X1868357Y1458015D01*
G01X1887719Y1450480D01*
G01X1905258Y1439343D01*
G01X1905258Y1132854D01*
G01X635876Y1132854D01*
G01X624809Y1131101D01*
G01X614825Y1126014D01*
G01X606902Y1118090D01*
G01X601815Y1108106D01*
G01X600062Y1097039D01*
G01X600091Y-1102888D01*
G01X601844Y-1113955D01*
G01X606931Y-1123939D01*
G01X614854Y-1131862D01*
G01X624838Y-1136949D01*
G01X635905Y-1138702D01*
G01X1905257Y-1138702D01*
G01X1905257Y-1445156D01*
G01X1888508Y-1455889D01*
G01X1870060Y-1463334D01*
G01X1850552Y-1467233D01*
G01X1830660Y-1467451D01*
G01X1811072Y-1463980D01*
G01X1792466Y-1456940D01*
G01X1775485Y-1446576D01*
G01X1760719Y-1433246D01*
G01X1738734Y-1412227D01*
G01X1714227Y-1394213D01*
G01X1687605Y-1379503D01*
G01X1659311Y-1368342D01*
G01X1629815Y-1360915D01*
G01X1599610Y-1357347D01*
G01X1569196Y-1357697D01*
G01X1539080Y-1361958D01*
G01X1509763Y-1370060D01*
G01X1481733Y-1381868D01*
G01X1455456Y-1397186D01*
G01X1431369Y-1415759D01*
G01X1409873Y-1437277D01*
G01X1391326Y-1461384D01*
G01X1376035Y-1487677D01*
G01X1364256Y-1515719D01*
G01X1356185Y-1545045D01*
G01X1351955Y-1575165D01*
G01X1351638Y-1605579D01*
G01X1355238Y-1635781D01*
G01X1362695Y-1665269D01*
G01X1373886Y-1693551D01*
G01X1388624Y-1720158D01*
G01X1406663Y-1744646D01*
G01X1427705Y-1766609D01*
G01X1439889Y-1779836D01*
G01X1449683Y-1794919D01*
G01X1456812Y-1811429D01*
G01X1461072Y-1828901D01*
G01X1462344Y-1846839D01*
G01X1460592Y-1864737D01*
G01X1455865Y-1882088D01*
G37*
G36*
G01X-616916Y-336145D02*
G01X-616916Y-337505D01*
G01X-615514Y-347427D01*
G01X-611418Y-356573D01*
G01X-604948Y-364225D01*
G01X-596612Y-369786D01*
G01X-630105Y-369786D01*
G01X-641929Y-367873D01*
G01X-632320Y-363187D01*
G01X-624522Y-355873D01*
G01X-619230Y-346583D01*
G01X-616916Y-336145D01*
G37*
G36*
G01X-470605Y-213425D02*
G01X-470605Y-260034D01*
G01X-473472Y-273025D01*
G01X-481218Y-270236D01*
G01X-489396Y-269290D01*
G01X-526238Y-269290D01*
G01X-535249Y-270442D01*
G01X-544260Y-269290D01*
G01X-581102Y-269290D01*
G01X-591703Y-270895D01*
G01X-601354Y-275566D01*
G01X-609189Y-282884D01*
G01X-614508Y-292193D01*
G01X-616833Y-302659D01*
G01X-616833Y-301300D01*
G01X-618582Y-290244D01*
G01X-623659Y-280267D01*
G01X-631568Y-272346D01*
G01X-641536Y-267253D01*
G01X-632195Y-261944D01*
G01X-624848Y-254103D01*
G01X-620158Y-244437D01*
G01X-618546Y-233813D01*
G01X-618546Y-213331D01*
G01X-574519Y-213331D01*
G01X-545027Y-213424D01*
G01X-470605Y-213425D01*
G37*
G36*
G01X-358501Y536368D02*
G01X-323145Y501013D01*
G01X-316170Y495581D01*
G01X-308077Y492023D01*
G01X-304519Y483930D01*
G01X-299087Y476955D01*
G01X-263732Y441599D01*
G01X-257006Y436317D01*
G01X-249219Y432780D01*
G01X-240815Y431191D01*
G01X-233165Y429263D01*
G01X-226679Y424770D01*
G01X-226210Y424169D01*
G01X-226588Y422270D01*
G01X-239027Y409830D01*
G01X-244123Y416253D01*
G01X-300691Y472821D01*
G01X-310290Y479674D01*
G01X-321595Y483037D01*
G01X-333379Y482546D01*
G01X-332888Y494330D01*
G01X-336251Y505634D01*
G01X-343103Y515233D01*
G01X-389021Y561151D01*
G01X-384203Y561891D01*
G01X-376248Y563015D01*
G01X-368744Y565884D01*
G01X-368388Y555154D01*
G01X-364868Y545011D01*
G01X-358501Y536368D01*
G37*
G36*
G01X-109220Y-556312D02*
G01X-111198Y-554165D01*
G01X-185445Y-479919D01*
G01X-183625Y-473041D01*
G01X-182894Y-465964D01*
G01X-109220Y-539638D01*
G01X-109220Y-556312D01*
G37*
G36*
G01X-136649Y-263513D02*
G01X-138381Y-259418D01*
G01X-138972Y-255011D01*
G01X-138972Y-213400D01*
G01X-101806Y-213400D01*
G01X-97399Y-213991D01*
G01X-93304Y-215723D01*
G01X182880Y-491907D01*
G01X182880Y-662391D01*
G01X177430Y-653554D01*
G01X169675Y-646651D01*
G01X160266Y-642263D01*
G01X149993Y-640758D01*
G01X122428Y-640758D01*
G01X122428Y-541528D01*
G01X120870Y-529695D01*
G01X116303Y-518668D01*
G01X109037Y-509199D01*
G01X-136649Y-263513D01*
G37*
G36*
G01X111899Y608452D02*
G01X129821Y608452D01*
G01X121909Y604988D01*
G01X114514Y600526D01*
G01X111899Y608452D01*
G37*
G36*
G01X345541Y-662879D02*
G01X352324Y-661528D01*
G01X354253Y-661195D01*
G01X356031Y-661695D01*
G01X358136Y-662454D01*
G01X346518Y-676759D01*
G01X338190Y-693198D01*
G01X333528Y-711027D01*
G01X332743Y-729438D01*
G01X319096Y-730189D01*
G01X305893Y-733722D01*
G01X293695Y-739887D01*
G01X283019Y-748421D01*
G01X274320Y-758963D01*
G01X274320Y-634071D01*
G01X284752Y-646655D01*
G01X297947Y-656306D01*
G01X313100Y-662435D01*
G01X329293Y-664672D01*
G01X345541Y-662879D01*
G37*
G54D10*
G01X1455865Y-1882088D02*
G01X-869256Y-1882088D01*
G01X-869256Y-476498D01*
G01X-772569Y-476498D01*
G03X-779376Y-497504I29007J-21006D01*
G01X-779376Y-551505D01*
G03X-743562Y-587319I35814J0D01*
G01X-664553Y-587319D01*
G03X-649549Y-584024I0J35814D01*
G03X-634545Y-587319I15004J32520D01*
G01X-555536Y-587319D01*
G03X-519722Y-551505I0J35814D01*
G01X-519722Y-548453D01*
G02X-514576Y-541133I23566J-11100D01*
G01X-507712Y-534270D01*
G03X-504754Y-537622I28282J21972D01*
G01X-426973Y-615404D01*
G03X-382310Y-620223I25324J25324D01*
G03X-377504Y-664908I30130J-19361D01*
G01X-299723Y-742690D01*
G03X-249074Y-742690I25324J25324D01*
G01X-192505Y-686121D01*
G03X-183362Y-670526I-25324J25324D01*
G03X-167767Y-661383I-9729J34467D01*
G01X-111198Y-604814D01*
G03X-109220Y-602668I-25324J25324D01*
G01X-109220Y-955014D01*
G03X-127005Y-950286I-17785J-31086D01*
G01X-280005Y-950286D01*
G03X-315819Y-986100I0J-35814D01*
G01X-315819Y-1122100D01*
G03X-280005Y-1157914I35814J0D01*
G01X-127005Y-1157914D01*
G03X-109220Y-1153186I0J35814D01*
G01X-109220Y-1276462D01*
G01X-184729Y-1351971D01*
G03X-198120Y-1384300I32329J-32329D01*
G01X-198120Y-1436609D01*
G01X-199452Y-1438602D01*
G01X-202828Y-1442835D01*
G03X-195246Y-1536514I50428J-43065D01*
G03X-101600Y-1528525I42846J50614D01*
G03X-55374Y-1552056I50800J42625D01*
G03X-6350Y-1535111I4574J66156D01*
G03X42674Y-1552056I44450J49211D01*
G03X88900Y-1528525I-4574J66156D01*
G03X159915Y-1549058I50800J42625D01*
G03X205809Y-1491106I-20215J63158D01*
G01X206415Y-1485726D01*
G01X206883Y-1483375D01*
G01X349829Y-1340429D01*
G03X363220Y-1308100I-32329J32329D01*
G01X363220Y-917010D01*
G03X419180Y-937514I55960J66110D01*
G01X469980Y-937514D01*
G03X528884Y-787400I0J86614D01*
G03X528884Y-660400I-58904J63500D01*
G03X528884Y-533400I-58904J63500D01*
G03X528884Y-406400I-58904J63500D01*
G03X469980Y-256286I-58904J63500D01*
G01X419180Y-256286D01*
G03X357245Y-282352I0J-86614D01*
G03X266039Y-326140I-27045J-60548D01*
G03X324177Y-408940I64161J-16760D01*
G03X268507Y-450659I6023J-66040D01*
G03X260929Y-440640I-39907J-22310D01*
G01X228088Y-407799D01*
G03X261802Y-335743I-31203J58514D01*
G03X202091Y-283176I-64917J-13542D01*
G01X196711Y-282570D01*
G01X194360Y-282102D01*
G01X123078Y-210820D01*
G01X388170Y-210820D01*
G02X403369Y-214039I0J-37491D01*
G03X417888Y-217114I14519J32739D01*
G01X448201Y-217114D01*
G03X457200Y-215965I0J35814D01*
G03X466199Y-217114I8999J34665D01*
G01X496512Y-217114D01*
G03X532326Y-181300I0J35814D01*
G01X532326Y-148900D01*
G03X517568Y-119930I-35814J0D01*
G03X518394Y-112283I-34988J7646D01*
G01X518394Y-52283D01*
G03X513828Y-34785I-35814J0D01*
G03X518394Y-17287I-31248J17498D01*
G01X518394Y42713D01*
G03X513835Y60198I-35814J0D01*
G03X518394Y77683I-31255J17485D01*
G01X518394Y137683D01*
G03X504957Y165646I-35814J0D01*
G02X499333Y171463I19890J24854D01*
G01X507927Y180057D01*
G03X525856Y223342I-43285J43285D01*
G01X525856Y733067D01*
G02X541694Y773463I59436J0D01*
G03X576656Y809267I-852J35804D01*
G01X576656Y869267D01*
G03X541694Y905071I-35814J0D01*
G02X525856Y945467I43598J40396D01*
G01X525856Y1006426D01*
G01X526000Y1009933D01*
G01X526330Y1012919D01*
G01X527842Y1021437D01*
G01X529207Y1028071D01*
G03X529208Y1059808I-64387J15869D01*
G02X539235Y1073452I35889J-15868D01*
G01X540842Y1073452D01*
G03X576656Y1109266I0J35814D01*
G01X576656Y1169266D01*
G03X540842Y1205080I-35814J0D01*
G01X388442Y1205080D01*
G03X352628Y1169266I0J-35814D01*
G01X352628Y1109266D01*
G03X388442Y1073452I35814J0D01*
G01X390050Y1073452D01*
G02X400290Y1059317I-25862J-29512D01*
G01X400178Y1058739D01*
G03X400178Y1029141I64642J-14799D01*
G01X401514Y1022197D01*
G01X402962Y1013553D01*
G01X403287Y1010432D01*
G01X403428Y1006820D01*
G01X403428Y945467D01*
G02X387590Y905071I-59436J0D01*
G03X352628Y869267I852J-35804D01*
G01X352628Y809267D01*
G03X353827Y800080I35814J0D01*
G01X319635Y800080D01*
G03X283821Y764266I0J-35814D01*
G01X283821Y644266D01*
G03X319635Y608452I35814J0D01*
G01X389635Y608452D01*
G03X403428Y611215I0J35814D01*
G01X403428Y250438D01*
G03X367194Y175547I28372J-59938D01*
G02X358872Y164527I-31260J14953D01*
G03X346766Y137683I23708J-26844D01*
G01X346766Y77683D01*
G03X351324Y60198I35814J0D01*
G03X346766Y42713I31255J-17485D01*
G01X346766Y-17287D01*
G03X351332Y-34785I35814J0D01*
G03X346766Y-52283I31248J-17498D01*
G01X346766Y-112283D01*
G03X347476Y-119380I35814J0D01*
G01X297674Y-119380D01*
G03X298379Y-112309I-35109J7071D01*
G01X298379Y-52309D01*
G03X262565Y-16495I-35814J0D01*
G01X162565Y-16495D01*
G03X126751Y-52309I0J-35814D01*
G01X126751Y-112309D01*
G03X127456Y-119380I35814J0D01*
G01X95138Y-119380D01*
G01X46878Y-71120D01*
G01X63500Y-71120D01*
G03X95829Y-57729I0J45720D01*
G01X121229Y-32329D01*
G03X134620Y0I-32329J32329D01*
G01X134620Y55310D01*
G03X162565Y41895I27945J22399D01*
G01X262565Y41895D01*
G03X298379Y77709I0J35814D01*
G01X298379Y137709D01*
G03X291618Y158650I-35814J0D01*
G02X273779Y213909I76664J55259D01*
G01X273779Y245617D01*
G02X291556Y240419I-46779J-192971D01*
G03X303200Y238473I11644J33868D01*
G01X357200Y238473D01*
G03X393014Y274287I0J35814D01*
G01X393014Y353296D01*
G03X389720Y368300I-35814J0D01*
G03X393014Y383304I-32520J15004D01*
G01X393014Y462313D01*
G03X357200Y498127I-35814J0D01*
G01X303200Y498127D01*
G03X267386Y462313I0J-35814D01*
G01X267386Y383304D01*
G03X267657Y378902I35814J0D01*
G02X242445Y374384I-40657J154248D01*
G01X235484Y375584D01*
G01X228701Y376935D01*
G03X167412Y360235I-15341J-64515D01*
G03X148285Y299659I45948J-47815D01*
G01X149575Y292013D01*
G01X150824Y283669D01*
G01X151351Y275465D01*
G01X151351Y213909D01*
G02X134620Y160221I-94504J0D01*
G01X134620Y294198D01*
G03X121435Y326320I-45720J0D01*
G01X120968Y328672D01*
G01X120362Y334052D01*
G03X65207Y394249I-66109J-5206D01*
G01X149875Y478917D01*
G01X152226Y479385D01*
G01X157606Y479991D01*
G03X170090Y610011I-5206J66109D01*
G03X195452Y644266I-10452J34255D01*
G01X195452Y764266D01*
G03X159638Y800080I-35814J0D01*
G01X89638Y800080D01*
G03X53824Y764266I0J-35814D01*
G01X53824Y649979D01*
G03X-9120Y613086I-3469J-66223D01*
G03X-72Y540690I59475J-29330D01*
G01X2681Y537238D01*
G01X-94801Y439757D01*
G03X-151495Y490636I-64604J-14962D01*
G01X-154377Y491146D01*
G01X-156484Y491793D01*
G01X-158070Y493379D01*
G02X-164491Y507515I15621J15621D01*
G03X-174899Y530432I-35733J-2407D01*
G01X-210255Y565787D01*
G03X-225323Y574777I-25324J-25324D01*
G03X-234313Y589845I-34314J-10256D01*
G01X-269668Y625201D01*
G03X-298393Y635529I-25324J-25324D01*
G03X-295733Y641173I-30944J18030D01*
G03X-282794Y649453I-12386J33604D01*
G01X-226926Y705321D01*
G03X-226926Y755970I-25324J25324D01*
G01X-265110Y794154D01*
G03X-315759Y794154I-25324J-25324D01*
G01X-371627Y738286D01*
G03X-379907Y725347I25324J-25324D01*
G03X-392846Y717067I12386J-33604D01*
G01X-448714Y661199D01*
G03X-458998Y639704I25324J-25324D01*
G02X-466151Y624755I-24766J2663D01*
G01X-783605Y307301D01*
G03X-797814Y272996I34305J-34305D01*
G01X-797814Y-79248D01*
G03X-783605Y-113553I48514J0D01*
G01X-729425Y-167732D01*
G02X-722393Y-182551I-17276J-17276D01*
G03X-721422Y-187960I35632J3602D01*
G03X-722574Y-196971I34662J-9011D01*
G01X-722574Y-233813D01*
G03X-702901Y-265784I35814J0D01*
G03X-707511Y-265486I-4609J-35516D01*
G01X-744353Y-265486D01*
G03X-780167Y-301300I0J-35814D01*
G01X-780167Y-333700D01*
G03X-778487Y-344540I35814J0D01*
G02X-776025Y-354070I-85838J-27260D01*
G01X-869256Y-354070D01*
G01X-869256Y1906276D01*
G01X443803Y1906276D01*
G01X1439015Y1906276D01*
G02X1437175Y1770669I-83588J-66681D01*
G03X1770621Y1436908I149935J-183653D01*
G02X1905258Y1439343I68821J-81835D01*
G01X1905258Y1132854D01*
G01X635876Y1132854D01*
G03X600062Y1097039I0J-35814D01*
G01X600091Y-1102888D01*
G03X635905Y-1138702I35814J0D01*
G01X1905257Y-1138702D01*
G01X1905257Y-1445156D01*
G02X1760719Y-1433246I-65816J84271D01*
G03X1427705Y-1766609I-173612J-159583D01*
G02X1455865Y-1882088I-72278J-78798D01*
G01X160599Y1231189D02*
G03X237999Y1133474I79025J-16916D01*
G03X319265Y1227998I1625J80799D01*
G02X384134Y1223699I-7022J-597588D01*
G03X388442Y1223439I4308J35554D01*
G01X540842Y1223439D01*
G03X545150Y1223699I0J35814D01*
G02X617042Y1228039I71892J-593289D01*
G01X678002Y1228039D01*
G03X702139Y1232999I0J61214D01*
G03X814714Y1282925I-28705J216606D01*
G03X874014Y1381760I-52714J98835D01*
G01X874014Y1474781D01*
G01X876564Y1481783D01*
G01X879266Y1488271D01*
G01X882193Y1494507D01*
G01X885259Y1500200D01*
G01X888446Y1505269D01*
G01X891725Y1509660D01*
G01X895733Y1514099D01*
G01X924946Y1543313D01*
G02X1011652Y1591526I127846J-127846D01*
G03X1031778Y1604418I-8149J34875D01*
G03X1164311Y1676400I46719J71982D01*
G03X1031778Y1748382I-85814J0D01*
G03X1003503Y1762214I-28274J-21982D01*
G01X903503Y1762214D01*
G03X868629Y1734549I0J-35814D01*
G02X820416Y1647843I-176059J41140D01*
G01X789641Y1617068D01*
G01X785134Y1612982D01*
G01X780665Y1609607D01*
G01X775546Y1606325D01*
G01X769830Y1603161D01*
G01X763600Y1600132D01*
G01X757128Y1597318D01*
G01X750544Y1594787D01*
G03X649986Y1483360I11456J-111427D01*
G01X649986Y1442954D01*
G02X560517Y1353361I-200925J111179D01*
G01X559881Y1353207D01*
G02X545150Y1354807I57161J594889D01*
G03X540842Y1355067I-4308J-35554D01*
G01X424250Y1355067D01*
G03X425449Y1364254I-34616J9187D01*
G01X425449Y1484254D01*
G03X389635Y1520068I-35814J0D01*
G01X319635Y1520068D01*
G03X283821Y1484254I0J-35814D01*
G01X283821Y1381854D01*
G03X279400Y1382014I-4421J-61054D01*
G01X204163Y1382014D01*
G03X195452Y1381391I0J-61214D01*
G01X195452Y1484254D01*
G03X159638Y1520068I-35814J0D01*
G01X89638Y1520068D01*
G03X53824Y1484254I0J-35814D01*
G01X53824Y1364254D01*
G03X55440Y1353617I35814J0D01*
G01X-750083Y1353617D01*
G01X-753642Y1353759D01*
G01X-756695Y1354087D01*
G01X-765276Y1355567D01*
G01X-772059Y1356918D01*
G03X-853714Y1292403I-15341J-64515D01*
G03X-772059Y1227888I66314J0D01*
G01X-765276Y1229238D01*
G01X-756695Y1230719D01*
G01X-753642Y1231046D01*
G01X-750083Y1231189D01*
G01X160599Y1231189D01*
G01X-830134Y663059D02*
G03X-508507Y663059I160814J0D01*
G03X-830134Y663059I-160814J0D01*
G01X-437831Y1671705D02*
G03X-329090Y1620739I66314J0D01*
G01X-326933Y1622325D01*
G01X-325361Y1623191D01*
G01X-323944Y1623191D01*
G03X-300656Y1545508I61906J-23773D01*
G03X-219611Y1548452I38618J53909D01*
G01X-217454Y1550038D01*
G01X-215883Y1550903D01*
G01X3648Y1550903D01*
G01X5219Y1550038D01*
G01X7376Y1548452D01*
G03X115939Y1594567I42427J50966D01*
G03X15266Y1656028I-66136J4851D01*
G03X-13883Y1726683I-64674J14659D01*
G03X-90224Y1722951I-35524J-55996D01*
G01X-92646Y1721267D01*
G01X-94631Y1720219D01*
G01X-325361Y1720219D01*
G01X-326933Y1721084D01*
G01X-329090Y1722670D01*
G03X-437831Y1671705I-42427J-50966D01*
G01X158808Y914273D02*
G03X320439Y914273I80815J0D01*
G03X158808Y914273I-80815J0D01*
G01X1030986Y1483360D02*
G01X1030986Y1381760D01*
G03X1255014Y1381760I112014J0D01*
G01X1255014Y1483360D01*
G03X1030986Y1483360I-112014J0D01*
G01X-616916Y-336145D02*
G01X-616916Y-337505D01*
G03X-596612Y-369786I35814J0D01*
G01X-630105Y-369786D01*
G02X-641929Y-367873I0J37491D01*
G03X-616916Y-336145I-10718J34173D01*
G01X-470605Y-213425D02*
G01X-470605Y-260034D01*
G02X-473472Y-273025I-132010J22328D01*
G03X-489396Y-269290I-15923J-32080D01*
G01X-526238Y-269290D01*
G03X-535249Y-270442I0J-35814D01*
G03X-544260Y-269290I-9011J-34662D01*
G01X-581102Y-269290D01*
G03X-616833Y-302659I0J-35814D01*
G01X-616833Y-301300D01*
G03X-641536Y-267253I-35814J0D01*
G03X-618546Y-233813I-12824J33439D01*
G01X-618546Y-213331D01*
G01X-574519Y-213331D01*
G01X-545027Y-213424D01*
G01X-470605Y-213425D01*
G01X-358501Y536368D02*
G01X-323145Y501013D01*
G03X-308077Y492023I25324J25324D01*
G03X-299087Y476955I34314J10256D01*
G01X-263732Y441599D01*
G03X-240815Y431191I25324J25324D01*
G02X-226679Y424770I-1485J-22041D01*
G01X-226210Y424169D01*
G01X-226588Y422270D01*
G01X-239027Y409830D01*
G03X-244123Y416253I-30420J-18902D01*
G01X-300691Y472821D01*
G03X-333379Y482546I-25324J-25324D01*
G03X-343103Y515233I-35049J7363D01*
G01X-389021Y561151D01*
G02X-384203Y561891I5368J-18894D01*
G03X-368744Y565884I-1003J35800D01*
G03X-358501Y536368I35568J-4192D01*
G01X-109220Y-556312D02*
G03X-111198Y-554165I-27303J-23178D01*
G01X-185445Y-479919D01*
G03X-182894Y-465964I-43155J15099D01*
G01X-109220Y-539638D01*
G01X-109220Y-556312D01*
G01X-136649Y-263513D02*
G02X-138972Y-255011I14398J8502D01*
G01X-138972Y-213400D01*
G01X-101806Y-213400D01*
G02X-93304Y-215723I0J-16720D01*
G01X182880Y-491907D01*
G01X182880Y-662391D01*
G03X149993Y-640758I-32887J-14181D01*
G01X122428Y-640758D01*
G01X122428Y-541528D01*
G03X109037Y-509199I-45720J0D01*
G01X-136649Y-263513D01*
G01X111899Y608452D02*
G01X129821Y608452D01*
G03X114514Y600526I22579J-62352D01*
G03X111899Y608452I-64158J-16771D01*
G01X345541Y-662879D02*
G01X352324Y-661528D01*
G01X354253Y-661195D01*
G01X356031Y-661695D01*
G01X358136Y-662454D01*
G03X332743Y-729438I61044J-61446D01*
G03X274320Y-758963I-3198J-66237D01*
G01X274320Y-634071D01*
G03X345541Y-662879I55880J35707D01*
G54D11*
G01X-704057Y-524504D02*
G01X-769216Y-524504D01*
G01X-704057Y-524504D02*
G01X-704057Y-577159D01*
G01X-412255Y-522904D02*
G01X-458679Y-569329D01*
G01X-299277Y721803D02*
G01X-253203Y767877D01*
G01X-299277Y721803D02*
G01X-262045Y684571D01*
G01X-299277Y721803D02*
G01X-336509Y759035D01*
G01X-296407Y563107D02*
G01X-259175Y600339D01*
G01X-296407Y563107D02*
G01X-333639Y525875D01*
G01X-203698Y-568883D02*
G01X-146667Y-625914D01*
G01X-203698Y-568883D02*
G01X-157273Y-522459D01*
G01X-203505Y-1054100D02*
G01X-305659Y-1054100D01*
G01X-203505Y-1054100D02*
G01X-203505Y-960446D01*
G01X-203505Y-1054100D02*
G01X-203505Y-1147754D01*
G01X124638Y1424254D02*
G01X124638Y1509908D01*
G01X124638Y1424254D02*
G01X185292Y1424254D01*
G01X124638Y1424254D02*
G01X63984Y1424254D01*
G01X124638Y704266D02*
G01X124638Y789920D01*
G01X124638Y704266D02*
G01X124638Y618612D01*
G01X124638Y704266D02*
G01X185292Y704266D01*
G01X124638Y704266D02*
G01X63984Y704266D01*
G01X330200Y422808D02*
G01X330200Y487967D01*
G01X330200Y422808D02*
G01X382854Y422808D01*
G01X330200Y422808D02*
G01X277546Y422808D01*
G01X354635Y704266D02*
G01X354635Y618612D01*
G01X354635Y704266D02*
G01X293981Y704266D01*
G01X354635Y1424254D02*
G01X354635Y1509908D01*
G01X354635Y1424254D02*
G01X415289Y1424254D01*
G01X354635Y1424254D02*
G01X293981Y1424254D01*
G01X432580Y12713D02*
G01X508234Y12713D01*
G01X432580Y12713D02*
G01X356926Y12713D01*
G01X444580Y-723900D02*
G01X342726Y-723900D01*
G01X444580Y-723900D02*
G01X546434Y-723900D01*
G01X496512Y-165100D02*
G01X522166Y-165100D01*
G01X1143000Y1432560D02*
G01X1041146Y1432560D01*
G01X1143000Y1432560D02*
G01X1244854Y1432560D01*
G01X1143000Y1432560D02*
G01X1143000Y1585214D01*
G01X1143000Y1432560D02*
G01X1143000Y1279906D01*
G01X1078497Y1676400D02*
G01X1154151Y1676400D01*
G01X1078497Y1676400D02*
G01X1078497Y1752054D01*
G01X1078497Y1676400D02*
G01X1078497Y1600746D01*
G04 Copper End*

G04 PolygonModel Start*
G54D12*
G01X-424815Y-263106D02*
G02X-577215Y-415506I-177800J25400D01*
G54D13*
G01X800100Y1356360D02*
G02X660400Y1292860I-126666J93245D01*
G01X774700Y1445260D02*
G02X568640Y1292403I-274368J154545D01*
G01X731166Y1483360D02*
G02X575906Y1292403I-282106J70773D01*
G54D12*
G01X-431800Y432305D02*
G01X-431800Y483105D01*
G01X-427259Y487646D01*
G54D11*
G01X131112Y-692772D02*
G01X131112Y-620145D01*
G01X-670560Y-215392D02*
G01X-751542Y-215392D01*

G04 Rect Start*
G36*
G01X-670560Y-323844D02*
G01X-670560Y-214932D01*
G01X-562681Y-214932D01*
G01X-562681Y-323844D01*
G01X-670560Y-323844D01*
G37*
G04 Rect End*

G04 TearDrop Start*
G36*
G01X704188Y1279518D02*
G01X660042Y1307214D01*
G01X663637Y1311184D01*
G01X666908Y1315530D01*
G01X669868Y1320191D01*
G01X672530Y1325107D01*
G01X677008Y1335457D01*
G01X680444Y1346094D01*
G01X682939Y1356531D01*
G01X684596Y1366278D01*
G01X685516Y1374851D01*
G01X685800Y1381760D01*
G01X782967Y1308501D01*
G01X775832Y1306814D01*
G01X766880Y1305055D01*
G01X756631Y1302984D01*
G01X745607Y1300360D01*
G01X734330Y1296942D01*
G01X723320Y1292489D01*
G01X718078Y1289800D01*
G01X713099Y1286762D01*
G01X708447Y1283344D01*
G01X704188Y1279518D01*
G37*
G36*
G01X814345Y1591123D02*
G01X869763Y1538778D01*
G01X864024Y1532422D01*
G01X858890Y1525544D01*
G01X854299Y1518243D01*
G01X850193Y1510619D01*
G01X846510Y1502772D01*
G01X843190Y1494802D01*
G01X837396Y1478891D01*
G01X832329Y1463682D01*
G01X827503Y1449974D01*
G01X825030Y1443932D01*
G01X822437Y1438565D01*
G01X819661Y1433972D01*
G01X816644Y1430252D01*
G01X707356Y1536468D01*
G01X710962Y1539566D01*
G01X715435Y1542437D01*
G01X720677Y1545140D01*
G01X726591Y1547731D01*
G01X740043Y1552809D01*
G01X755007Y1558134D01*
G01X770701Y1564166D01*
G01X778578Y1567592D01*
G01X786344Y1571367D01*
G01X793901Y1575551D01*
G01X801153Y1580200D01*
G01X808000Y1585371D01*
G01X814345Y1591123D01*
G37*
G36*
G01X1104900Y1597660D02*
G01X1181100Y1597660D01*
G01X1181528Y1589107D01*
G01X1182737Y1580610D01*
G01X1184616Y1572199D01*
G01X1187053Y1563901D01*
G01X1189937Y1555744D01*
G01X1193155Y1547757D01*
G01X1200150Y1532401D01*
G01X1207145Y1518059D01*
G01X1213247Y1504956D01*
G01X1215684Y1498938D01*
G01X1217563Y1493315D01*
G01X1218772Y1488112D01*
G01X1219200Y1483360D01*
G01X1066800Y1483360D01*
G01X1067228Y1488112D01*
G01X1068437Y1493315D01*
G01X1070316Y1498938D01*
G01X1072753Y1504956D01*
G01X1078855Y1518059D01*
G01X1085850Y1532401D01*
G01X1092845Y1547757D01*
G01X1096063Y1555744D01*
G01X1098947Y1563901D01*
G01X1101384Y1572199D01*
G01X1103263Y1580610D01*
G01X1104472Y1589107D01*
G01X1104900Y1597660D01*
G37*
G36*
G01X352192Y-836283D02*
G01X348646Y-796816D01*
G01X353230Y-800647D01*
G01X358670Y-804002D01*
G01X364624Y-806794D01*
G01X370748Y-808935D01*
G01X376700Y-810338D01*
G01X382136Y-810917D01*
G01X386713Y-810585D01*
G01X390089Y-809254D01*
G01X372179Y-870177D01*
G01X369312Y-863324D01*
G01X365107Y-854540D01*
G01X359441Y-845101D01*
G01X356022Y-840534D01*
G01X352192Y-836283D01*
G37*
G36*
G01X341424Y-355600D02*
G01X341424Y-330200D01*
G01X346028Y-329772D01*
G01X351124Y-328563D01*
G01X356488Y-326684D01*
G01X361898Y-324247D01*
G01X367130Y-321363D01*
G01X371960Y-318145D01*
G01X376166Y-314703D01*
G01X379524Y-311150D01*
G01X379524Y-374650D01*
G01X376166Y-371097D01*
G01X371960Y-367655D01*
G01X367130Y-364437D01*
G01X361898Y-361553D01*
G01X356488Y-359116D01*
G01X351124Y-357237D01*
G01X346028Y-356028D01*
G01X341424Y-355600D01*
G37*
G36*
G01X344798Y-487680D02*
G01X338448Y-462280D01*
G01X343428Y-461831D01*
G01X348792Y-460561D01*
G01X354317Y-458588D01*
G01X359780Y-456028D01*
G01X364958Y-453000D01*
G01X369628Y-449620D01*
G01X373565Y-446006D01*
G01X376548Y-442275D01*
G01X382898Y-505456D01*
G01X379184Y-502141D01*
G01X374724Y-498929D01*
G01X369741Y-495926D01*
G01X364459Y-493235D01*
G01X359100Y-490961D01*
G01X353888Y-489208D01*
G01X349046Y-488079D01*
G01X344798Y-487680D01*
G37*
G36*
G01X344444Y-623764D02*
G01X341516Y-572964D01*
G01X347217Y-572667D01*
G01X352879Y-571829D01*
G01X358482Y-570526D01*
G01X364010Y-568835D01*
G01X374762Y-564593D01*
G01X384989Y-559717D01*
G01X403282Y-550512D01*
G01X411055Y-547408D01*
G01X414533Y-546499D01*
G01X417716Y-546121D01*
G01X420644Y-647679D01*
G01X417491Y-647486D01*
G01X414035Y-646784D01*
G01X406288Y-644136D01*
G01X387986Y-635894D01*
G01X377738Y-631452D01*
G01X366963Y-627565D01*
G01X361426Y-626010D01*
G01X355814Y-624810D01*
G01X350147Y-624037D01*
G01X344444Y-623764D01*
G37*
G36*
G01X388170Y-175006D02*
G01X388170Y-155194D01*
G03X417888Y-148900I0J73304D01*
G01X417888Y-181300D01*
G03X388170Y-175006I-29718J-67010D01*
G37*
G36*
G01X420345Y-110800D02*
G01X445745Y-110800D01*
G03X448201Y-148900I296731J0D01*
G01X417888Y-148900D01*
G03X420345Y-110800I-294275J38100D01*
G37*
G36*
G01X227000Y287020D02*
G01X227000Y337820D01*
G03X303200Y353296I0J195331D01*
G01X303200Y274287D01*
G03X227000Y287020I-76200J-221640D01*
G37*
G36*
G01X190805Y-948000D02*
G01X216205Y-948000D01*
G03X235255Y-986100I47625J0D01*
G01X171755Y-986100D01*
G03X190805Y-948000I-28575J38100D01*
G37*
G36*
G01X312242Y1263853D02*
G01X312242Y1314653D01*
G03X388442Y1319253I0J633445D01*
G01X388442Y1259253D01*
G03X312242Y1263853I-76200J-628845D01*
G37*
G36*
G01X617042Y1314653D02*
G01X617042Y1263853D01*
G03X540842Y1259253I0J-633445D01*
G01X540842Y1319253D01*
G03X617042Y1314653I76200J628845D01*
G37*
G36*
G01X490042Y1043940D02*
G01X439242Y1043940D01*
G03X401142Y1109266I-75054J0D01*
G01X528142Y1109266D01*
G03X490042Y1043940I36954J-65326D01*
G37*
G36*
G01X490042Y733067D02*
G01X439242Y733067D01*
G03X401142Y809267I-95250J0D01*
G01X528142Y809267D01*
G03X490042Y733067I57150J-76200D01*
G37*
G36*
G01X439242Y945467D02*
G01X490042Y945467D01*
G03X528142Y869267I95250J0D01*
G01X401142Y869267D01*
G03X439242Y945467I-57150J76200D01*
G37*
G36*
G01X-1000539Y-389884D02*
G01X-1000539Y-440684D01*
G03X-1076739Y-478784I0J-95250D01*
G01X-1076739Y-351784D01*
G03X-1000539Y-389884I76200J57150D01*
G37*
G36*
G01X-713049Y-371800D02*
G01X-738449Y-371800D01*
G03X-744353Y-333700I-125876J0D01*
G01X-707511Y-333700D01*
G03X-713049Y-371800I128285J-38100D01*
G37*
G36*
G01X-614547Y-307340D02*
G01X-614547Y-332740D01*
G03X-652647Y-333700I0J-756431D01*
G01X-652647Y-301300D01*
G03X-614547Y-307340I38100J117144D01*
G37*
G36*
G01X-683260Y-263200D02*
G01X-657860Y-263200D01*
G03X-652647Y-301300I141827J0D01*
G01X-689489Y-301300D01*
G03X-683260Y-263200I-113399J38100D01*
G37*
G36*
G01X-738449Y-361206D02*
G01X-713049Y-361206D01*
G03X-708134Y-399306I150139J0D01*
G01X-738447Y-399306D01*
G01X-738449Y-361206D01*
G37*
G36*
G01X-630105Y-405600D02*
G01X-630105Y-425412D01*
G03X-659823Y-431706I0J-73304D01*
G01X-659823Y-399306D01*
G03X-630105Y-405600I29718J67010D01*
G37*
G36*
G01X-531561Y-479452D02*
G01X-539900Y-515809D01*
G03X-555536Y-542201I43744J-43744D01*
G01X-555536Y-497504D01*
G03X-531561Y-479452I-52066J94094D01*
G37*
G36*
G01X-624642Y-157705D02*
G01X-624642Y-177517D01*
G03X-654360Y-178949I0J-309013D01*
G01X-654360Y-142846D01*
G03X-624642Y-157705I29718J22289D01*
G37*
G36*
G01X-704100Y-142408D02*
G01X-688361Y-122226D01*
G03X-654360Y-142107I54929J54929D01*
G01X-686760Y-178949D01*
G03X-704100Y-142408I-59941J-6060D01*
G37*
G36*
G01X-657860Y-271913D02*
G01X-683260Y-271913D01*
G03X-686760Y-233813I-209115J0D01*
G01X-654360Y-233813D01*
G03X-657860Y-271913I205615J-38100D01*
G37*
G36*
G01X-544420Y181834D02*
G01X-558429Y167825D01*
G03X-589950Y178332I-26267J-26267D01*
G01X-554927Y213355D01*
G03X-544420Y181834I36774J-5253D01*
G37*
G36*
G01X-436639Y289615D02*
G01X-450648Y275606D01*
G03X-482169Y286113I-26267J-26267D01*
G01X-447146Y321136D01*
G03X-436639Y289615I36774J-5254D01*
G37*
G36*
G01X-470785Y-340375D02*
G01X-490967Y-356115D01*
G03X-526238Y-337505I-47729J-47728D01*
G01X-489396Y-305104D01*
G03X-470785Y-340375I66339J12457D01*
G37*
G36*
G01X-619202Y-332740D02*
G01X-619202Y-307340D01*
G03X-581102Y-305104I0J325761D01*
G01X-581102Y-337505D01*
G03X-619202Y-332740I-38100J-149952D01*
G37*
G36*
G01X-574519Y-17497D02*
G01X-574519Y2315D01*
G01X-544801Y2409D01*
G01X-544801Y-17591D01*
G01X-574519Y-17497D01*
G37*
G36*
G01X-574519Y-97507D02*
G01X-574519Y-77695D01*
G01X-544801Y-77601D01*
G01X-544801Y-97601D01*
G01X-574519Y-97507D01*
G37*
G36*
G01X-574519Y-177517D02*
G01X-574519Y-157705D01*
G01X-544801Y-157611D01*
G01X-544801Y-177611D01*
G01X-574519Y-177517D01*
G37*
G36*
G01X-47774Y-182586D02*
G01X-70286Y-188093D01*
G03X-101806Y-177586I-31521J-42027D01*
G01X-64802Y-157586D01*
G03X-47774Y-182586I74411J32383D01*
G37*
G36*
G01X-35084Y-117700D02*
G01X-35084Y-137512D01*
G01X-64802Y-137606D01*
G01X-64802Y-117606D01*
G01X-35084Y-117700D01*
G37*
G36*
G01X-41304Y-37690D02*
G01X-41304Y-57502D01*
G01X-64802Y-57596D01*
G01X-64802Y-37596D01*
G01X-41304Y-37690D01*
G37*
G36*
G01X-35084Y2315D02*
G01X-35084Y-17497D01*
G01X-64802Y-17591D01*
G01X-64802Y2409D01*
G01X-35084Y2315D01*
G37*
G36*
G01X-35084Y42320D02*
G01X-35084Y22508D01*
G01X-64802Y22414D01*
G01X-64802Y42414D01*
G01X-35084Y42320D01*
G37*
G36*
G01X-41906Y82300D02*
G01X-41906Y62488D01*
G01X-64802Y62394D01*
G01X-64802Y82394D01*
G01X-41906Y82300D01*
G37*
G36*
G01X-374880Y-317314D02*
G01X-394692Y-317314D01*
G01X-394786Y-287596D01*
G01X-374786Y-287596D01*
G01X-374880Y-317314D01*
G37*
G36*
G01X-334875Y-317314D02*
G01X-354687Y-317314D01*
G01X-354781Y-287596D01*
G01X-334781Y-287596D01*
G01X-334875Y-317314D01*
G37*
G36*
G01X-294895Y-317314D02*
G01X-314707Y-317314D01*
G01X-314801Y-287596D01*
G01X-294801Y-287596D01*
G01X-294895Y-317314D01*
G37*
G36*
G01X-254890Y-317314D02*
G01X-274702Y-317314D01*
G01X-274796Y-287596D01*
G01X-254796Y-287596D01*
G01X-254890Y-317314D01*
G37*
G36*
G01X-214885Y-304800D02*
G01X-234697Y-304800D01*
G03X-234791Y-287596I-1574698J1D01*
G01X-214791Y-287596D01*
G03X-214885Y-304800I1574604J-17204D01*
G37*
G36*
G01X-164279Y-286531D02*
G01X-171996Y-306833D01*
G03X-194786Y-287596I-125185J-125186D01*
G01X-174786Y-255011D01*
G03X-164279Y-286531I52534J0D01*
G37*
G36*
G01X-194692Y208914D02*
G01X-174880Y208914D01*
G03X-174786Y192403I1450235J-0D01*
G01X-194786Y192403D01*
G03X-194692Y208914I-1450141J16510D01*
G37*
G36*
G01X-234697Y222121D02*
G01X-214885Y222121D01*
G01X-214791Y192403D01*
G01X-234791Y192403D01*
G01X-234697Y222121D01*
G37*
G36*
G01X-274702Y222121D02*
G01X-254890Y222121D01*
G01X-254796Y192403D01*
G01X-254796Y192403D01*
G01X-274796Y192403D01*
G01X-274702Y222121D01*
G37*
G36*
G01X-314707Y222121D02*
G01X-294895Y222121D01*
G01X-294801Y192403D01*
G01X-314801Y192403D01*
G01X-314707Y222121D01*
G37*
G36*
G01X-354687Y222121D02*
G01X-334875Y222121D01*
G01X-334781Y192403D01*
G01X-354781Y192403D01*
G01X-354687Y222121D01*
G37*
G36*
G01X-394692Y222121D02*
G01X-374880Y222121D01*
G01X-374786Y192403D01*
G01X-394786Y192403D01*
G01X-394692Y222121D01*
G37*
G36*
G01X-464509Y142498D02*
G01X-464509Y162310D01*
G03X-434791Y177169I0J37148D01*
G01X-434791Y127639D01*
G03X-464509Y142498I-29718J-22289D01*
G37*
G36*
G01X-309626Y-582171D02*
G01X-289814Y-573954D01*
G03X-274955Y-603672I52006J7429D01*
G01X-324485Y-611889D01*
G03X-309626Y-582171I-37147J37147D01*
G37*
G36*
G01X-354687Y-372695D02*
G01X-334875Y-366243D01*
G03X-320016Y-395961I52006J7429D01*
G01X-369546Y-402413D01*
G03X-354687Y-372695I-37147J37147D01*
G37*
G36*
G01X-294895Y350621D02*
G01X-314707Y301091D01*
G03X-329566Y330809I-37148J0D01*
G01X-280036Y380339D01*
G03X-294895Y350621I37147J-37147D01*
G37*
G36*
G01X-483037Y525463D02*
G01X-465077Y543424D01*
G03X-433093Y538381I19457J19458D01*
G01X-477994Y493479D01*
G03X-483037Y525463I-24501J12527D01*
G37*
G36*
G01X89408Y-747072D02*
G01X64008Y-747072D01*
G03X58287Y-708972I-129720J0D01*
G01X95129Y-708972D01*
G03X89408Y-747072I123998J-38100D01*
G37*
G36*
G01X66802Y-646854D02*
G01X86614Y-646854D01*
G03X95129Y-676572I56115J0D01*
G01X58287Y-676572D01*
G03X66802Y-646854I-47599J29718D01*
G37*
G36*
G01X-422866Y581470D02*
G01X-440826Y599430D01*
G03X-423389Y635875I-42937J42937D01*
G01X-385205Y597691D01*
G03X-422866Y581470I1553J-55434D01*
G37*
G36*
G01X64008Y-747044D02*
G01X89408Y-747044D01*
G03X91148Y-785144I418022J0D01*
G01X60836Y-785144D01*
G03X64008Y-747044I-227197J38100D01*
G37*
G36*
G01X88900Y-855645D02*
G01X63500Y-855645D01*
G03X60836Y-817545I-273736J0D01*
G01X91148Y-817545D01*
G03X88900Y-855645I321756J-38100D01*
G37*
G36*
G01X159701Y-818783D02*
G01X142785Y-837788D01*
G03X109146Y-817545I-57530J-57531D01*
G01X139459Y-785144D01*
G03X159701Y-818783I77774J23892D01*
G37*
G36*
G01X63500Y-1230688D02*
G01X88900Y-1230688D01*
G03X92400Y-1268788I209115J0D01*
G01X60000Y-1268788D01*
G03X63500Y-1230688I-205615J38100D01*
G37*
G36*
G01X58761Y-1367654D02*
G01X39757Y-1350738D01*
G03X60000Y-1317099I-57531J57530D01*
G01X92400Y-1347412D01*
G03X58761Y-1367654I23892J-77774D01*
G37*
G36*
G01X-183395Y468055D02*
G01X-201355Y450095D01*
G03X-238408Y466924I-40945J-40945D01*
G01X-200224Y505108D01*
G03X-183395Y468055I57774J3893D01*
G37*
G36*
G01X445745Y-150383D02*
G01X420345Y-150383D01*
G03X401295Y-112283I-47625J0D01*
G01X464795Y-112283D01*
G03X445745Y-150383I28575J-38100D01*
G37*
G36*
G01X406400Y190500D02*
G01X457200Y190500D01*
G03X482580Y137683I67647J0D01*
G01X382580Y137683D01*
G03X406400Y190500I-46646J52817D01*
G37*
G36*
G01X187165Y213909D02*
G01X237965Y213909D01*
G03X262565Y137709I130318J0D01*
G01X162565Y137709D01*
G03X187165Y213909I-105718J76200D01*
G37*
G36*
G01X1147864Y1660914D02*
G01X1093982Y1607033D01*
G01X1087280Y1613012D01*
G01X1080095Y1618290D01*
G01X1072719Y1622971D01*
G01X1065442Y1627159D01*
G01X1052348Y1634467D01*
G01X1047113Y1637796D01*
G01X1043141Y1641045D01*
G01X1113852Y1711755D01*
G01X1117101Y1707783D01*
G01X1120429Y1702549D01*
G01X1127738Y1689455D01*
G01X1131925Y1682178D01*
G01X1136607Y1674801D01*
G01X1141885Y1667617D01*
G01X1147864Y1660914D01*
G37*
G36*
G01X899622Y1568637D02*
G01X845740Y1622518D01*
G03X903503Y1726400I-153171J153171D01*
G01X1003503Y1626400D01*
G03X899622Y1568637I49289J-210934D01*
G37*
G36*
G01X457200Y153900D02*
G01X406400Y153900D01*
G01X406181Y159373D01*
G01X405603Y164756D01*
G01X403850Y174918D01*
G01X402097Y183722D01*
G01X401300Y190500D01*
G01X462300Y190500D01*
G01X461503Y183722D01*
G01X459750Y174918D01*
G01X457997Y164756D01*
G01X457419Y159373D01*
G01X457200Y153900D01*
G37*
G36*
G01X-162306Y-1444376D02*
G01X-142494Y-1444376D01*
G01X-141379Y-1448080D01*
G01X-138441Y-1453540D01*
G01X-134287Y-1459756D01*
G01X-129525Y-1465726D01*
G01X-175275Y-1465726D01*
G01X-170513Y-1459756D01*
G01X-166359Y-1453540D01*
G01X-163421Y-1448080D01*
G01X-162306Y-1444376D01*
G37*
G36*
G01X-60706Y-1444376D02*
G01X-40894Y-1444376D01*
G01X-39779Y-1448080D01*
G01X-36841Y-1453540D01*
G01X-32687Y-1459756D01*
G01X-27925Y-1465726D01*
G01X-73675Y-1465726D01*
G01X-68913Y-1459756D01*
G01X-64759Y-1453540D01*
G01X-61821Y-1448080D01*
G01X-60706Y-1444376D01*
G37*
G36*
G01X-220514Y1612117D02*
G01X-220514Y1586717D01*
G01X-225109Y1585843D01*
G01X-230866Y1583538D01*
G01X-236785Y1580279D01*
G01X-241864Y1576542D01*
G01X-241864Y1622292D01*
G01X-236785Y1618556D01*
G01X-230866Y1615297D01*
G01X-225109Y1612992D01*
G01X-220514Y1612117D01*
G37*
G36*
G01X-329993Y1684405D02*
G01X-329993Y1659005D01*
G01X-334587Y1658130D01*
G01X-340344Y1655825D01*
G01X-346263Y1652566D01*
G01X-351343Y1648830D01*
G01X-351343Y1694580D01*
G01X-346263Y1690843D01*
G01X-340344Y1687584D01*
G01X-334587Y1685279D01*
G01X-329993Y1684405D01*
G37*
G36*
G01X8279Y1586717D02*
G01X8279Y1612117D01*
G01X12874Y1612992D01*
G01X18631Y1615297D01*
G01X24550Y1618556D01*
G01X29629Y1622292D01*
G01X29629Y1576542D01*
G01X24550Y1580279D01*
G01X18631Y1583538D01*
G01X12874Y1585843D01*
G01X8279Y1586717D01*
G37*
G36*
G01X-91684Y1659005D02*
G01X-90157Y1684405D01*
G01X-85667Y1685248D01*
G01X-79945Y1687473D01*
G01X-73991Y1690617D01*
G01X-68807Y1694222D01*
G01X-70334Y1648498D01*
G01X-75302Y1652356D01*
G01X-81183Y1655721D01*
G01X-86978Y1658102D01*
G01X-91684Y1659005D01*
G37*
G36*
G01X-750800Y1317803D02*
G01X-750800Y1267003D01*
G01X-756273Y1266784D01*
G01X-761656Y1266206D01*
G01X-771818Y1264453D01*
G01X-780622Y1262700D01*
G01X-787400Y1261903D01*
G01X-787400Y1322903D01*
G01X-780622Y1322106D01*
G01X-771818Y1320353D01*
G01X-761656Y1318600D01*
G01X-756273Y1318022D01*
G01X-750800Y1317803D01*
G37*
G36*
G01X25400Y-1444376D02*
G01X50800Y-1444376D01*
G01X51675Y-1448971D01*
G01X53980Y-1454728D01*
G01X57239Y-1460647D01*
G01X60975Y-1465726D01*
G01X15225Y-1465726D01*
G01X18961Y-1460647D01*
G01X22220Y-1454728D01*
G01X24525Y-1448971D01*
G01X25400Y-1444376D01*
G37*
G36*
G01X-13125Y22508D02*
G01X-14035Y42320D01*
G01X-10230Y43452D01*
G01X-4737Y46436D01*
G01X1446Y50654D01*
G01X7315Y55490D01*
G01X8225Y9749D01*
G01X2154Y14434D01*
G01X-4095Y18521D01*
G01X-9522Y21411D01*
G01X-13125Y22508D01*
G37*
G36*
G01X-22357Y77934D02*
G01X-36366Y91943D01*
G01X-34536Y95350D01*
G01X-32753Y101288D01*
G01X-31295Y108621D01*
G01X-30440Y116210D01*
G01X1910Y83860D01*
G01X-5679Y83005D01*
G01X-13012Y81547D01*
G01X-18950Y79764D01*
G01X-22357Y77934D01*
G37*
G36*
G01X162057Y-1449534D02*
G01X176066Y-1463543D01*
G01X174236Y-1466950D01*
G01X172453Y-1472888D01*
G01X170995Y-1480221D01*
G01X170140Y-1487810D01*
G01X137790Y-1455460D01*
G01X145379Y-1454605D01*
G01X152712Y-1453147D01*
G01X158650Y-1451364D01*
G01X162057Y-1449534D01*
G37*
G36*
G01X-624094Y70568D02*
G01X-643906Y70568D01*
G01X-645021Y74272D01*
G01X-647959Y79732D01*
G01X-652113Y85948D01*
G01X-656875Y91918D01*
G01X-611125Y91918D01*
G01X-615887Y85948D01*
G01X-620041Y79732D01*
G01X-622979Y74272D01*
G01X-624094Y70568D01*
G37*
G36*
G01X-571608Y-77695D02*
G01X-569660Y-97507D01*
G01X-571356Y-97808D01*
G01X-573580Y-98658D01*
G01X-579112Y-101691D01*
G01X-585256Y-105979D01*
G01X-591010Y-110895D01*
G01X-592959Y-65187D01*
G01X-586775Y-69779D01*
G01X-580488Y-73786D01*
G01X-575099Y-76620D01*
G01X-571608Y-77695D01*
G37*
G36*
G01X371724Y-330200D02*
G01X371724Y-355600D01*
G01X367129Y-356475D01*
G01X361372Y-358780D01*
G01X355453Y-362039D01*
G01X350374Y-365775D01*
G01X350374Y-320025D01*
G01X355453Y-323761D01*
G01X361372Y-327020D01*
G01X367129Y-329325D01*
G01X371724Y-330200D01*
G37*
G36*
G01X371724Y-462280D02*
G01X371724Y-487680D01*
G01X367129Y-488555D01*
G01X361372Y-490860D01*
G01X355453Y-494119D01*
G01X350374Y-497855D01*
G01X350374Y-452105D01*
G01X355453Y-455841D01*
G01X361372Y-459100D01*
G01X367129Y-461405D01*
G01X371724Y-462280D01*
G37*
G36*
G01X367887Y-816057D02*
G01X349926Y-834017D01*
G01X346059Y-831387D01*
G01X340358Y-828946D01*
G01X333869Y-827065D01*
G01X327635Y-826115D01*
G01X359985Y-793765D01*
G01X360935Y-799999D01*
G01X362816Y-806489D01*
G01X365257Y-812190D01*
G01X367887Y-816057D01*
G37*
G36*
G01X160519Y-326928D02*
G01X174528Y-312919D01*
G01X177935Y-314749D01*
G01X183873Y-316533D01*
G01X191206Y-317990D01*
G01X198795Y-318845D01*
G01X166445Y-351195D01*
G01X165590Y-343606D01*
G01X164133Y-336273D01*
G01X162349Y-330335D01*
G01X160519Y-326928D01*
G37*
G36*
G01X366800Y-572964D02*
G01X366800Y-623764D01*
G01X361327Y-623983D01*
G01X355944Y-624561D01*
G01X345782Y-626314D01*
G01X336978Y-628067D01*
G01X330200Y-628864D01*
G01X330200Y-567864D01*
G01X336978Y-568661D01*
G01X345782Y-570414D01*
G01X355944Y-572167D01*
G01X361327Y-572745D01*
G01X366800Y-572964D01*
G37*
G36*
G01X90619Y306489D02*
G01X76609Y292480D01*
G01X73203Y294310D01*
G01X67264Y296094D01*
G01X59932Y297551D01*
G01X52342Y298406D01*
G01X84692Y330756D01*
G01X85547Y323167D01*
G01X87005Y315834D01*
G01X88788Y309896D01*
G01X90619Y306489D01*
G37*
G36*
G01X130043Y509734D02*
G01X116034Y523743D01*
G01X117864Y527150D01*
G01X119647Y533088D01*
G01X121105Y540421D01*
G01X121960Y548010D01*
G01X154310Y515660D01*
G01X146721Y514805D01*
G01X139388Y513347D01*
G01X133450Y511564D01*
G01X130043Y509734D01*
G37*
G36*
G01X60261Y542231D02*
G01X40449Y542231D01*
G01X39335Y545935D01*
G01X36396Y551395D01*
G01X32242Y557611D01*
G01X27480Y563581D01*
G01X73230Y563581D01*
G01X68468Y557611D01*
G01X64314Y551395D01*
G01X61376Y545935D01*
G01X60261Y542231D01*
G37*
G36*
G01X237965Y275025D02*
G01X187165Y276615D01*
G01X186467Y287474D01*
G01X184946Y297642D01*
G01X183460Y306447D01*
G01X182870Y313215D01*
G01X243850Y311625D01*
G01X242849Y304838D01*
G01X240835Y296036D01*
G01X238857Y285878D01*
G01X238210Y280497D01*
G01X237965Y275025D01*
G37*
G36*
G01X249960Y337820D02*
G01X249960Y287020D01*
G01X244487Y286801D01*
G01X239104Y286223D01*
G01X228942Y284470D01*
G01X220138Y282717D01*
G01X213360Y281920D01*
G01X213360Y342920D01*
G01X220138Y342123D01*
G01X228942Y340370D01*
G01X239104Y338617D01*
G01X244487Y338039D01*
G01X249960Y337820D01*
G37*
G36*
G01X490042Y1007162D02*
G01X439242Y1007518D01*
G01X439029Y1012991D01*
G01X438467Y1018374D01*
G01X436765Y1028538D01*
G01X435071Y1037342D01*
G01X434320Y1044118D01*
G01X495320Y1043762D01*
G01X494477Y1036982D01*
G01X492665Y1028179D01*
G01X490861Y1018017D01*
G01X490267Y1012635D01*
G01X490042Y1007162D01*
G37*
G36*
G01X439242Y1080362D02*
G01X490042Y1080718D01*
G01X490267Y1075245D01*
G01X490861Y1069863D01*
G01X492665Y1059701D01*
G01X494477Y1050898D01*
G01X495320Y1044118D01*
G01X434320Y1043762D01*
G01X435071Y1050538D01*
G01X436765Y1059342D01*
G01X438467Y1069506D01*
G01X439029Y1074889D01*
G01X439242Y1080362D01*
G37*
G36*
G01X-181762Y388428D02*
G01X-195772Y402438D01*
G01X-193941Y405845D01*
G01X-192158Y411783D01*
G01X-190700Y419116D01*
G01X-189845Y426705D01*
G01X-157495Y394355D01*
G01X-165084Y393500D01*
G01X-172417Y392042D01*
G01X-178355Y390259D01*
G01X-181762Y388428D01*
G37*
G36*
G01X-197577Y446316D02*
G01X-178634Y463294D01*
G01X-174854Y460712D01*
G01X-169228Y458242D01*
G01X-162789Y456265D01*
G01X-156571Y455163D01*
G01X-189889Y423810D01*
G01X-190689Y430051D01*
G01X-192477Y436586D01*
G01X-194893Y442359D01*
G01X-197577Y446316D01*
G37*
G36*
G01X-738449Y-339084D02*
G01X-713049Y-359874D01*
G03X-711622Y-410674I905043J-2D01*
G01X-743529Y-389884D01*
G03X-738449Y-339084I-251460J50800D01*
G37*
G36*
G01X-418279Y496626D02*
G02X-445034Y559302I64643J64643D01*
G01X-480955Y541342D01*
G01X-418279Y496626D01*
G37*
G04 TearDrop End*

G04 Pad Start*
G54D14*
G01X762000Y1432560D03*
G01X1143000Y1432560D03*
G54D15*
G01X444580Y-850900D03*
G01X444580Y-723900D03*
G01X444580Y-342900D03*
G01X444580Y-469900D03*
G01X444580Y-596900D03*
G54D16*
G01X433045Y-165100D03*
G01X481355Y-165100D03*
G54D17*
G01X330200Y313792D03*
G01X330200Y422808D03*
G54D19*
G01X-203505Y-1054100D03*
G01X203505Y-1054100D03*
G54D20*
G01X354635Y1424254D03*
G01X124638Y1424254D03*
G01X124638Y704266D03*
G01X354635Y704266D03*
G54D21*
G01X464642Y1289253D03*
G01X464642Y1139266D03*
G01X464642Y839267D03*
G54D22*
G01X-1126739Y-415284D03*
G01X-1442359Y-415284D03*
G54D23*
G01X-725932Y-317500D03*
G01X-671068Y-317500D03*
G54D16*
G01X-723290Y-415506D03*
G01X-674980Y-415506D03*
G54D24*
G01X-595040Y-524504D03*
G01X-704057Y-524504D03*
G54D25*
G01X-670560Y-160528D03*
G01X-670560Y-215392D03*
G54D26*
G01X-618400Y241805D03*
G01X-510619Y349586D03*
G54D23*
G01X-507817Y-321304D03*
G01X-562681Y-321304D03*
G54D27*
G01X-304801Y-47596D03*
G54D28*
G01X-504801Y72394D03*
G01X-504801Y32414D03*
G01X-504801Y-7591D03*
G01X-504801Y-47596D03*
G01X-504801Y-87601D03*
G01X-504801Y-127606D03*
G01X-504801Y-167611D03*
G01X-104802Y-167586D03*
G01X-104802Y-127606D03*
G01X-104802Y-87601D03*
G01X-104802Y-47596D03*
G01X-104802Y-7591D03*
G01X-104802Y32414D03*
G01X-104802Y72394D03*
G54D29*
G01X-424791Y-247596D03*
G01X-384786Y-247596D03*
G01X-344781Y-247596D03*
G01X-304801Y-247596D03*
G01X-264796Y-247596D03*
G01X-224791Y-247596D03*
G01X-184786Y-247596D03*
G01X-184786Y152404D03*
G01X-224791Y152404D03*
G01X-264796Y152404D03*
G01X-304801Y152404D03*
G01X-344781Y152404D03*
G01X-384786Y152404D03*
G01X-424791Y152404D03*
G54D30*
G01X-203698Y-568883D03*
G01X-285005Y-650190D03*
G01X-412255Y-522904D03*
G01X-330948Y-441597D03*
G54D31*
G01X-328279Y388665D03*
G01X-427259Y487646D03*
G54D23*
G01X131572Y-692772D03*
G01X76708Y-692772D03*
G54D32*
G01X-376363Y644717D03*
G01X-299277Y721803D03*
G54D16*
G01X75992Y-801345D03*
G01X124303Y-801345D03*
G54D33*
G01X76200Y-1283945D03*
G01X76200Y-1332255D03*
G54D34*
G01X-236993Y503693D03*
G01X-296407Y563107D03*
G54D35*
G01X432580Y12713D03*
G01X432580Y-82283D03*
G01X432580Y107683D03*
G01X212565Y-82309D03*
G01X212565Y107709D03*
G54D36*
G01X1078497Y1676400D03*
G54D37*
G01X953503Y1676400D03*
G04 Pad End*

G04 Via Start*
G54D38*
G01X431800Y190500D03*
G01X-152400Y-1485900D03*
G01X-50800Y-1485900D03*
G01X-262038Y1599417D03*
G01X-371517Y1671705D03*
G01X49803Y1599417D03*
G01X-49408Y1670687D03*
G01X-787400Y1292403D03*
G01X38100Y-1485900D03*
G01X27940Y33020D03*
G01X0Y114300D03*
G01X139700Y-1485900D03*
G01X-634000Y112092D03*
G01X-612140Y-88900D03*
G01X330200Y-342900D03*
G01X330200Y-474980D03*
G01X329545Y-795675D03*
G01X196885Y-349285D03*
G01X330200Y-598364D03*
G01X54252Y328846D03*
G01X152400Y546100D03*
G01X50355Y583755D03*
G01X213360Y312420D03*
G01X464820Y1043940D03*
G01X-159405Y424795D03*
G01X99060Y-86054D03*
G01X-304801Y-47596D03*
G01X-838200Y-1181100D03*
G01X-838200Y1193800D03*
G01X241300Y1828800D03*
G01X1866900Y1181100D03*
G01X-431800Y-1447800D03*
G01X317500Y-1511300D03*
G01X-63500Y-292100D03*
G01X-520700Y-241300D03*
G01X-218449Y-47596D03*
G01X-218449Y38764D03*
G01X-304800Y38764D03*
G01X-304809Y-133956D03*
G01X-218449Y-133956D03*
G01X-391169Y38764D03*
G01X-391169Y-133956D03*
G01X-391169Y-47596D03*
G01X76200Y-431800D03*
G01X444500Y-1016000D03*
G01X444500Y-1229528D03*
G01X-838200Y-956733D03*
G01X-838200Y-732367D03*
G01X-838200Y-508000D03*
G01X-838200Y-1446091D03*
G01X-838200Y-1849023D03*
G01X-431800Y-1849023D03*
G01X-596900Y-956733D03*
G01X-368300Y-956733D03*
G01X-596900Y-1083733D03*
G01X-368300Y-1079500D03*
G01X-482600Y-673100D03*
G01X317500Y-1854200D03*
G01X565150Y-1854200D03*
G01X812800Y-1854200D03*
G01X1060450Y-1854200D03*
G01X1308100Y-1854200D03*
G01X565247Y-1511300D03*
G01X812995Y-1511300D03*
G01X1060742Y-1511300D03*
G01X1308489Y-1511300D03*
G01X812800Y-1181100D03*
G01X1054100Y-1181100D03*
G01X1305108Y-1181100D03*
G01X1625161Y-1181100D03*
G01X1854200Y-1181100D03*
G01X-838200Y-316738D03*
G01X-838200Y-62738D03*
G01X-838200Y191262D03*
G01X-838200Y445262D03*
G01X-838200Y787400D03*
G01X-838200Y990600D03*
G01X-635000Y990600D03*
G01X-635000Y1194135D03*
G01X-456037Y790380D03*
G01X-152400Y889000D03*
G01X105235Y892073D03*
G01X101600Y1193800D03*
G01X-150899Y1195780D03*
G01X-254120Y-1308100D03*
G01X-571620Y-1308100D03*
G01X-152400Y-698500D03*
G01X-266700Y1828800D03*
G01X749300Y1828800D03*
G01X1070317Y1828800D03*
G01X1398091Y1828800D03*
G01X1565275Y1181100D03*
G01X1263650Y1181100D03*
G01X962025Y1181100D03*
G01X660400Y1181100D03*
G01X1866900Y1397000D03*
G01X962025Y1397000D03*
G01X533400Y1562100D03*
G01X-736600Y1397000D03*
G01X220980Y454660D03*
G04 Via End*

G04 Track Start*
G54D12*
G01X-595040Y-524504D02*
G01X-562604Y-524504D01*
G01X-384786Y-346686D01*
G01X-384786Y-247596D01*
G01X-674980Y-415506D02*
G01X-576580Y-415506D01*
G54D11*
G01X-725749Y-413048D02*
G01X-723290Y-415506D01*
G54D12*
G01X-344781Y-247596D02*
G01X-344781Y-427764D01*
G01X-330948Y-441597D01*
G01X-304801Y-247596D02*
G01X-304801Y-342900D01*
G01X-228600Y-419101D01*
G01X-228600Y-464820D01*
G01X-299720Y-535940D01*
G01X-299720Y-635475D01*
G01X-285005Y-650190D01*
G01X-424791Y152404D02*
G01X-528998Y152404D01*
G01X-618400Y241805D01*
G01X-384786Y152404D02*
G01X-384786Y223753D01*
G01X-510619Y349586D01*
G54D11*
G01X433045Y-165100D02*
G01X433045Y-82748D01*
G01X432580Y-82283D01*
G54D13*
G01X762000Y1373251D02*
G01X762000Y1432560D01*
G54D12*
G01X-264796Y-247596D02*
G01X-264796Y-319404D01*
G01X-63500Y-520700D01*
G01X-224791Y-247596D02*
G01X-224791Y-304800D01*
G01X0Y-529591D01*
G54D13*
G01X431800Y190500D02*
G01X431800Y108463D01*
G01X432580Y107683D01*
G54D12*
G01X-304801Y152404D02*
G01X-304801Y365188D01*
G01X-328279Y388665D01*
G01X-344781Y152404D02*
G01X-344781Y293981D01*
G01X-431800Y381000D01*
G01X-431800Y432305D01*
G01X-104802Y72394D02*
G01X-41906Y72394D01*
G01X0Y114300D01*
G54D11*
G01X-507817Y-321304D02*
G01X-472317Y-356805D01*
G01X-562681Y-323844D02*
G01X-566485Y-320040D01*
G01X-671068Y-320040D01*
G01X-725932Y-314960D02*
G01X-725749Y-315143D01*
G01X-725749Y-413048D01*
G54D12*
G01X-104802Y-167586D02*
G01X-76783Y-167586D01*
G01X317500Y-1308100D02*
G01X139700Y-1485900D01*
G54D11*
G01X330200Y-474980D02*
G01X464900Y-474980D01*
G01X469980Y-469900D01*
G01X330200Y-342900D02*
G01X469980Y-342900D01*
G54D12*
G01X-504801Y-87601D02*
G01X-610841Y-87601D01*
G01X-612140Y-88900D01*
G54D13*
G01X-1126739Y-415284D02*
G01X-736600Y-415284D01*
G54D12*
G01X-104802Y-127606D02*
G01X-24794Y-127606D01*
G01X196885Y-349285D01*
G54D11*
G01X-670560Y-157988D02*
G01X-749300Y-79248D01*
G54D12*
G01X-504801Y-167611D02*
G01X-660937Y-167611D01*
G01X-670560Y-157988D01*
G54D11*
G01X-670560Y-215392D02*
G01X-670560Y-314452D01*
G01X-671068Y-314960D01*
G54D12*
G01X-76783Y-167586D02*
G01X228600Y-472969D01*
G54D13*
G01X330200Y-598364D02*
G01X443116Y-598364D01*
G01X444580Y-596900D01*
G01X678002Y1289253D02*
G01X464642Y1289253D01*
G01X678002Y1289253D02*
G01X762000Y1373251D01*
G54D11*
G01X-262038Y1599417D02*
G01X49803Y1599417D01*
G01X-49408Y1670687D02*
G01X-50426Y1671705D01*
G01X-371517Y1671705D01*
G54D13*
G01X464642Y1289253D02*
G01X310947Y1289253D01*
G01X279400Y1320800D01*
G01X204163Y1320800D01*
G01X175765Y1292403D01*
G01X-787400Y1292403D01*
G54D11*
G01X-749300Y-79248D02*
G01X-749300Y272996D01*
G01X-487853Y534443D01*
G01X-427259Y487646D02*
G01X-474057Y534443D01*
G01X-487853Y534443D01*
G01X-377579Y644717D01*
G01X-376363Y644717D01*
G54D13*
G01X464642Y1139266D02*
G01X464642Y1043940D01*
G01X464642Y839267D01*
G01X464642Y223342D01*
G01X431800Y190500D01*
G54D11*
G01X75992Y-801345D02*
G01X76708Y-800628D01*
G01X76708Y-692772D01*
G01X124303Y-801345D02*
G01X203505Y-880547D01*
G01X203505Y-1054100D01*
G54D12*
G01X317500Y-1308100D02*
G01X317500Y-901700D01*
G01X228600Y-812800D01*
G01X228600Y-472969D01*
G54D11*
G01X329545Y-795675D02*
G01X384849Y-850980D01*
G01X469900Y-850980D01*
G54D12*
G01X152400Y546100D02*
G01X-184786Y208914D01*
G01X-184786Y152404D01*
G01X50355Y583755D02*
G01X50355Y520255D01*
G01X-224791Y245109D01*
G01X-224791Y152404D01*
G01X-264796Y152404D02*
G01X-264796Y319404D01*
G01X-159405Y424795D01*
G54D11*
G01X-159405Y424795D02*
G01X-159405Y426105D01*
G01X-236993Y503693D01*
G01X76200Y-801345D02*
G01X76200Y-1283945D01*
G01X76200Y-1332255D02*
G01X38100Y-1370355D01*
G01X38100Y-1485900D01*
G54D12*
G01X-504801Y-7591D02*
G01X-589309Y-7591D01*
G01X-634000Y37100D01*
G01X-634000Y112092D01*
G01X-184786Y-247596D02*
G01X-184786Y-280034D01*
G01X76708Y-541528D01*
G01X76708Y-692772D01*
G54D39*
G01X1078497Y1676400D02*
G01X1143000Y1611897D01*
G01X1143000Y1432560D01*
G01X953503Y1676400D02*
G01X762000Y1484897D01*
G01X762000Y1432560D01*
G54D13*
G01X212565Y107709D02*
G01X212565Y311625D01*
G01X213360Y312420D01*
G01X328828Y312420D01*
G01X330200Y313792D01*
G54D12*
G01X-104802Y-47596D02*
G01X-41304Y-47596D01*
G01X76200Y-165100D01*
G01X433045Y-165100D01*
G01X-104802Y32414D02*
G01X27334Y32414D01*
G01X27940Y33020D01*
G01X-104802Y-7591D02*
G01X-30509Y-7591D01*
G01X-12700Y-25400D01*
G01X63500Y-25400D01*
G01X88900Y0D01*
G01X88900Y294198D01*
G01X54252Y328846D01*
G01X0Y-529591D02*
G01X0Y-1308100D01*
G01X-50800Y-1358900D01*
G01X-50800Y-1485900D01*
G01X-63500Y-520700D02*
G01X-63500Y-1295400D01*
G01X-152400Y-1384300D01*
G01X-152400Y-1485900D01*
G04 Track End*

M02*

