G04 Layer: TopLayer*
G04 EasyEDA Pro v3.2.121, 2026-04-28 17:19:32*
G04 Gerber Generator version 0.3*
G04 Scale: 100 percent, Rotated: No, Reflected: No*
G04 Dimensions in millimeters*
G04 Leading zeros omitted, absolute positions, 4 integers and 5 decimals*
G04 Generated by one-click*
%FSLAX45Y45*%
%MOMM*%
%ADD10C,0.2032*%
%ADD11C,0.254*%
%ADD12C,0.508*%
%ADD13R,1.25001X0.7*%
%ADD14R,0.532X1.04501*%
%ADD15R,0.9064X1.3*%
%ADD16R,0.9X1.3*%
%ADD17R,0.8X1.3*%
%ADD18R,0.7X1.3*%
%ADD19R,2.2X1.0*%
%ADD20R,2.0X1.4*%
%ADD21R,1.2X2.49999*%
%ADD22R,0.5X1.7*%
%ADD23R,0.324X0.30312*%
%ADD24R,0.54X0.5*%
%ADD25R,0.324X0.36843*%
%ADD26R,0.6X0.5*%
%ADD27R,0.44X0.75001*%
%ADD28R,0.8X0.9*%
%ADD29R,0.30312X0.324*%
%ADD30C,1.0*%
%ADD31R,1.0X1.0*%
%ADD32C,0.61*%
G75*


G04 Copper Start*
G36*
G01X-189142Y-1882088D02*
G01X-869256Y-1882088D01*
G01X-869256Y-1637102D01*
G01X-752927Y-1637102D01*
G01X-752927Y-1727102D01*
G01X-751174Y-1738169D01*
G01X-746087Y-1748153D01*
G01X-738164Y-1756076D01*
G01X-728180Y-1761163D01*
G01X-717113Y-1762916D01*
G01X-637113Y-1762916D01*
G01X-637113Y-1762916D01*
G01X-626046Y-1761163D01*
G01X-616062Y-1756076D01*
G01X-608139Y-1748153D01*
G01X-603052Y-1738169D01*
G01X-601299Y-1727102D01*
G01X-601299Y-1637102D01*
G01X-603052Y-1626035D01*
G01X-608139Y-1616051D01*
G01X-616062Y-1608128D01*
G01X-626046Y-1603041D01*
G01X-637113Y-1601288D01*
G01X-717113Y-1601288D01*
G01X-728180Y-1603041D01*
G01X-738164Y-1608128D01*
G01X-746087Y-1616051D01*
G01X-751174Y-1626035D01*
G01X-752927Y-1637102D01*
G01X-869256Y-1637102D01*
G01X-869256Y-1487098D01*
G01X-752927Y-1487098D01*
G01X-751174Y-1498165D01*
G01X-746087Y-1508149D01*
G01X-738164Y-1516072D01*
G01X-728180Y-1521159D01*
G01X-717113Y-1522912D01*
G01X-637113Y-1522912D01*
G01X-637113Y-1522912D01*
G01X-626046Y-1521159D01*
G01X-616062Y-1516072D01*
G01X-608139Y-1508149D01*
G01X-603052Y-1498165D01*
G01X-601299Y-1487098D01*
G01X-601299Y-1397098D01*
G01X-603052Y-1386031D01*
G01X-608139Y-1376047D01*
G01X-616062Y-1368124D01*
G01X-626046Y-1363037D01*
G01X-637113Y-1361284D01*
G01X-717113Y-1361284D01*
G01X-728180Y-1363037D01*
G01X-738164Y-1368124D01*
G01X-746087Y-1376047D01*
G01X-751174Y-1386031D01*
G01X-752927Y-1397098D01*
G01X-752927Y-1487098D01*
G01X-869256Y-1487098D01*
G01X-869256Y-1407765D01*
G01X-703805Y-1242314D01*
G01X38100Y-1242314D01*
G01X50656Y-1240661D01*
G01X62357Y-1235814D01*
G01X72405Y-1228105D01*
G01X440705Y-859805D01*
G01X448414Y-849757D01*
G01X453261Y-838056D01*
G01X454914Y-825500D01*
G01X454914Y-774700D01*
G01X453261Y-762144D01*
G01X448414Y-750443D01*
G01X440705Y-740395D01*
G01X358599Y-658289D01*
G01X369517Y-651765D01*
G01X378990Y-643276D01*
G01X386667Y-633135D01*
G01X390508Y-627384D01*
G01X395529Y-620270D01*
G01X397456Y-617879D01*
G01X399872Y-615262D01*
G01X475085Y-540049D01*
G01X482698Y-530772D01*
G01X488354Y-520189D01*
G01X491838Y-508706D01*
G01X493014Y-496764D01*
G01X493014Y153183D01*
G01X493157Y156742D01*
G01X493484Y159795D01*
G01X494964Y168376D01*
G01X496315Y175159D01*
G01X498113Y190865D01*
G01X496142Y206551D01*
G01X490514Y221325D01*
G01X481550Y234347D01*
G01X469758Y244876D01*
G01X455808Y252316D01*
G01X455808Y501098D01*
G01X454055Y512165D01*
G01X448968Y522148D01*
G01X441045Y530072D01*
G01X431061Y535159D01*
G01X419994Y536912D01*
G01X299994Y536912D01*
G01X288927Y535159D01*
G01X278943Y530072D01*
G01X271020Y522148D01*
G01X265933Y512165D01*
G01X264180Y501098D01*
G01X264180Y355021D01*
G01X256714Y362600D01*
G01X248131Y368887D01*
G01X242380Y372728D01*
G01X235266Y377749D01*
G01X232875Y379676D01*
G01X230258Y382092D01*
G01X127853Y484496D01*
G01X141912Y480621D01*
G01X156477Y479911D01*
G01X170845Y482403D01*
G01X184322Y487975D01*
G01X196254Y496357D01*
G01X206066Y507145D01*
G01X213283Y519817D01*
G01X217556Y533760D01*
G01X218678Y548299D01*
G01X216594Y562732D01*
G01X211407Y576361D01*
G01X203366Y588527D01*
G01X201779Y590684D01*
G01X200914Y592255D01*
G01X200914Y593002D01*
G01X202228Y603471D01*
G01X209122Y599006D01*
G01X216853Y596230D01*
G01X225012Y595288D01*
G01X275012Y595288D01*
G01X286079Y597041D01*
G01X296063Y602128D01*
G01X303986Y610051D01*
G01X309073Y620035D01*
G01X310826Y631102D01*
G01X310826Y801102D01*
G01X309073Y812169D01*
G01X303986Y822153D01*
G01X296063Y830076D01*
G01X286079Y835163D01*
G01X275012Y836916D01*
G01X263011Y836916D01*
G01X279547Y844008D01*
G01X294104Y854582D01*
G01X305960Y868115D01*
G01X314529Y883936D01*
G01X319384Y901261D01*
G01X320287Y919231D01*
G01X317191Y936954D01*
G01X310250Y953554D01*
G01X299809Y968207D01*
G01X286384Y980186D01*
G01X348205Y980186D01*
G01X535686Y792705D01*
G01X535686Y-1300705D01*
G01X487905Y-1348486D01*
G01X127000Y-1348486D01*
G01X114444Y-1350139D01*
G01X102743Y-1354986D01*
G01X92695Y-1362695D01*
G01X36432Y-1418959D01*
G01X34709Y-1419458D01*
G01X32062Y-1419861D01*
G01X18145Y-1422660D01*
G01X5142Y-1428356D01*
G01X-6350Y-1436689D01*
G01X-17065Y-1428808D01*
G01X-29137Y-1423224D01*
G01X-42080Y-1420162D01*
G01X-55374Y-1419744D01*
G01X-68485Y-1421987D01*
G01X-80883Y-1426802D01*
G01X-92072Y-1433994D01*
G01X-101600Y-1443275D01*
G01X-112344Y-1433051D01*
G01X-125092Y-1425470D01*
G01X-139205Y-1420912D01*
G01X-153979Y-1419605D01*
G01X-168673Y-1421614D01*
G01X-182554Y-1426838D01*
G01X-194926Y-1435017D01*
G01X-205171Y-1445741D01*
G01X-212777Y-1458474D01*
G01X-217362Y-1472578D01*
G01X-218698Y-1487349D01*
G01X-216718Y-1502048D01*
G01X-211521Y-1515939D01*
G01X-203366Y-1528327D01*
G01X-201779Y-1530484D01*
G01X-201140Y-1531644D01*
G01X-203815Y-1554363D01*
G01X-204414Y-1560888D01*
G01X-204414Y-1591201D01*
G01X-203265Y-1600200D01*
G01X-204414Y-1609199D01*
G01X-204414Y-1639512D01*
G01X-203815Y-1646037D01*
G01X-201641Y-1661758D01*
G01X-200914Y-1677612D01*
G01X-200914Y-1761788D01*
G01X-202197Y-1773613D01*
G01X-205985Y-1784887D01*
G01X-208445Y-1792209D01*
G01X-209278Y-1799888D01*
G01X-209278Y-1849888D01*
G01X-207889Y-1859766D01*
G01X-203830Y-1868877D01*
G01X-197415Y-1876515D01*
G01X-189142Y-1882088D01*
G37*
G36*
G01X-869256Y1440812D02*
G01X-856504Y1442889D01*
G01X-843604Y1443584D01*
G01X-672737Y1443584D01*
G01X-672737Y1344765D01*
G01X-670984Y1333698D01*
G01X-665897Y1323714D01*
G01X-657974Y1315791D01*
G01X-647990Y1310704D01*
G01X-636923Y1308951D01*
G01X-416923Y1308951D01*
G01X-405856Y1310704D01*
G01X-395872Y1315791D01*
G01X-387949Y1323714D01*
G01X-382862Y1333698D01*
G01X-381109Y1344765D01*
G01X-381109Y1443584D01*
G01X-355820Y1443584D01*
G01X-355820Y1324761D01*
G01X-354067Y1313694D01*
G01X-348980Y1303710D01*
G01X-341057Y1295787D01*
G01X-331073Y1290700D01*
G01X-320006Y1288947D01*
G01X-230006Y1288947D01*
G01X-220119Y1290339D01*
G01X-211000Y1294406D01*
G01X-201881Y1290339D01*
G01X-191994Y1288947D01*
G01X-111994Y1288947D01*
G01X-105121Y1289613D01*
G01X-98503Y1291585D01*
G01X-91886Y1289613D01*
G01X-85013Y1288947D01*
G01X-15013Y1288947D01*
G01X-7327Y1289781D01*
G01X0Y1292246D01*
G01X7327Y1289781D01*
G01X15013Y1288947D01*
G01X85013Y1288947D01*
G01X91886Y1289613D01*
G01X98503Y1291585D01*
G01X105121Y1289613D01*
G01X111994Y1288947D01*
G01X191994Y1288947D01*
G01X201881Y1290339D01*
G01X211000Y1294406D01*
G01X216335Y1291659D01*
G01X200792Y1285147D01*
G01X186938Y1275553D01*
G01X175374Y1263294D01*
G01X166605Y1248904D01*
G01X161010Y1233008D01*
G01X158834Y1216297D01*
G01X160170Y1199498D01*
G01X164962Y1183342D01*
G01X172999Y1168531D01*
G01X183934Y1155708D01*
G01X15180Y1155708D01*
G01X-7406Y1156676D01*
G01X-29826Y1159573D01*
G01X-51917Y1164378D01*
G01X-61020Y1165554D01*
G01X-186021Y1165554D01*
G01X-197088Y1163801D01*
G01X-207072Y1158714D01*
G01X-214995Y1150791D01*
G01X-220082Y1140807D01*
G01X-221835Y1129740D01*
G01X-221835Y1059740D01*
G01X-219944Y1048258D01*
G01X-222919Y1048258D01*
G01X-228446Y1049631D01*
G01X-233958Y1058203D01*
G01X-241661Y1064875D01*
G01X-250932Y1069108D01*
G01X-261019Y1070558D01*
G01X-386020Y1070558D01*
G01X-396108Y1069108D01*
G01X-405379Y1064875D01*
G01X-413082Y1058203D01*
G01X-418594Y1049631D01*
G01X-424120Y1048258D01*
G01X-442900Y1048258D01*
G01X-446591Y1048479D01*
G01X-445186Y1058412D01*
G01X-445186Y1108412D01*
G01X-446939Y1119479D01*
G01X-452026Y1129462D01*
G01X-459949Y1137386D01*
G01X-469933Y1142473D01*
G01X-481000Y1144226D01*
G01X-535000Y1144226D01*
G01X-546067Y1142473D01*
G01X-556051Y1137386D01*
G01X-563974Y1129462D01*
G01X-569061Y1119479D01*
G01X-570814Y1108412D01*
G01X-570814Y1058412D01*
G01X-569723Y1049639D01*
G01X-566516Y1041400D01*
G01X-569723Y1033161D01*
G01X-570814Y1024388D01*
G01X-570814Y974388D01*
G01X-569061Y963321D01*
G01X-563974Y953338D01*
G01X-556051Y945414D01*
G01X-546067Y940327D01*
G01X-535000Y938574D01*
G01X-481000Y938574D01*
G01X-469710Y940400D01*
G01X-459572Y945692D01*
G01X-451684Y949809D01*
G01X-442900Y951230D01*
G01X-424120Y951230D01*
G01X-418594Y949857D01*
G01X-413082Y941285D01*
G01X-405379Y934613D01*
G01X-396108Y930380D01*
G01X-386020Y928930D01*
G01X-381447Y928930D01*
G01X-366186Y927746D01*
G01X-351292Y924220D01*
G01X-337120Y918439D01*
G01X-324009Y910540D01*
G01X-311201Y897731D01*
G01X-311201Y536912D01*
G01X-419994Y536912D01*
G01X-431061Y535159D01*
G01X-441045Y530072D01*
G01X-448968Y522148D01*
G01X-454055Y512165D01*
G01X-455808Y501098D01*
G01X-455808Y251098D01*
G01X-455279Y244965D01*
G01X-453708Y239014D01*
G01X-502435Y239014D01*
G01X-493815Y244515D01*
G01X-487102Y252229D01*
G01X-482843Y261525D01*
G01X-481386Y271647D01*
G01X-481386Y308489D01*
G01X-482538Y317500D01*
G01X-481386Y326511D01*
G01X-481386Y363353D01*
G01X-483139Y374420D01*
G01X-488226Y384404D01*
G01X-496149Y392327D01*
G01X-506133Y397414D01*
G01X-517200Y399167D01*
G01X-549600Y399167D01*
G01X-560427Y397492D01*
G01X-570241Y392621D01*
G01X-578123Y385011D01*
G01X-583336Y375375D01*
G01X-585392Y364614D01*
G01X-590171Y375320D01*
G01X-598151Y383910D01*
G01X-608478Y389462D01*
G01X-620044Y391381D01*
G01X-652445Y391381D01*
G01X-663512Y389628D01*
G01X-673496Y384541D01*
G01X-681419Y376618D01*
G01X-686506Y366634D01*
G01X-688259Y355567D01*
G01X-688259Y325255D01*
G01X-687110Y316255D01*
G01X-688259Y307256D01*
G01X-688259Y276944D01*
G01X-686531Y265955D01*
G01X-683518Y253647D01*
G01X-682297Y241035D01*
G01X-684429Y211299D01*
G01X-684726Y206700D01*
G01X-684726Y174300D01*
G01X-684485Y170156D01*
G01X-683246Y156918D01*
G01X-683379Y156676D01*
G01X-684966Y154519D01*
G01X-693469Y141436D01*
G01X-698679Y126728D01*
G01X-700308Y111210D01*
G01X-698266Y95741D01*
G01X-692667Y81177D01*
G01X-683819Y68324D01*
G01X-672213Y57895D01*
G01X-658491Y50466D01*
G01X-643414Y46450D01*
G01X-627815Y46067D01*
G01X-612559Y49340D01*
G01X-598489Y56087D01*
G01X-586386Y65935D01*
G01X-576919Y78338D01*
G01X-570612Y92610D01*
G01X-567815Y107961D01*
G01X-568682Y123540D01*
G01X-573165Y138486D01*
G01X-570288Y138486D01*
G01X-563763Y139085D01*
G01X-548042Y141259D01*
G01X-532188Y141986D01*
G01X-60258Y141986D01*
G01X-65168Y126578D01*
G01X-66202Y110440D01*
G01X-63299Y94531D01*
G01X-56632Y79799D01*
G01X-46598Y67117D01*
G01X-33792Y57242D01*
G01X-37589Y43192D01*
G01X-38230Y28652D01*
G01X-35684Y14323D01*
G01X-30073Y894D01*
G01X-21668Y-10987D01*
G01X-10873Y-20749D01*
G01X1791Y-27921D01*
G01X15714Y-32157D01*
G01X30227Y-33255D01*
G01X44629Y-31160D01*
G01X58227Y-25974D01*
G01X70367Y-17946D01*
G01X72524Y-16359D01*
G01X74095Y-15494D01*
G01X213585Y-15494D01*
G01X218186Y-20095D01*
G01X218186Y-286485D01*
G01X204231Y-283379D01*
G01X189935Y-283336D01*
G01X175962Y-286358D01*
G01X162961Y-292305D01*
G01X151537Y-300900D01*
G01X142221Y-311743D01*
G01X135445Y-324332D01*
G01X131525Y-338080D01*
G01X130642Y-352349D01*
G01X132838Y-366475D01*
G01X138010Y-379803D01*
G01X145919Y-391712D01*
G01X147506Y-393869D01*
G01X148371Y-395440D01*
G01X148371Y-565185D01*
G01X150024Y-577741D01*
G01X154871Y-589442D01*
G01X162580Y-599490D01*
G01X299599Y-736508D01*
G01X287118Y-744709D01*
G01X284961Y-746296D01*
G01X283390Y-747161D01*
G01X-505030Y-747161D01*
G01X-563626Y-688565D01*
G01X-563626Y-135055D01*
G01X-562761Y-133484D01*
G01X-561174Y-131327D01*
G01X-552948Y-118798D01*
G01X-547746Y-104741D01*
G01X-545833Y-89876D01*
G01X-547308Y-74960D01*
G01X-552094Y-60757D01*
G01X-559948Y-47991D01*
G01X-570468Y-37315D01*
G01X-583116Y-29275D01*
G01X-597248Y-24280D01*
G01X-612140Y-22586D01*
G01X-627032Y-24280D01*
G01X-641164Y-29275D01*
G01X-653812Y-37315D01*
G01X-664332Y-47991D01*
G01X-672186Y-60757D01*
G01X-676972Y-74960D01*
G01X-678447Y-89876D01*
G01X-676534Y-104741D01*
G01X-671332Y-118798D01*
G01X-663106Y-131327D01*
G01X-661519Y-133484D01*
G01X-660654Y-135055D01*
G01X-660654Y-708660D01*
G01X-659001Y-721216D01*
G01X-654154Y-732917D01*
G01X-646445Y-742965D01*
G01X-559430Y-829980D01*
G01X-549382Y-837689D01*
G01X-537681Y-842536D01*
G01X-525125Y-844189D01*
G01X283390Y-844189D01*
G01X284961Y-845055D01*
G01X287118Y-846641D01*
G01X295975Y-852864D01*
G01X305727Y-857564D01*
G01X18005Y-1145286D01*
G01X-723900Y-1145286D01*
G01X-736456Y-1146939D01*
G01X-748157Y-1151786D01*
G01X-758205Y-1159495D01*
G01X-869256Y-1270547D01*
G01X-869256Y663059D01*
G01X-830134Y663059D01*
G01X-828154Y637903D01*
G01X-822263Y613365D01*
G01X-812607Y590051D01*
G01X-799422Y568535D01*
G01X-783033Y549347D01*
G01X-763844Y532958D01*
G01X-742328Y519773D01*
G01X-719015Y510116D01*
G01X-694477Y504226D01*
G01X-669320Y502246D01*
G01X-644164Y504226D01*
G01X-619626Y510116D01*
G01X-596313Y519773D01*
G01X-574797Y532958D01*
G01X-555608Y549347D01*
G01X-539219Y568535D01*
G01X-526034Y590051D01*
G01X-516378Y613365D01*
G01X-510487Y637903D01*
G01X-508507Y663059D01*
G01X-510487Y688216D01*
G01X-516378Y712754D01*
G01X-526034Y736067D01*
G01X-539219Y757583D01*
G01X-555608Y776772D01*
G01X-574797Y793160D01*
G01X-596313Y806345D01*
G01X-619626Y816002D01*
G01X-644164Y821893D01*
G01X-669320Y823873D01*
G01X-694477Y821893D01*
G01X-719015Y816002D01*
G01X-742328Y806345D01*
G01X-763844Y793160D01*
G01X-783033Y776772D01*
G01X-799422Y757583D01*
G01X-812607Y736067D01*
G01X-822263Y712754D01*
G01X-828154Y688216D01*
G01X-830134Y663059D01*
G01X-830134Y663059D01*
G01X-869256Y663059D01*
G01X-869256Y1224736D01*
G01X-421834Y1224736D01*
G01X-421834Y1154736D01*
G01X-420081Y1143669D01*
G01X-414994Y1133685D01*
G01X-407071Y1125762D01*
G01X-397087Y1120675D01*
G01X-386020Y1118922D01*
G01X-261019Y1118922D01*
G01X-249952Y1120675D01*
G01X-239968Y1125762D01*
G01X-232045Y1133685D01*
G01X-226958Y1143669D01*
G01X-225205Y1154736D01*
G01X-225205Y1224736D01*
G01X-225205Y1224736D01*
G01X-226958Y1235803D01*
G01X-232045Y1245787D01*
G01X-239968Y1253710D01*
G01X-249952Y1258797D01*
G01X-261019Y1260550D01*
G01X-386020Y1260550D01*
G01X-397087Y1258797D01*
G01X-407071Y1253710D01*
G01X-414994Y1245787D01*
G01X-420081Y1235803D01*
G01X-421834Y1224736D01*
G01X-869256Y1224736D01*
G01X-869256Y1225547D01*
G01X-856736Y1229762D01*
G01X-843604Y1231189D01*
G01X-824717Y1231189D01*
G01X-821158Y1231046D01*
G01X-818105Y1230719D01*
G01X-809524Y1229238D01*
G01X-802741Y1227888D01*
G01X-787926Y1226091D01*
G01X-773083Y1227653D01*
G01X-758966Y1232494D01*
G01X-746289Y1240370D01*
G01X-735694Y1250881D01*
G01X-727718Y1263495D01*
G01X-722765Y1277573D01*
G01X-721086Y1292403D01*
G01X-722765Y1307232D01*
G01X-727718Y1321311D01*
G01X-735694Y1333925D01*
G01X-746289Y1344436D01*
G01X-758966Y1352312D01*
G01X-773083Y1357153D01*
G01X-787926Y1358715D01*
G01X-802741Y1356918D01*
G01X-809524Y1355567D01*
G01X-818105Y1354087D01*
G01X-821158Y1353759D01*
G01X-824717Y1353617D01*
G01X-843604Y1353617D01*
G01X-856480Y1354184D01*
G01X-869256Y1355880D01*
G01X-869256Y1440812D01*
G37*
G36*
G01X-869256Y1806856D02*
G01X-869256Y1906276D01*
G01X443803Y1906276D01*
G01X1439015Y1906276D01*
G01X1449181Y1891011D01*
G01X1456588Y1874233D01*
G01X1461019Y1856436D01*
G01X1462344Y1838144D01*
G01X1460524Y1819894D01*
G01X1455611Y1802224D01*
G01X1447751Y1785653D01*
G01X1437175Y1770669D01*
G01X1414870Y1749934D01*
G01X1395407Y1726511D01*
G01X1379106Y1700786D01*
G01X1366239Y1673183D01*
G01X1357015Y1644159D01*
G01X1351589Y1614192D01*
G01X1350048Y1583777D01*
G01X1352419Y1553415D01*
G01X1358663Y1523607D01*
G01X1368676Y1494846D01*
G01X1382294Y1467605D01*
G01X1399291Y1442335D01*
G01X1419387Y1419452D01*
G01X1442250Y1399335D01*
G01X1467504Y1382314D01*
G01X1494732Y1368670D01*
G01X1523484Y1358630D01*
G01X1553285Y1352358D01*
G01X1583645Y1349958D01*
G01X1614062Y1351470D01*
G01X1644034Y1356868D01*
G01X1673067Y1366064D01*
G01X1700682Y1378905D01*
G01X1726422Y1395181D01*
G01X1749864Y1414622D01*
G01X1770621Y1436908D01*
G01X1787745Y1448672D01*
G01X1806822Y1456902D01*
G01X1827130Y1461288D01*
G01X1847903Y1461664D01*
G01X1868357Y1458015D01*
G01X1887719Y1450480D01*
G01X1905258Y1439343D01*
G01X1905258Y1132854D01*
G01X635876Y1132854D01*
G01X624809Y1131101D01*
G01X614825Y1126014D01*
G01X606902Y1118090D01*
G01X601815Y1108106D01*
G01X600062Y1097039D01*
G01X600065Y865544D01*
G01X484877Y980732D01*
G01X498659Y986909D01*
G01X510685Y996045D01*
G01X520332Y1007664D01*
G01X527101Y1021165D01*
G01X530638Y1035848D01*
G01X530763Y1050950D01*
G01X527466Y1065688D01*
G01X520921Y1079299D01*
G01X511466Y1091075D01*
G01X499591Y1100407D01*
G01X493840Y1104248D01*
G01X486726Y1109269D01*
G01X484335Y1111196D01*
G01X481718Y1113612D01*
G01X457551Y1137779D01*
G01X448275Y1145392D01*
G01X437691Y1151048D01*
G01X426208Y1154532D01*
G01X414266Y1155708D01*
G01X295313Y1155708D01*
G01X306796Y1169340D01*
G01X315012Y1185158D01*
G01X319561Y1202391D01*
G01X320221Y1220203D01*
G01X316961Y1237726D01*
G01X309938Y1254109D01*
G01X299496Y1268553D01*
G01X286141Y1280358D01*
G01X270523Y1288947D01*
G01X320006Y1288947D01*
G01X331073Y1290700D01*
G01X341057Y1295787D01*
G01X348980Y1303710D01*
G01X354067Y1313694D01*
G01X355820Y1324761D01*
G01X355820Y1444765D01*
G01X381109Y1444765D01*
G01X381109Y1344765D01*
G01X382862Y1333698D01*
G01X387949Y1323714D01*
G01X395872Y1315791D01*
G01X405856Y1310704D01*
G01X416923Y1308951D01*
G01X636923Y1308951D01*
G01X647990Y1310704D01*
G01X657974Y1315791D01*
G01X665897Y1323714D01*
G01X670984Y1333698D01*
G01X672737Y1344765D01*
G01X672737Y1444765D01*
G01X672737Y1444765D01*
G01X670984Y1455832D01*
G01X665897Y1465816D01*
G01X657974Y1473739D01*
G01X647990Y1478826D01*
G01X636923Y1480579D01*
G01X416923Y1480579D01*
G01X405856Y1478826D01*
G01X395872Y1473739D01*
G01X387949Y1465816D01*
G01X382862Y1455832D01*
G01X381109Y1444765D01*
G01X355820Y1444765D01*
G01X355820Y1454761D01*
G01X354067Y1465828D01*
G01X348980Y1475812D01*
G01X341057Y1483735D01*
G01X331073Y1488822D01*
G01X320006Y1490575D01*
G01X230006Y1490575D01*
G01X218673Y1488735D01*
G01X214772Y1509688D01*
G01X213465Y1530961D01*
G01X213465Y1616449D01*
G01X214095Y1624752D01*
G01X212416Y1653186D01*
G01X206967Y1681144D01*
G01X205745Y1684759D01*
G01X396189Y1684759D01*
G01X397942Y1673692D01*
G01X403029Y1663708D01*
G01X410952Y1655785D01*
G01X420936Y1650698D01*
G01X432003Y1648945D01*
G01X632003Y1648945D01*
G01X643070Y1650698D01*
G01X653054Y1655785D01*
G01X660977Y1663708D01*
G01X666064Y1673692D01*
G01X667817Y1684759D01*
G01X667817Y1726400D01*
G01X867689Y1726400D01*
G01X867689Y1626400D01*
G01X869442Y1615333D01*
G01X874529Y1605349D01*
G01X882452Y1597426D01*
G01X892436Y1592339D01*
G01X903503Y1590586D01*
G01X1003503Y1590586D01*
G01X1014201Y1592221D01*
G01X1023921Y1596976D01*
G01X1031778Y1604418D01*
G01X1048182Y1596119D01*
G01X1065978Y1591504D01*
G01X1084349Y1590786D01*
G01X1102451Y1593997D01*
G01X1119453Y1600991D01*
G01X1134576Y1611445D01*
G01X1147125Y1624881D01*
G01X1156524Y1640681D01*
G01X1162341Y1658121D01*
G01X1164311Y1676400D01*
G01X1162341Y1694679D01*
G01X1156524Y1712119D01*
G01X1147125Y1727919D01*
G01X1134576Y1741355D01*
G01X1119453Y1751809D01*
G01X1102451Y1758803D01*
G01X1084349Y1762014D01*
G01X1065978Y1761296D01*
G01X1048182Y1756681D01*
G01X1031778Y1748382D01*
G01X1023921Y1755824D01*
G01X1014201Y1760579D01*
G01X1003503Y1762214D01*
G01X1003503Y1762214D01*
G01X903503Y1762214D01*
G01X892436Y1760461D01*
G01X882452Y1755374D01*
G01X874529Y1747451D01*
G01X869442Y1737467D01*
G01X867689Y1726400D01*
G01X667817Y1726400D01*
G01X667817Y1824759D01*
G01X666064Y1835826D01*
G01X660977Y1845810D01*
G01X653054Y1853733D01*
G01X643070Y1858820D01*
G01X632003Y1860573D01*
G01X432003Y1860573D01*
G01X432003Y1860573D01*
G01X420936Y1858820D01*
G01X410952Y1853733D01*
G01X403029Y1845810D01*
G01X397942Y1835826D01*
G01X396189Y1824759D01*
G01X396189Y1684759D01*
G01X205745Y1684759D01*
G01X197846Y1708128D01*
G01X185215Y1733658D01*
G01X169298Y1757280D01*
G01X150379Y1778574D01*
G01X128795Y1797160D01*
G01X104929Y1812709D01*
G01X79206Y1824943D01*
G01X52083Y1833645D01*
G01X24044Y1838659D01*
G01X-4413Y1839898D01*
G01X-32782Y1837338D01*
G01X-60557Y1831025D01*
G01X-87246Y1821072D01*
G01X-112372Y1807656D01*
G01X-135490Y1791015D01*
G01X-156187Y1771446D01*
G01X-174096Y1749296D01*
G01X-188897Y1724959D01*
G01X-200328Y1698870D01*
G01X-208185Y1671491D01*
G01X-212329Y1643310D01*
G01X-223118Y1653109D01*
G01X-235788Y1660315D01*
G01X-249726Y1664579D01*
G01X-264259Y1665694D01*
G01X-278684Y1663608D01*
G01X-292306Y1658421D01*
G01X-304465Y1650383D01*
G01X-306622Y1648797D01*
G01X-308193Y1647931D01*
G01X-309610Y1647931D01*
G01X-305804Y1662793D01*
G01X-305515Y1678132D01*
G01X-308758Y1693127D01*
G01X-315360Y1706976D01*
G01X-324968Y1718936D01*
G01X-337068Y1728369D01*
G01X-351011Y1734768D01*
G01X-366051Y1737793D01*
G01X-381384Y1737280D01*
G01X-396189Y1733258D01*
G01X-396189Y1824759D01*
G01X-397942Y1835826D01*
G01X-403029Y1845810D01*
G01X-410952Y1853733D01*
G01X-420936Y1858820D01*
G01X-432003Y1860573D01*
G01X-632003Y1860573D01*
G01X-643070Y1858820D01*
G01X-653054Y1853733D01*
G01X-660977Y1845810D01*
G01X-666064Y1835826D01*
G01X-667817Y1824759D01*
G01X-667817Y1684759D01*
G01X-666624Y1675592D01*
G01X-677998Y1686966D01*
G01X-677557Y1692568D01*
G01X-677557Y1722880D01*
G01X-678706Y1731879D01*
G01X-677557Y1740879D01*
G01X-677557Y1771191D01*
G01X-679310Y1782258D01*
G01X-684397Y1792242D01*
G01X-692320Y1800165D01*
G01X-702304Y1805252D01*
G01X-713371Y1807005D01*
G01X-745771Y1807005D01*
G01X-756838Y1805252D01*
G01X-766822Y1800165D01*
G01X-774745Y1792242D01*
G01X-779832Y1782258D01*
G01X-781585Y1771191D01*
G01X-781585Y1740879D01*
G01X-780436Y1731879D01*
G01X-781585Y1722880D01*
G01X-781585Y1711039D01*
G01X-786569Y1716023D01*
G01X-793302Y1723911D01*
G01X-798712Y1732759D01*
G01X-797779Y1740879D01*
G01X-797779Y1771191D01*
G01X-799532Y1782258D01*
G01X-804619Y1792242D01*
G01X-812542Y1800165D01*
G01X-822526Y1805252D01*
G01X-833593Y1807005D01*
G01X-865993Y1807005D01*
G01X-869256Y1806856D01*
G37*
G36*
G01X-229077Y407897D02*
G01X-226661Y405279D01*
G01X-224734Y402889D01*
G01X-219713Y395775D01*
G01X-215872Y390024D01*
G01X-206199Y377807D01*
G01X-193942Y368185D01*
G01X-179779Y361688D01*
G01X-164490Y358676D01*
G01X-148920Y359315D01*
G01X-133930Y363569D01*
G01X-120346Y371205D01*
G01X-108919Y381799D01*
G01X-100279Y394767D01*
G01X-94904Y409394D01*
G01X-12689Y327178D01*
G01X-12190Y325455D01*
G01X-11786Y322808D01*
G01X-8411Y307146D01*
G01X-1377Y292750D01*
G01X8904Y280461D01*
G01X21832Y270997D01*
G01X36653Y264910D01*
G01X52501Y262555D01*
G01X68452Y264070D01*
G01X83573Y269366D01*
G01X96983Y278135D01*
G01X107898Y289863D01*
G01X115682Y303868D01*
G01X119880Y319330D01*
G01X143688Y295522D01*
G01X146104Y292905D01*
G01X148031Y290514D01*
G01X153052Y283400D01*
G01X156893Y277649D01*
G01X166612Y265386D01*
G01X178933Y255742D01*
G01X193171Y249254D01*
G01X208533Y246282D01*
G01X224164Y246992D01*
G01X239193Y251345D01*
G01X252784Y259097D01*
G01X264180Y269819D01*
G01X264180Y251098D01*
G01X264709Y244965D01*
G01X266281Y239014D01*
G01X-266281Y239014D01*
G01X-264709Y244965D01*
G01X-264180Y251098D01*
G01X-264180Y443000D01*
G01X-229077Y407897D01*
G37*
G36*
G01X148844Y951230D02*
G01X160059Y952544D01*
G01X170666Y956415D01*
G01X163506Y941423D01*
G01X159562Y925285D01*
G01X159002Y908680D01*
G01X161849Y892312D01*
G01X167983Y876873D01*
G01X177145Y863014D01*
G01X188947Y851321D01*
G01X202891Y842288D01*
G01X218387Y836298D01*
G01X208494Y832879D01*
G01X200012Y826747D01*
G01X192656Y832269D01*
G01X184135Y835735D01*
G01X175012Y836916D01*
G01X125012Y836916D01*
G01X115890Y835735D01*
G01X107369Y832269D01*
G01X100013Y826747D01*
G01X92656Y832269D01*
G01X84135Y835735D01*
G01X75013Y836916D01*
G01X25013Y836916D01*
G01X15890Y835735D01*
G01X7369Y832269D01*
G01X13Y826747D01*
G01X-7344Y832269D01*
G01X-15865Y835735D01*
G01X-24987Y836916D01*
G01X-74987Y836916D01*
G01X-84110Y835735D01*
G01X-92630Y832269D01*
G01X-99987Y826747D01*
G01X-107344Y832269D01*
G01X-115865Y835735D01*
G01X-124987Y836916D01*
G01X-174987Y836916D01*
G01X-182017Y836219D01*
G01X-188773Y834156D01*
G01X-188773Y923087D01*
G01X-190524Y937569D01*
G01X-195643Y951230D01*
G01X148844Y951230D01*
G37*
G36*
G01X1455865Y-1882088D02*
G01X194212Y-1882088D01*
G01X202485Y-1876515D01*
G01X208900Y-1868877D01*
G01X212959Y-1859766D01*
G01X214348Y-1849888D01*
G01X214348Y-1799888D01*
G01X212533Y-1788632D01*
G01X207273Y-1778517D01*
G01X199100Y-1770568D01*
G01X188843Y-1765590D01*
G01X188214Y-1761788D01*
G01X188214Y-1677612D01*
G01X188941Y-1661758D01*
G01X191115Y-1646037D01*
G01X191714Y-1639512D01*
G01X191714Y-1609199D01*
G01X190565Y-1600200D01*
G01X191714Y-1591201D01*
G01X191714Y-1560888D01*
G01X191115Y-1554363D01*
G01X188440Y-1531644D01*
G01X189079Y-1530484D01*
G01X190666Y-1528327D01*
G01X198842Y-1515896D01*
G01X204041Y-1501955D01*
G01X206001Y-1487207D01*
G01X204624Y-1472392D01*
G01X199978Y-1458257D01*
G01X192298Y-1445514D01*
G01X508000Y-1445514D01*
G01X520556Y-1443861D01*
G01X532257Y-1439014D01*
G01X542305Y-1431305D01*
G01X618505Y-1355105D01*
G01X626214Y-1345057D01*
G01X631061Y-1333356D01*
G01X632714Y-1320800D01*
G01X632714Y-1138559D01*
G01X635905Y-1138702D01*
G01X1905257Y-1138702D01*
G01X1905257Y-1445156D01*
G01X1888508Y-1455889D01*
G01X1870060Y-1463334D01*
G01X1850552Y-1467233D01*
G01X1830660Y-1467451D01*
G01X1811072Y-1463980D01*
G01X1792466Y-1456940D01*
G01X1775485Y-1446576D01*
G01X1760719Y-1433246D01*
G01X1738734Y-1412227D01*
G01X1714227Y-1394213D01*
G01X1687605Y-1379503D01*
G01X1659311Y-1368342D01*
G01X1629815Y-1360915D01*
G01X1599610Y-1357347D01*
G01X1569196Y-1357697D01*
G01X1539080Y-1361958D01*
G01X1509763Y-1370060D01*
G01X1481733Y-1381868D01*
G01X1455456Y-1397186D01*
G01X1431369Y-1415759D01*
G01X1409873Y-1437277D01*
G01X1391326Y-1461384D01*
G01X1376035Y-1487677D01*
G01X1364256Y-1515719D01*
G01X1356185Y-1545045D01*
G01X1351955Y-1575165D01*
G01X1351638Y-1605579D01*
G01X1355238Y-1635781D01*
G01X1362695Y-1665269D01*
G01X1373886Y-1693551D01*
G01X1388624Y-1720158D01*
G01X1406663Y-1744646D01*
G01X1427705Y-1766609D01*
G01X1439889Y-1779836D01*
G01X1449683Y-1794919D01*
G01X1456812Y-1811429D01*
G01X1461072Y-1828901D01*
G01X1462344Y-1846839D01*
G01X1460592Y-1864737D01*
G01X1455865Y-1882088D01*
G37*
G54D10*
G01X-189142Y-1882088D02*
G01X-869256Y-1882088D01*
G01X-869256Y-1407765D01*
G01X-703805Y-1242314D01*
G01X38100Y-1242314D01*
G03X72405Y-1228105I0J48514D01*
G01X440705Y-859805D01*
G03X454914Y-825500I-34305J34305D01*
G01X454914Y-774700D01*
G03X440705Y-740395I-48514J0D01*
G01X358599Y-658289D01*
G03X386667Y-633135I-28399J59926D01*
G01X390508Y-627384D01*
G01X395529Y-620270D01*
G01X397456Y-617879D01*
G01X399872Y-615262D01*
G01X475085Y-540049D01*
G03X493014Y-496764I-43285J43285D01*
G01X493014Y153183D01*
G01X493157Y156742D01*
G01X493484Y159795D01*
G01X494964Y168376D01*
G01X496315Y175159D01*
G03X490514Y221325I-64515J15341D01*
G03X455808Y252316I-58714J-30825D01*
G01X455808Y501098D01*
G03X419994Y536912I-35814J0D01*
G01X299994Y536912D01*
G03X264180Y501098I0J-35814D01*
G01X264180Y355021D01*
G03X248131Y368887I-50820J-42601D01*
G01X242380Y372728D01*
G01X235266Y377749D01*
G01X232875Y379676D01*
G01X230258Y382092D01*
G01X127853Y484496D01*
G03X206066Y507145I24547J61604D01*
G03X203366Y588527I-53666J38955D01*
G01X201779Y590684D01*
G01X200914Y592255D01*
G01X200914Y593002D01*
G02X202228Y603471I42364J0D01*
G03X225012Y595288I22785J27632D01*
G01X275012Y595288D01*
G03X310826Y631102I0J35814D01*
G01X310826Y801102D01*
G03X275012Y836916I-35814J0D01*
G01X263011Y836916D01*
G03X286384Y980186I-23388J77357D01*
G01X348205Y980186D01*
G01X535686Y792705D01*
G01X535686Y-1300705D01*
G01X487905Y-1348486D01*
G01X127000Y-1348486D01*
G03X92695Y-1362695I0J-48514D01*
G01X36432Y-1418959D01*
G01X34709Y-1419458D01*
G01X32062Y-1419861D01*
G03X-6350Y-1436689I6038J-66039D01*
G03X-55374Y-1419744I-44450J-49211D01*
G03X-101600Y-1443275I4574J-66156D01*
G03X-194926Y-1435017I-50800J-42625D01*
G03X-203366Y-1528327I42526J-50883D01*
G01X-201779Y-1530484D01*
G01X-201140Y-1531644D01*
G02X-203815Y-1554363I-173075J8856D01*
G03X-204414Y-1560888I35215J-6525D01*
G01X-204414Y-1591201D01*
G03X-203265Y-1600200I35814J0D01*
G03X-204414Y-1609199I34665J-8999D01*
G01X-204414Y-1639512D01*
G03X-203815Y-1646037I35814J0D01*
G02X-200914Y-1677612I-170401J-31575D01*
G01X-200914Y-1761788D01*
G02X-205985Y-1784887I-55143J0D01*
G03X-209278Y-1799888I32521J-15002D01*
G01X-209278Y-1849888D01*
G03X-189142Y-1882088I35814J0D01*
G01X-637113Y-1762916D02*
G03X-601299Y-1727102I0J35814D01*
G01X-601299Y-1637102D01*
G03X-637113Y-1601288I-35814J0D01*
G01X-717113Y-1601288D01*
G03X-752927Y-1637102I0J-35814D01*
G01X-752927Y-1727102D01*
G03X-717113Y-1762916I35814J0D01*
G01X-637113Y-1762916D01*
G01X-637113Y-1522912D02*
G03X-601299Y-1487098I0J35814D01*
G01X-601299Y-1397098D01*
G03X-637113Y-1361284I-35814J0D01*
G01X-717113Y-1361284D01*
G03X-752927Y-1397098I0J-35814D01*
G01X-752927Y-1487098D01*
G03X-717113Y-1522912I35814J0D01*
G01X-637113Y-1522912D01*
G01X-869256Y1440812D02*
G02X-843604Y1443584I25652J-117318D01*
G01X-672737Y1443584D01*
G01X-672737Y1344765D01*
G03X-636923Y1308951I35814J0D01*
G01X-416923Y1308951D01*
G03X-381109Y1344765I0J35814D01*
G01X-381109Y1443584D01*
G01X-355820Y1443584D01*
G01X-355820Y1324761D01*
G03X-320006Y1288947I35814J0D01*
G01X-230006Y1288947D01*
G03X-211000Y1294406I0J35814D01*
G03X-191994Y1288947I19006J30355D01*
G01X-111994Y1288947D01*
G03X-98503Y1291585I0J35814D01*
G03X-85013Y1288947I13491J33176D01*
G01X-15013Y1288947D01*
G03X0Y1292246I0J35814D01*
G03X15013Y1288947I15013J32516D01*
G01X85013Y1288947D01*
G03X98503Y1291585I0J35814D01*
G03X111994Y1288947I13491J33176D01*
G01X191994Y1288947D01*
G03X211000Y1294406I0J35814D01*
G03X216335Y1291659I19006J30355D01*
G03X183934Y1155708I23289J-77387D01*
G01X15180Y1155708D01*
G02X-51917Y1164378I0J263978D01*
G03X-61020Y1165554I-9103J-34638D01*
G01X-186021Y1165554D01*
G03X-221835Y1129740I0J-35814D01*
G01X-221835Y1059740D01*
G03X-219944Y1048258I35814J0D01*
G01X-222919Y1048258D01*
G02X-228446Y1049631I0J11811D01*
G03X-261019Y1070558I-32573J-14887D01*
G01X-386020Y1070558D01*
G03X-418594Y1049631I0J-35814D01*
G02X-424120Y1048258I-5527J10438D01*
G01X-442900Y1048258D01*
G02X-446591Y1048479I0J30924D01*
G03X-445186Y1058412I-34409J9933D01*
G01X-445186Y1108412D01*
G03X-481000Y1144226I-35814J0D01*
G01X-535000Y1144226D01*
G03X-570814Y1108412I0J-35814D01*
G01X-570814Y1058412D01*
G03X-566516Y1041400I35814J0D01*
G03X-570814Y1024388I31516J-17012D01*
G01X-570814Y974388D01*
G03X-535000Y938574I35814J0D01*
G01X-481000Y938574D01*
G03X-459572Y945692I0J35814D01*
G02X-442900Y951230I16672J-22327D01*
G01X-424120Y951230D01*
G02X-418594Y949857I0J-11811D01*
G03X-386020Y928930I32573J14887D01*
G01X-381447Y928930D01*
G02X-324009Y910540I0J-98890D01*
G01X-311201Y897731D01*
G01X-311201Y536912D01*
G01X-419994Y536912D01*
G03X-455808Y501098I0J-35814D01*
G01X-455808Y251098D01*
G03X-453708Y239014I35814J0D01*
G01X-502435Y239014D01*
G03X-481386Y271647I-14754J32622D01*
G01X-481386Y308489D01*
G03X-482538Y317500I-35814J0D01*
G03X-481386Y326511I-34662J9011D01*
G01X-481386Y363353D01*
G03X-517200Y399167I-35814J0D01*
G01X-549600Y399167D01*
G03X-585392Y364614I0J-35814D01*
G03X-620044Y391381I-34653J-9047D01*
G01X-652445Y391381D01*
G03X-688259Y355567I0J-35814D01*
G01X-688259Y325255D01*
G03X-687110Y316255I35814J0D01*
G03X-688259Y307256I34665J-8999D01*
G01X-688259Y276944D01*
G03X-686531Y265955I35814J0D01*
G02X-682297Y241035I-84102J-27112D01*
G02X-684429Y211299I-260888J3765D01*
G03X-684726Y206700I35518J-4599D01*
G01X-684726Y174300D01*
G03X-684485Y170156I35814J0D01*
G02X-683246Y156918I-291505J-33956D01*
G01X-683379Y156676D01*
G01X-684966Y154519D01*
G03X-643414Y46450I50966J-42427D01*
G03X-573165Y138486I9414J65643D01*
G01X-570288Y138486D01*
G03X-563763Y139085I0J35814D01*
G02X-532188Y141986I31575J-170401D01*
G01X-60258Y141986D01*
G03X-33792Y57242I60258J-27686D01*
G03X-10873Y-20749I61732J-24222D01*
G03X70367Y-17946I38813J53769D01*
G01X72524Y-16359D01*
G01X74095Y-15494D01*
G01X213585Y-15494D01*
G01X218186Y-20095D01*
G01X218186Y-286485D01*
G03X142221Y-311743I-21301J-62800D01*
G03X145919Y-391712I54664J-37542D01*
G01X147506Y-393869D01*
G01X148371Y-395440D01*
G01X148371Y-565185D01*
G03X162580Y-599490I48514J0D01*
G01X299599Y-736508D01*
G03X287118Y-744709I29946J-59167D01*
G01X284961Y-746296D01*
G01X283390Y-747161D01*
G01X-505030Y-747161D01*
G01X-563626Y-688565D01*
G01X-563626Y-135055D01*
G01X-562761Y-133484D01*
G01X-561174Y-131327D01*
G03X-612140Y-22586I-50966J42427D01*
G03X-663106Y-131327I0J-66314D01*
G01X-661519Y-133484D01*
G01X-660654Y-135055D01*
G01X-660654Y-708660D01*
G03X-646445Y-742965I48514J0D01*
G01X-559430Y-829980D01*
G03X-525125Y-844189I34305J34305D01*
G01X283390Y-844189D01*
G01X284961Y-845055D01*
G01X287118Y-846641D01*
G03X305727Y-857564I42427J50966D01*
G01X18005Y-1145286D01*
G01X-723900Y-1145286D01*
G03X-758205Y-1159495I0J-48514D01*
G01X-869256Y-1270547D01*
G01X-869256Y1225547D01*
G02X-843604Y1231189I25652J-55493D01*
G01X-824717Y1231189D01*
G01X-821158Y1231046D01*
G01X-818105Y1230719D01*
G01X-809524Y1229238D01*
G01X-802741Y1227888D01*
G03X-721086Y1292403I15341J64515D01*
G03X-802741Y1356918I-66314J0D01*
G01X-809524Y1355567D01*
G01X-818105Y1354087D01*
G01X-821158Y1353759D01*
G01X-824717Y1353617D01*
G01X-843604Y1353617D01*
G02X-869256Y1355880I0J146477D01*
G01X-869256Y1440812D01*
G01X-830134Y663059D02*
G03X-508507Y663059I160814J0D01*
G03X-830134Y663059I-160814J0D01*
G01X-225205Y1224736D02*
G03X-261019Y1260550I-35814J0D01*
G01X-386020Y1260550D01*
G03X-421834Y1224736I0J-35814D01*
G01X-421834Y1154736D01*
G03X-386020Y1118922I35814J0D01*
G01X-261019Y1118922D01*
G03X-225205Y1154736I0J35814D01*
G01X-225205Y1224736D01*
G01X-869256Y1806856D02*
G01X-869256Y1906276D01*
G01X443803Y1906276D01*
G01X1439015Y1906276D01*
G02X1437175Y1770669I-83588J-66681D01*
G03X1770621Y1436908I149935J-183653D01*
G02X1905258Y1439343I68821J-81835D01*
G01X1905258Y1132854D01*
G01X635876Y1132854D01*
G03X600062Y1097039I0J-35814D01*
G01X600065Y865544D01*
G01X484877Y980732D01*
G03X530638Y1035848I-20057J63208D01*
G03X499591Y1100407I-65818J8092D01*
G01X493840Y1104248D01*
G01X486726Y1109269D01*
G01X484335Y1111196D01*
G01X481718Y1113612D01*
G01X457551Y1137779D01*
G03X414266Y1155708I-43285J-43285D01*
G01X295313Y1155708D01*
G03X270523Y1288947I-55689J58564D01*
G01X320006Y1288947D01*
G03X355820Y1324761I0J35814D01*
G01X355820Y1454761D01*
G03X320006Y1490575I-35814J0D01*
G01X230006Y1490575D01*
G03X218673Y1488735I0J-35814D01*
G02X213465Y1530961I168564J42226D01*
G01X213465Y1616449D01*
G03X214095Y1624752I-60582J8777D01*
G03X-212329Y1643310I-213544J1654D01*
G03X-304465Y1650383I-49710J-43892D01*
G01X-306622Y1648797D01*
G01X-308193Y1647931D01*
G01X-309610Y1647931D01*
G03X-324968Y1718936I-61906J23773D01*
G03X-396189Y1733258I-46548J-47231D01*
G01X-396189Y1824759D01*
G03X-432003Y1860573I-35814J0D01*
G01X-632003Y1860573D01*
G03X-667817Y1824759I0J-35814D01*
G01X-667817Y1684759D01*
G03X-666624Y1675592I35814J0D01*
G01X-677998Y1686966D01*
G03X-677557Y1692568I-35373J5602D01*
G01X-677557Y1722880D01*
G03X-678706Y1731879I-35814J0D01*
G03X-677557Y1740879I-34665J8999D01*
G01X-677557Y1771191D01*
G03X-713371Y1807005I-35814J0D01*
G01X-745771Y1807005D01*
G03X-781585Y1771191I0J-35814D01*
G01X-781585Y1740879D01*
G03X-780436Y1731879I35814J0D01*
G03X-781585Y1722880I34665J-8999D01*
G01X-781585Y1711039D01*
G01X-786569Y1716023D01*
G02X-798712Y1732759I46538J46538D01*
G03X-797779Y1740879I-34881J8120D01*
G01X-797779Y1771191D01*
G03X-833593Y1807005I-35814J0D01*
G01X-865993Y1807005D01*
G03X-869256Y1806856I0J-35814D01*
G01X672737Y1444765D02*
G03X636923Y1480579I-35814J0D01*
G01X416923Y1480579D01*
G03X381109Y1444765I0J-35814D01*
G01X381109Y1344765D01*
G03X416923Y1308951I35814J0D01*
G01X636923Y1308951D01*
G03X672737Y1344765I0J35814D01*
G01X672737Y1444765D01*
G01X432003Y1860573D02*
G03X396189Y1824759I0J-35814D01*
G01X396189Y1684759D01*
G03X432003Y1648945I35814J0D01*
G01X632003Y1648945D01*
G03X667817Y1684759I0J35814D01*
G01X667817Y1824759D01*
G03X632003Y1860573I-35814J0D01*
G01X432003Y1860573D01*
G01X1003503Y1762214D02*
G01X903503Y1762214D01*
G03X867689Y1726400I0J-35814D01*
G01X867689Y1626400D01*
G03X903503Y1590586I35814J0D01*
G01X1003503Y1590586D01*
G03X1031778Y1604418I0J35814D01*
G03X1164311Y1676400I46719J71982D01*
G03X1031778Y1748382I-85814J0D01*
G03X1003503Y1762214I-28274J-21982D01*
G01X-229077Y407897D02*
G01X-226661Y405279D01*
G01X-224734Y402889D01*
G01X-219713Y395775D01*
G01X-215872Y390024D01*
G03X-148920Y359315I56467J34771D01*
G03X-94904Y409394I-10485J65480D01*
G01X-12689Y327178D01*
G01X-12190Y325455D01*
G01X-11786Y322808D01*
G03X52501Y262555I66039J6038D01*
G03X119880Y319330I1751J66291D01*
G01X143688Y295522D01*
G01X146104Y292905D01*
G01X148031Y290514D01*
G01X153052Y283400D01*
G01X156893Y277649D01*
G03X264180Y269819I56467J34771D01*
G01X264180Y251098D01*
G03X266281Y239014I35814J0D01*
G01X-266281Y239014D01*
G03X-264180Y251098I-33714J12084D01*
G01X-264180Y443000D01*
G01X-229077Y407897D01*
G01X148844Y951230D02*
G03X170666Y956415I0J48514D01*
G03X218387Y836298I68958J-42142D01*
G03X200012Y826747I6625J-35196D01*
G03X175012Y836916I-25000J-25645D01*
G01X125012Y836916D01*
G03X100013Y826747I0J-35814D01*
G03X75013Y836916I-25000J-25645D01*
G01X25013Y836916D01*
G03X13Y826747I0J-35814D01*
G03X-24987Y836916I-25000J-25645D01*
G01X-74987Y836916D01*
G03X-99987Y826747I0J-35814D01*
G03X-124987Y836916I-25000J-25645D01*
G01X-174987Y836916D01*
G03X-188773Y834156I0J-35814D01*
G01X-188773Y923087D01*
G03X-195643Y951230I-61405J-79D01*
G01X148844Y951230D01*
G01X1455865Y-1882088D02*
G01X194212Y-1882088D01*
G03X214348Y-1849888I-15678J32200D01*
G01X214348Y-1799888D01*
G03X188843Y-1765590I-35814J0D01*
G02X188214Y-1761788I11182J3802D01*
G01X188214Y-1677612D01*
G02X191115Y-1646037I173302J0D01*
G03X191714Y-1639512I-35215J6525D01*
G01X191714Y-1609199D01*
G03X190565Y-1600200I-35814J0D01*
G03X191714Y-1591201I-34665J8999D01*
G01X191714Y-1560888D01*
G03X191115Y-1554363I-35814J0D01*
G02X188440Y-1531644I170401J31575D01*
G01X189079Y-1530484D01*
G01X190666Y-1528327D01*
G03X206001Y-1487207I-50966J42427D01*
G03X192298Y-1445514I-66301J1307D01*
G01X508000Y-1445514D01*
G03X542305Y-1431305I0J48514D01*
G01X618505Y-1355105D01*
G03X632714Y-1320800I-34305J34305D01*
G01X632714Y-1138559D01*
G03X635905Y-1138702I3191J35672D01*
G01X1905257Y-1138702D01*
G01X1905257Y-1445156D01*
G02X1760719Y-1433246I-65816J84271D01*
G03X1427705Y-1766609I-173612J-159583D01*
G02X1455865Y-1882088I-72278J-78798D01*
G54D11*
G01X-849793Y1771191D02*
G01X-849793Y1796845D01*
G01X-729571Y1771191D02*
G01X-729571Y1796845D01*
G01X-677113Y-1442098D02*
G01X-677113Y-1512752D01*
G01X-677113Y-1442098D02*
G01X-677113Y-1371444D01*
G01X-677113Y-1442098D02*
G01X-742767Y-1442098D01*
G01X-677113Y-1442098D02*
G01X-611459Y-1442098D01*
G01X-677113Y-1682102D02*
G01X-677113Y-1752756D01*
G01X-677113Y-1682102D02*
G01X-677113Y-1611448D01*
G01X-677113Y-1682102D02*
G01X-742767Y-1682102D01*
G01X-677113Y-1682102D02*
G01X-611459Y-1682102D01*
G01X-636245Y355567D02*
G01X-636245Y381221D01*
G01X-533400Y363353D02*
G01X-533400Y389007D01*
G01X-532003Y1754759D02*
G01X-532003Y1850413D01*
G01X-532003Y1754759D02*
G01X-406349Y1754759D01*
G01X-532003Y1754759D02*
G01X-657657Y1754759D01*
G01X-526923Y1394765D02*
G01X-391269Y1394765D01*
G01X-526923Y1394765D02*
G01X-662577Y1394765D01*
G01X-526923Y1394765D02*
G01X-526923Y1319111D01*
G01X-508000Y1083412D02*
G01X-508000Y1134066D01*
G01X-508000Y1083412D02*
G01X-455346Y1083412D01*
G01X-508000Y1083412D02*
G01X-560654Y1083412D01*
G01X-359994Y376098D02*
G01X-445648Y376098D01*
G01X-359994Y376098D02*
G01X-274340Y376098D01*
G01X-359994Y376098D02*
G01X-359994Y526752D01*
G01X-323520Y1189736D02*
G01X-235365Y1189736D01*
G01X-323520Y1189736D02*
G01X-411674Y1189736D01*
G01X-323520Y1189736D02*
G01X-323520Y1129082D01*
G01X-323520Y1189736D02*
G01X-323520Y1250390D01*
G01X-275006Y1389761D02*
G01X-345660Y1389761D01*
G01X-275006Y1389761D02*
G01X-275006Y1299107D01*
G01X250012Y716102D02*
G01X300666Y716102D01*
G01X250012Y716102D02*
G01X250012Y605448D01*
G01X275006Y1389761D02*
G01X345660Y1389761D01*
G01X275006Y1389761D02*
G01X275006Y1299107D01*
G01X275006Y1389761D02*
G01X275006Y1480415D01*
G01X359994Y376098D02*
G01X274340Y376098D01*
G01X359994Y376098D02*
G01X445648Y376098D01*
G01X359994Y376098D02*
G01X359994Y526752D01*
G01X526923Y1394765D02*
G01X662577Y1394765D01*
G01X526923Y1394765D02*
G01X391269Y1394765D01*
G01X526923Y1394765D02*
G01X526923Y1319111D01*
G01X526923Y1394765D02*
G01X526923Y1470419D01*
G01X532003Y1754759D02*
G01X532003Y1850413D01*
G01X532003Y1754759D02*
G01X532003Y1659105D01*
G01X532003Y1754759D02*
G01X657657Y1754759D01*
G01X532003Y1754759D02*
G01X406349Y1754759D01*
G01X1078497Y1676400D02*
G01X1154151Y1676400D01*
G01X1078497Y1676400D02*
G01X1078497Y1752054D01*
G01X1078497Y1676400D02*
G01X1078497Y1600746D01*
G04 Copper End*

G04 PolygonModel Start*
G54D12*
G01X-151784Y1626747D02*
G02X152883Y1625226I152336J-342D01*
G01X-1041400Y1294943D02*
G01X-1041400Y1366988D01*
G01X-1007738Y1400650D01*
G01X-821307Y1400650D01*
G54D11*
G01X-1135380Y1761515D02*
G01X-1104824Y1792072D01*
G01X-849793Y1792072D01*

G04 TearDrop Start*
G36*
G01X-234079Y943099D02*
G01X-300624Y937803D01*
G03X-381447Y964744I-80822J-107763D01*
G01X-261019Y1023922D01*
G03X-234079Y943099I134704J0D01*
G37*
G36*
G01X-424120Y987044D02*
G01X-424120Y1012444D01*
G03X-386020Y1031494I0J47625D01*
G01X-386020Y967994D01*
G03X-424120Y987044I-38100J-28575D01*
G37*
G36*
G01X-222919Y1012444D02*
G01X-222919Y987044D01*
G03X-261019Y967994I0J-47625D01*
G01X-261019Y1031494D01*
G03X-222919Y1012444I38100J28575D01*
G37*
G36*
G01X15180Y1119894D02*
G01X15180Y1069094D01*
G03X-61020Y1059740I0J-315046D01*
G01X-61020Y1129740D01*
G03X15180Y1119894I76200J289946D01*
G37*
G36*
G01X-843604Y1317803D02*
G01X-843604Y1267003D01*
G03X-919804Y1229992I0J-96949D01*
G01X-919804Y1334493D01*
G03X-843604Y1317803I76200J165601D01*
G37*
G36*
G01X-959104Y1602108D02*
G01X-933704Y1602108D01*
G03X-919804Y1564008I59166J0D01*
G01X-973004Y1564008D01*
G03X-959104Y1602108I-45266J38100D01*
G37*
G36*
G01X-843604Y1530198D02*
G01X-843604Y1479398D01*
G03X-919804Y1459507I0J-155904D01*
G01X-919804Y1564008D01*
G03X-843604Y1530198I76200J68964D01*
G37*
G36*
G01X-1148080Y1602108D02*
G01X-1122680Y1602108D01*
G03X-1109796Y1564008I62775J0D01*
G01X-1162996Y1564008D01*
G03X-1148080Y1602108I-41201J38100D01*
G37*
G36*
G01X126851Y1530961D02*
G01X177651Y1530961D01*
G03X191994Y1454761I209587J0D01*
G01X111994Y1454761D01*
G03X126851Y1530961I-187983J76200D01*
G37*
G36*
G01X-177394Y1530961D02*
G01X-126594Y1530961D01*
G03X-111994Y1454761I206152J0D01*
G01X-191994Y1454761D01*
G03X-177394Y1530961I-191552J76200D01*
G37*
G36*
G01X37103Y1492861D02*
G01X62503Y1492861D01*
G03X81553Y1454761I47625J0D01*
G01X18053Y1454761D01*
G03X37103Y1492861I-28575J38100D01*
G37*
G36*
G01X-62108Y1492861D02*
G01X-36708Y1492861D01*
G03X-17658Y1454761I47625J0D01*
G01X-81158Y1454761D01*
G03X-62108Y1492861I-28575J38100D01*
G37*
G36*
G01X-137287Y593002D02*
G01X-162687Y593002D01*
G03X-174987Y631102I-65159J0D01*
G01X-124987Y631102D01*
G03X-137287Y593002I52859J-38100D01*
G37*
G36*
G01X63055Y593002D02*
G01X37655Y593002D01*
G03X25013Y631102I-63731J0D01*
G01X75013Y631102D01*
G03X63055Y593002I54721J-38100D01*
G37*
G36*
G01X165100Y593002D02*
G01X139700Y593002D01*
G03X125012Y631102I-56760J0D01*
G01X175012Y631102D01*
G03X165100Y593002I68266J-38100D01*
G37*
G36*
G01X211542Y799198D02*
G01X232088Y814572D01*
G03X272499Y801102I40411J53882D01*
G01X225012Y758786D01*
G03X211542Y799198I-67352J0D01*
G37*
G36*
G01X-165100Y-1522788D02*
G01X-139700Y-1522788D01*
G03X-136200Y-1560888I209115J0D01*
G01X-168600Y-1560888D01*
G03X-165100Y-1522788I-205615J38100D01*
G37*
G36*
G01X-139700Y-1677612D02*
G01X-165100Y-1677612D01*
G03X-168600Y-1639512I-209115J0D01*
G01X-136200Y-1639512D01*
G03X-139700Y-1677612I205615J-38100D01*
G37*
G36*
G01X-63500Y-1522788D02*
G01X-38100Y-1522788D01*
G03X-34600Y-1560888I209115J0D01*
G01X-67000Y-1560888D01*
G03X-63500Y-1522788I-205615J38100D01*
G37*
G36*
G01X-38100Y-1677612D02*
G01X-63500Y-1677612D01*
G03X-67000Y-1639512I-209115J0D01*
G01X-34600Y-1639512D01*
G03X-38100Y-1677612I205615J-38100D01*
G37*
G36*
G01X127000Y-1522788D02*
G01X152400Y-1522788D01*
G03X155900Y-1560888I209115J0D01*
G01X123500Y-1560888D01*
G03X127000Y-1522788I-205615J38100D01*
G37*
G36*
G01X152400Y-1677612D02*
G01X127000Y-1677612D01*
G03X123500Y-1639512I-209115J0D01*
G01X155900Y-1639512D01*
G03X152400Y-1677612I205615J-38100D01*
G37*
G36*
G01X-715751Y1668810D02*
G01X-741151Y1668810D01*
G03X-745771Y1692568I-63396J0D01*
G01X-713371Y1692568D01*
G03X-715751Y1668810I117378J-23758D01*
G37*
G36*
G01X-811893Y1690698D02*
G01X-830898Y1673782D01*
G03X-865993Y1692568I-48580J-48579D01*
G01X-833593Y1722880D01*
G03X-811893Y1690698I93562J39681D01*
G37*
G36*
G01X-1122680Y1659948D02*
G01X-1148080Y1659948D01*
G03X-1151580Y1698048I-209115J0D01*
G01X-1119180Y1698048D01*
G03X-1122680Y1659948I205615J-38100D01*
G37*
G36*
G01X-945049Y1685538D02*
G01X-965010Y1669578D01*
G03X-1005421Y1683048I-40411J-53882D01*
G01X-958520Y1725950D01*
G03X-945049Y1685538I67352J0D01*
G37*
G36*
G01X-442900Y1012444D02*
G01X-442900Y987044D01*
G03X-481000Y974388I0J-63679D01*
G01X-481000Y1024388D01*
G03X-442900Y1012444I38100J54793D01*
G37*
G36*
G01X-587700Y277368D02*
G01X-587700Y302768D01*
G03X-549600Y308489I0J129720D01*
G01X-549600Y271647D01*
G03X-587700Y277368I-38100J-123998D01*
G37*
G36*
G01X127000Y-1761788D02*
G01X152400Y-1761788D01*
G03X171450Y-1799888I47625J0D01*
G01X118534Y-1799888D01*
G03X127000Y-1761788I-81501J38100D01*
G37*
G36*
G01X26309Y-1736791D02*
G01X51709Y-1736791D01*
G03X63550Y-1774891I67220J0D01*
G01X19549Y-1774891D01*
G03X26309Y-1736791I-103984J38100D01*
G37*
G36*
G01X-63500Y-1736791D02*
G01X-38100Y-1736791D01*
G03X-26443Y-1774891I68090J0D01*
G01X-70443Y-1774891D01*
G03X-63500Y-1736791I-101065J38100D01*
G37*
G36*
G01X-165100Y-1761788D02*
G01X-139700Y-1761788D01*
G03X-120650Y-1799888I47625J0D01*
G01X-173464Y-1799888D01*
G03X-165100Y-1761788I-82593J38100D01*
G37*
G36*
G01X-1164387Y-1525198D02*
G01X-1189787Y-1525198D01*
G03X-1208837Y-1487098I-47625J0D01*
G01X-1145337Y-1487098D01*
G03X-1164387Y-1525198I28575J-38100D01*
G37*
G36*
G01X-1098987Y-1429398D02*
G01X-1098987Y-1454798D01*
G03X-1137087Y-1473848I0J-47625D01*
G01X-1137087Y-1410348D01*
G03X-1098987Y-1429398I38100J28575D01*
G37*
G36*
G01X-1189787Y-1599002D02*
G01X-1164387Y-1599002D01*
G03X-1145337Y-1637102I47625J0D01*
G01X-1208837Y-1637102D01*
G03X-1189787Y-1599002I-28575J38100D01*
G37*
G36*
G01X-621055Y238844D02*
G01X-646455Y238844D01*
G03X-652445Y276944I-124178J0D01*
G01X-620044Y276944D01*
G03X-621055Y238844I717455J-38100D01*
G37*
G36*
G01X-581944Y302768D02*
G01X-581944Y277368D01*
G03X-620044Y276944I0J-1711335D01*
G01X-620044Y307256D01*
G03X-581944Y302768I38100J159470D01*
G37*
G36*
G01X-532188Y203200D02*
G01X-532188Y177800D01*
G03X-570288Y174300I0J-209115D01*
G01X-570288Y206700D01*
G03X-532188Y203200I38100J205615D01*
G37*
G36*
G01X-646455Y244800D02*
G01X-621055Y244800D01*
G03X-618599Y206700I296731J0D01*
G01X-648912Y206700D01*
G03X-646455Y244800I-294275J38100D01*
G37*
G36*
G01X-621300Y136200D02*
G01X-646700Y136200D01*
G03X-648912Y174300I-329290J0D01*
G01X-618599Y174300D01*
G03X-621300Y136200I267390J-38100D01*
G37*
G36*
G01X390276Y177800D02*
G01X390276Y203200D01*
G01X394871Y204075D01*
G01X400628Y206380D01*
G01X406547Y209639D01*
G01X411626Y213375D01*
G01X411626Y167625D01*
G01X406547Y171361D01*
G01X400628Y174620D01*
G01X394871Y176925D01*
G01X390276Y177800D01*
G37*
G36*
G01X457200Y153900D02*
G01X406400Y153900D01*
G01X406181Y159373D01*
G01X405603Y164756D01*
G01X403850Y174918D01*
G01X402097Y183722D01*
G01X401300Y190500D01*
G01X462300Y190500D01*
G01X461503Y183722D01*
G01X459750Y174918D01*
G01X457997Y164756D01*
G01X457419Y159373D01*
G01X457200Y153900D01*
G37*
G36*
G01X-139700Y-1527424D02*
G01X-165100Y-1527424D01*
G01X-165975Y-1522829D01*
G01X-168280Y-1517072D01*
G01X-171539Y-1511153D01*
G01X-175275Y-1506074D01*
G01X-129525Y-1506074D01*
G01X-133261Y-1511153D01*
G01X-136520Y-1517072D01*
G01X-138825Y-1522829D01*
G01X-139700Y-1527424D01*
G37*
G36*
G01X-38100Y-1527424D02*
G01X-63500Y-1527424D01*
G01X-64375Y-1522829D01*
G01X-66680Y-1517072D01*
G01X-69939Y-1511153D01*
G01X-73675Y-1506074D01*
G01X-27925Y-1506074D01*
G01X-31661Y-1511153D01*
G01X-34920Y-1517072D01*
G01X-37225Y-1522829D01*
G01X-38100Y-1527424D01*
G37*
G36*
G01X-303562Y1586717D02*
G01X-303562Y1612117D01*
G01X-298967Y1612992D01*
G01X-293210Y1615297D01*
G01X-287292Y1618556D01*
G01X-282212Y1622292D01*
G01X-282212Y1576542D01*
G01X-287292Y1580279D01*
G01X-293210Y1583538D01*
G01X-298967Y1585843D01*
G01X-303562Y1586717D01*
G37*
G36*
G01X-391898Y1633362D02*
G01X-409859Y1651323D01*
G01X-407228Y1655190D01*
G01X-404787Y1660891D01*
G01X-402907Y1667381D01*
G01X-401957Y1673615D01*
G01X-369607Y1641264D01*
G01X-375840Y1640314D01*
G01X-382330Y1638434D01*
G01X-388031Y1635993D01*
G01X-391898Y1633362D01*
G37*
G36*
G01X62503Y1557894D02*
G01X37103Y1557894D01*
G01X36229Y1562488D01*
G01X33923Y1568245D01*
G01X30664Y1574164D01*
G01X26928Y1579243D01*
G01X72678Y1579243D01*
G01X68942Y1574164D01*
G01X65683Y1568245D01*
G01X63378Y1562488D01*
G01X62503Y1557894D01*
G37*
G36*
G01X-36708Y1629163D02*
G01X-62108Y1629163D01*
G01X-62982Y1633757D01*
G01X-65287Y1639514D01*
G01X-68546Y1645433D01*
G01X-72283Y1650513D01*
G01X-26533Y1650513D01*
G01X-30269Y1645433D01*
G01X-33528Y1639514D01*
G01X-35833Y1633757D01*
G01X-36708Y1629163D01*
G37*
G36*
G01X-824000Y1267003D02*
G01X-824000Y1317803D01*
G01X-818527Y1318022D01*
G01X-813144Y1318600D01*
G01X-802982Y1320353D01*
G01X-794178Y1322106D01*
G01X-787400Y1322903D01*
G01X-787400Y1261903D01*
G01X-794178Y1262700D01*
G01X-802982Y1264453D01*
G01X-813144Y1266206D01*
G01X-818527Y1266784D01*
G01X-824000Y1267003D01*
G37*
G36*
G01X51709Y-1526733D02*
G01X26309Y-1528097D01*
G01X25409Y-1523403D01*
G01X23037Y-1517613D01*
G01X19682Y-1511727D01*
G01X15837Y-1506747D01*
G01X61566Y-1505383D01*
G01X57947Y-1510557D01*
G01X54790Y-1516507D01*
G01X52556Y-1522233D01*
G01X51709Y-1526733D01*
G37*
G36*
G01X58482Y-1447558D02*
G01X76442Y-1465518D01*
G01X73812Y-1469385D01*
G01X71371Y-1475086D01*
G01X69490Y-1481576D01*
G01X68540Y-1487810D01*
G01X36190Y-1455460D01*
G01X42424Y-1454510D01*
G01X48914Y-1452629D01*
G01X54615Y-1450188D01*
G01X58482Y-1447558D01*
G37*
G36*
G01X69464Y45720D02*
G01X69464Y20320D01*
G01X64869Y19445D01*
G01X59112Y17140D01*
G01X53193Y13881D01*
G01X48114Y10145D01*
G01X48114Y55895D01*
G01X53193Y52159D01*
G01X59112Y48900D01*
G01X64869Y46595D01*
G01X69464Y45720D01*
G37*
G36*
G01X41524Y127000D02*
G01X41524Y101600D01*
G01X36929Y100725D01*
G01X31172Y98420D01*
G01X25253Y95161D01*
G01X20174Y91425D01*
G01X20174Y137175D01*
G01X25253Y133439D01*
G01X31172Y130180D01*
G01X36929Y127875D01*
G01X41524Y127000D01*
G37*
G36*
G01X152400Y-1527424D02*
G01X127000Y-1527424D01*
G01X126125Y-1522829D01*
G01X123820Y-1517072D01*
G01X120561Y-1511153D01*
G01X116825Y-1506074D01*
G01X162575Y-1506074D01*
G01X158839Y-1511153D01*
G01X155580Y-1517072D01*
G01X153275Y-1522829D01*
G01X152400Y-1527424D01*
G37*
G36*
G01X-646700Y153616D02*
G01X-621300Y153616D01*
G01X-620425Y149022D01*
G01X-618120Y143265D01*
G01X-614861Y137346D01*
G01X-611125Y132266D01*
G01X-656875Y132266D01*
G01X-653139Y137346D01*
G01X-649880Y143265D01*
G01X-647575Y149022D01*
G01X-646700Y153616D01*
G37*
G36*
G01X-599440Y-130424D02*
G01X-624840Y-130424D01*
G01X-625715Y-125829D01*
G01X-628020Y-120072D01*
G01X-631279Y-114153D01*
G01X-635015Y-109074D01*
G01X-589265Y-109074D01*
G01X-593001Y-114153D01*
G01X-596260Y-120072D01*
G01X-598565Y-125829D01*
G01X-599440Y-130424D01*
G37*
G36*
G01X317500Y-301376D02*
G01X342900Y-301376D01*
G01X343775Y-305971D01*
G01X346080Y-311728D01*
G01X349339Y-317647D01*
G01X353075Y-322726D01*
G01X307325Y-322726D01*
G01X311061Y-317647D01*
G01X314320Y-311728D01*
G01X316625Y-305971D01*
G01X317500Y-301376D01*
G37*
G36*
G01X291858Y-454598D02*
G01X309818Y-436638D01*
G01X313685Y-439268D01*
G01X319386Y-441709D01*
G01X325876Y-443590D01*
G01X332110Y-444540D01*
G01X299760Y-476890D01*
G01X298810Y-470656D01*
G01X296929Y-464166D01*
G01X294488Y-458465D01*
G01X291858Y-454598D01*
G37*
G36*
G01X288021Y-808375D02*
G01X288021Y-782975D01*
G01X292616Y-782101D01*
G01X298373Y-779795D01*
G01X304291Y-776536D01*
G01X309371Y-772800D01*
G01X309371Y-818550D01*
G01X304291Y-814814D01*
G01X298373Y-811555D01*
G01X292616Y-809250D01*
G01X288021Y-808375D01*
G37*
G36*
G01X209585Y-390809D02*
G01X184185Y-390809D01*
G01X183311Y-386214D01*
G01X181005Y-380457D01*
G01X177746Y-374538D01*
G01X174010Y-369459D01*
G01X219760Y-369459D01*
G01X216024Y-374538D01*
G01X212765Y-380457D01*
G01X210460Y-386214D01*
G01X209585Y-390809D01*
G37*
G36*
G01X338120Y-554523D02*
G01X374041Y-590444D01*
G01X370326Y-594469D01*
G01X366928Y-598684D01*
G01X360981Y-607110D01*
G01X355996Y-614574D01*
G01X351767Y-619931D01*
G01X308633Y-576797D01*
G01X313989Y-572568D01*
G01X321454Y-567582D01*
G01X329880Y-561636D01*
G01X334095Y-558238D01*
G01X338120Y-554523D01*
G37*
G36*
G01X15910Y349228D02*
G01X33871Y367188D01*
G01X37738Y364558D01*
G01X43439Y362117D01*
G01X49929Y360237D01*
G01X56162Y359286D01*
G01X23812Y326936D01*
G01X22862Y333170D01*
G01X20982Y339660D01*
G01X18541Y345360D01*
G01X15910Y349228D01*
G37*
G36*
G01X139700Y587624D02*
G01X165100Y587624D01*
G01X165975Y583029D01*
G01X168280Y577272D01*
G01X171539Y571353D01*
G01X175275Y566274D01*
G01X129525Y566274D01*
G01X133261Y571353D01*
G01X136520Y577272D01*
G01X138825Y583029D01*
G01X139700Y587624D01*
G37*
G36*
G01X37655Y625279D02*
G01X63055Y625279D01*
G01X63930Y620685D01*
G01X66235Y614928D01*
G01X69494Y609009D01*
G01X73230Y603929D01*
G01X27480Y603929D01*
G01X31216Y609009D01*
G01X34475Y614928D01*
G01X36781Y620685D01*
G01X37655Y625279D01*
G37*
G36*
G01X169519Y320340D02*
G01X205440Y356261D01*
G01X209465Y352546D01*
G01X213680Y349148D01*
G01X222106Y343201D01*
G01X229571Y338216D01*
G01X234927Y333987D01*
G01X191793Y290853D01*
G01X187564Y296209D01*
G01X182579Y303674D01*
G01X176632Y312100D01*
G01X173234Y316315D01*
G01X169519Y320340D01*
G37*
G36*
G01X420979Y1051860D02*
G01X456900Y1087781D01*
G01X460925Y1084066D01*
G01X465140Y1080668D01*
G01X473566Y1074721D01*
G01X481031Y1069736D01*
G01X486387Y1065507D01*
G01X443253Y1022373D01*
G01X439024Y1027729D01*
G01X434039Y1035194D01*
G01X428092Y1043620D01*
G01X424694Y1047835D01*
G01X420979Y1051860D01*
G37*
G36*
G01X-203246Y432714D02*
G01X-167325Y468636D01*
G01X-163300Y464921D01*
G01X-159085Y461523D01*
G01X-150659Y455576D01*
G01X-143195Y450591D01*
G01X-137838Y446362D01*
G01X-180972Y403228D01*
G01X-185201Y408584D01*
G01X-190187Y416049D01*
G01X-196133Y424475D01*
G01X-199531Y428690D01*
G01X-203246Y432714D01*
G37*
G04 TearDrop End*

G04 Pad Start*
G54D13*
G01X-323520Y1189736D03*
G01X-323520Y999744D03*
G01X-123520Y1094740D03*
G54D14*
G01X-1136396Y1282243D03*
G01X-1041400Y1282243D03*
G01X-946404Y1282243D03*
G01X-946404Y1511757D03*
G01X-1136396Y1511757D03*
G54D16*
G01X275006Y1389761D03*
G01X-275006Y1389761D03*
G54D17*
G01X151994Y1389761D03*
G01X-151994Y1389761D03*
G54D18*
G01X50013Y1389761D03*
G01X-50013Y1389761D03*
G54D19*
G01X526923Y1394765D03*
G01X-526923Y1394765D03*
G54D20*
G01X532003Y1754759D03*
G01X-532003Y1754759D03*
G54D21*
G01X-359994Y376098D03*
G01X359994Y376098D03*
G54D22*
G01X-49987Y716102D03*
G01X-149987Y716102D03*
G01X-249987Y716102D03*
G01X50013Y716102D03*
G01X150012Y716102D03*
G01X250012Y716102D03*
G54D23*
G01X-152400Y-1576045D03*
G01X-152400Y-1624355D03*
G01X-50800Y-1576045D03*
G01X-50800Y-1624355D03*
G01X139700Y-1576045D03*
G01X139700Y-1624355D03*
G01X-729571Y1707724D03*
G01X-729571Y1756035D03*
G01X-849793Y1707724D03*
G01X-849793Y1756035D03*
G01X-1135380Y1761515D03*
G01X-1135380Y1713205D03*
G54D24*
G01X-985520Y1708048D03*
G01X-985520Y1792072D03*
G01X-508000Y999388D03*
G01X-508000Y1083412D03*
G54D25*
G01X-533400Y290068D03*
G01X-533400Y344932D03*
G54D26*
G01X148534Y-1824888D03*
G54D27*
G01X41549Y-1812392D03*
G01X-48443Y-1812392D03*
G54D26*
G01X-143464Y-1824888D03*
G54D28*
G01X-1177087Y-1442098D03*
G01X-1177087Y-1682102D03*
G01X-677113Y-1682102D03*
G01X-677113Y-1442098D03*
G54D23*
G01X-636245Y292100D03*
G01X-636245Y340411D03*
G54D29*
G01X-585445Y190500D03*
G01X-633755Y190500D03*
G54D30*
G01X1078497Y1676400D03*
G54D31*
G01X953503Y1676400D03*
G04 Pad End*

G04 Via Start*
G54D32*
G01X431800Y190500D03*
G01X-152400Y-1485900D03*
G01X-50800Y-1485900D03*
G01X-262038Y1599417D03*
G01X-371517Y1671705D03*
G01X49803Y1599417D03*
G01X-49408Y1670687D03*
G01X-787400Y1292403D03*
G01X38100Y-1485900D03*
G01X27940Y33020D03*
G01X0Y114300D03*
G01X139700Y-1485900D03*
G01X-634000Y112092D03*
G01X-612140Y-88900D03*
G01X330200Y-342900D03*
G01X330200Y-474980D03*
G01X329545Y-795675D03*
G01X196885Y-349285D03*
G01X330200Y-598364D03*
G01X54252Y328846D03*
G01X152400Y546100D03*
G01X50355Y583755D03*
G01X213360Y312420D03*
G01X464820Y1043940D03*
G01X-159405Y424795D03*
G01X99060Y-86054D03*
G01X-304801Y-47596D03*
G01X-838200Y-1181100D03*
G01X-838200Y1193800D03*
G01X241300Y1828800D03*
G01X1866900Y1181100D03*
G01X-431800Y-1447800D03*
G01X317500Y-1511300D03*
G01X-63500Y-292100D03*
G01X-520700Y-241300D03*
G01X-218449Y-47596D03*
G01X-218449Y38764D03*
G01X-304800Y38764D03*
G01X-304809Y-133956D03*
G01X-218449Y-133956D03*
G01X-391169Y38764D03*
G01X-391169Y-133956D03*
G01X-391169Y-47596D03*
G01X76200Y-431800D03*
G01X444500Y-1016000D03*
G01X444500Y-1229528D03*
G01X-838200Y-956733D03*
G01X-838200Y-732367D03*
G01X-838200Y-508000D03*
G01X-838200Y-1446091D03*
G01X-838200Y-1849023D03*
G01X-431800Y-1849023D03*
G01X-596900Y-956733D03*
G01X-368300Y-956733D03*
G01X-596900Y-1083733D03*
G01X-368300Y-1079500D03*
G01X-482600Y-673100D03*
G01X317500Y-1854200D03*
G01X565150Y-1854200D03*
G01X812800Y-1854200D03*
G01X1060450Y-1854200D03*
G01X1308100Y-1854200D03*
G01X565247Y-1511300D03*
G01X812995Y-1511300D03*
G01X1060742Y-1511300D03*
G01X1308489Y-1511300D03*
G01X812800Y-1181100D03*
G01X1054100Y-1181100D03*
G01X1305108Y-1181100D03*
G01X1625161Y-1181100D03*
G01X1854200Y-1181100D03*
G01X-838200Y-316738D03*
G01X-838200Y-62738D03*
G01X-838200Y191262D03*
G01X-838200Y445262D03*
G01X-838200Y787400D03*
G01X-838200Y990600D03*
G01X-635000Y990600D03*
G01X-635000Y1194135D03*
G01X-456037Y790380D03*
G01X-152400Y889000D03*
G01X105235Y892073D03*
G01X101600Y1193800D03*
G01X-150899Y1195780D03*
G01X-254120Y-1308100D03*
G01X-571620Y-1308100D03*
G01X-152400Y-698500D03*
G01X-266700Y1828800D03*
G01X749300Y1828800D03*
G01X1070317Y1828800D03*
G01X1398091Y1828800D03*
G01X1565275Y1181100D03*
G01X1263650Y1181100D03*
G01X962025Y1181100D03*
G01X660400Y1181100D03*
G01X1866900Y1397000D03*
G01X962025Y1397000D03*
G01X533400Y1562100D03*
G01X-736600Y1397000D03*
G01X220980Y454660D03*
G04 Via End*

G04 Track Start*
G54D11*
G01X-152400Y-1576045D02*
G01X-152400Y-1485900D01*
G01X-50800Y-1576045D02*
G01X-50800Y-1485900D01*
G01X-728451Y1706481D02*
G01X-728451Y1668810D01*
G54D12*
G01X152251Y1390434D02*
G01X152251Y1636433D01*
G54D11*
G01X139700Y-1485900D02*
G01X139700Y-1576045D01*
G01X-1177087Y-1682102D02*
G01X-1177087Y-1442098D01*
G01X0Y114300D02*
G01X266700Y114300D01*
G01X330200Y50800D01*
G01X330200Y-342900D01*
G01X266700Y0D02*
G01X266700Y-411480D01*
G01X330200Y-474980D01*
G54D12*
G01X431800Y190500D02*
G01X431800Y-496764D01*
G01X330200Y-598364D01*
G54D11*
G01X-728451Y1668810D02*
G01X-685241Y1625600D01*
G01X-847038Y1707883D02*
G01X-713955Y1574800D01*
G01X-393700Y1574800D01*
G01X-369083Y1599417D01*
G01X-262038Y1599417D01*
G01X49803Y1599417D02*
G01X49803Y1404613D01*
G01X58714Y1395702D01*
G01X-49408Y1670687D02*
G01X-49408Y1412237D01*
G01X-43250Y1406079D01*
G01X-685241Y1625600D02*
G01X-417621Y1625600D01*
G01X-371517Y1671705D01*
G54D12*
G01X-946404Y1294943D02*
G01X-943864Y1292403D01*
G01X-787400Y1292403D01*
G01X-154781Y1504798D02*
G01X-939444Y1504798D01*
G01X-946404Y1511757D01*
G54D11*
G01X-985520Y1708048D02*
G01X-946404Y1668932D01*
G01X-946404Y1511757D01*
G54D12*
G01X-151994Y1389761D02*
G01X-151994Y1623583D01*
G54D11*
G01X-1135380Y1713205D02*
G01X-1135380Y1512773D01*
G01X-1136396Y1511757D01*
G01X196885Y-349285D02*
G01X196885Y-565185D01*
G01X-612140Y-88900D02*
G01X-612140Y-708660D01*
G01X-525125Y-795675D01*
G01X329545Y-795675D01*
G54D12*
G01X-249987Y716102D02*
G01X-249987Y923087D01*
G01X-323520Y996620D01*
G01X414266Y1094494D02*
G01X464820Y1043940D01*
G01X-123520Y1094740D02*
G01X-123274Y1094494D01*
G01X414266Y1094494D01*
G54D11*
G01X-533400Y290068D02*
G01X-634213Y290068D01*
G01X-633755Y289611D01*
G01X-633755Y190500D01*
G01X-585445Y190500D02*
G01X431800Y190500D01*
G01X-323520Y999744D02*
G01X-507644Y999744D01*
G01X-508000Y999388D01*
G01X152400Y546100D02*
G01X152400Y713715D01*
G01X150012Y716102D01*
G01X-149987Y533085D02*
G01X-149987Y716102D01*
G01X54252Y328846D02*
G01X-149987Y533085D01*
G01X50355Y583755D02*
G01X50355Y715760D01*
G01X50013Y716102D01*
G54D12*
G01X-249987Y716102D02*
G01X-249987Y515376D01*
G01X-159405Y424795D01*
G54D11*
G01X-323520Y999744D02*
G01X148844Y999744D01*
G01X39009Y-1486809D02*
G01X38100Y-1485900D01*
G01X-152400Y-1624355D02*
G01X-152400Y-1815953D01*
G01X-143464Y-1824888D01*
G01X-50800Y-1624355D02*
G01X-50800Y-1810034D01*
G01X-48443Y-1812392D01*
G01X41549Y-1812392D02*
G01X39009Y-1809852D01*
G01X39009Y-1486809D01*
G01X139700Y-1624355D02*
G01X139700Y-1816054D01*
G01X148534Y-1824888D01*
G01X-634000Y112092D02*
G01X-634000Y190255D01*
G01X-633755Y190500D01*
G01X196885Y-565185D02*
G01X406400Y-774700D01*
G01X406400Y-825500D01*
G01X38100Y-1193800D01*
G01X-723900Y-1193800D01*
G01X-972198Y-1442098D01*
G01X-1177087Y-1442098D01*
G54D12*
G01X213360Y312420D02*
G01X-49987Y575767D01*
G01X-49987Y716102D01*
G54D11*
G01X148844Y999744D02*
G01X177800Y1028700D01*
G01X368300Y1028700D01*
G01X584200Y812800D01*
G01X250012Y716102D02*
G01X250012Y778688D01*
G01X144724Y883976D01*
G01X27940Y33020D02*
G01X233680Y33020D01*
G01X266700Y0D01*
G01X584200Y-1320800D02*
G01X584200Y812800D01*
G01X584200Y-1320800D02*
G01X508000Y-1397000D01*
G01X127000Y-1397000D01*
G01X38100Y-1485900D01*
G04 Track End*

M02*

