G04 Layer: TopSolderMaskLayer*
G04 EasyEDA Pro v3.2.121, 2026-04-28 17:19:32*
G04 Gerber Generator version 0.3*
G04 Scale: 100 percent, Rotated: No, Reflected: No*
G04 Dimensions in millimeters*
G04 Leading zeros omitted, absolute positions, 4 integers and 5 decimals*
G04 Generated by one-click*
%FSLAX45Y45*%
%MOMM*%
%AMRoundRect*1,1,$1,$2,$3*1,1,$1,$4,$5*1,1,$1,0-$2,0-$3*1,1,$1,0-$4,0-$5*20,1,$1,$2,$3,$4,$5,0*20,1,$1,$4,$5,0-$2,0-$3,0*20,1,$1,0-$2,0-$3,0-$4,0-$5,0*20,1,$1,0-$4,0-$5,$2,$3,0*4,1,4,$2,$3,$4,$5,0-$2,0-$3,0-$4,0-$5,$2,$3,0*%
%ADD10RoundRect,0.1016X-0.62501X0.35X0.62501X0.35*%
%ADD11RoundRect,0.1016X-0.266X0.5225X0.266X0.5225*%
%ADD12RoundRect,0.1016X-0.45X0.65X0.45X0.65*%
%ADD13RoundRect,0.1016X-0.4X0.65X0.4X0.65*%
%ADD14RoundRect,0.1016X-0.35X0.65X0.35X0.65*%
%ADD15RoundRect,0.1055X-1.1X0.5X1.1X0.5*%
%ADD16RoundRect,0.1016X-1.1X0.5X1.1X0.5*%
%ADD17RoundRect,0.1016X-1.0X-0.7X-1.0X0.7*%
%ADD18RoundRect,0.10003X-0.6X1.25X0.6X1.25*%
%ADD19RoundRect,0.10003X-0.25X0.85X0.25X0.85*%
%ADD20RoundRect,0.1016X-0.162X-0.15156X-0.162X0.15156*%
%ADD21RoundRect,0.1016X-0.27X-0.25X-0.27X0.25*%
%ADD22RoundRect,0.1016X-0.162X-0.18421X-0.162X0.18421*%
%ADD23RoundRect,0.1016X-0.3X0.25X0.3X0.25*%
%ADD24RoundRect,0.1016X-0.22X-0.37501X-0.22X0.37501*%
%ADD25RoundRect,0.10003X-0.4X-0.45X-0.4X0.45*%
%ADD26RoundRect,0.1016X-0.15156X0.162X0.15156X0.162*%
%ADD27C,1.1016*%
%ADD28RoundRect,0.1016X-0.5X0.5X0.5X0.5*%
G75*


G04 Pad Start*
G54D10*
G01X-323520Y1189736D03*
G01X-323520Y999744D03*
G01X-123520Y1094740D03*
G54D11*
G01X-1136396Y1282243D03*
G01X-1041400Y1282243D03*
G01X-946404Y1282243D03*
G01X-946404Y1511757D03*
G01X-1136396Y1511757D03*
G54D12*
G01X275006Y1389761D03*
G01X-275006Y1389761D03*
G54D13*
G01X151994Y1389761D03*
G01X-151994Y1389761D03*
G54D14*
G01X50013Y1389761D03*
G01X-50013Y1389761D03*
G54D16*
G01X526923Y1394765D03*
G01X-526923Y1394765D03*
G54D17*
G01X532003Y1754759D03*
G01X-532003Y1754759D03*
G54D18*
G01X-359994Y376098D03*
G01X359994Y376098D03*
G54D19*
G01X-49987Y716102D03*
G01X-149987Y716102D03*
G01X-249987Y716102D03*
G01X50013Y716102D03*
G01X150012Y716102D03*
G01X250012Y716102D03*
G54D20*
G01X-152400Y-1576045D03*
G01X-152400Y-1624355D03*
G01X-50800Y-1576045D03*
G01X-50800Y-1624355D03*
G01X139700Y-1576045D03*
G01X139700Y-1624355D03*
G01X-729571Y1707724D03*
G01X-729571Y1756035D03*
G01X-849793Y1707724D03*
G01X-849793Y1756035D03*
G01X-1135380Y1761515D03*
G01X-1135380Y1713205D03*
G54D21*
G01X-985520Y1708048D03*
G01X-985520Y1792072D03*
G01X-508000Y999388D03*
G01X-508000Y1083412D03*
G54D22*
G01X-533400Y290068D03*
G01X-533400Y344932D03*
G54D23*
G01X148534Y-1824888D03*
G54D24*
G01X41549Y-1812392D03*
G01X-48443Y-1812392D03*
G54D23*
G01X-143464Y-1824888D03*
G54D25*
G01X-1177087Y-1442098D03*
G01X-1177087Y-1682102D03*
G01X-677113Y-1682102D03*
G01X-677113Y-1442098D03*
G54D20*
G01X-636245Y292100D03*
G01X-636245Y340411D03*
G54D26*
G01X-585445Y190500D03*
G01X-633755Y190500D03*
G54D27*
G01X1078497Y1676400D03*
G54D28*
G01X953503Y1676400D03*
G04 Pad End*

M02*

