G04 Layer: BottomSilkscreenLayer*
G04 EasyEDA Pro v3.2.121, 2026-04-28 17:19:32*
G04 Gerber Generator version 0.3*
G04 Scale: 100 percent, Rotated: No, Reflected: No*
G04 Dimensions in millimeters*
G04 Leading zeros omitted, absolute positions, 4 integers and 5 decimals*
G04 Generated by one-click*
%FSLAX45Y45*%
%MOMM*%
%ADD10C,0.1524*%
%ADD11C,0.254*%
%ADD12C,0.15199*%
%ADD13C,0.2*%
%ADD14C,0.3*%
%ADD15C,0.8826*%
G75*


G04 Text Start*
G54D10*
G01X335280Y-688340D02*
G01X309880Y-755142D01*
G01X284480Y-688340D02*
G01X309880Y-755142D01*
G01X225298Y-697992D02*
G01X225298Y-755142D01*
G01X254000Y-726440D02*
G01X196850Y-726440D01*
G01X274828Y-579882D02*
G01X278130Y-573532D01*
G01X284480Y-567182D01*
G01X290830Y-563880D01*
G01X303530Y-563880D01*
G01X309880Y-567182D01*
G01X316230Y-573532D01*
G01X319278Y-579882D01*
G01X322580Y-589280D01*
G01X322580Y-605282D01*
G01X319278Y-614680D01*
G01X316230Y-621030D01*
G01X309880Y-627380D01*
G01X303530Y-630682D01*
G01X290830Y-630682D01*
G01X284480Y-627380D01*
G01X278130Y-621030D01*
G01X274828Y-614680D01*
G01X274828Y-605282D01*
G01X290830Y-605282D02*
G01X274828Y-605282D01*
G01X244348Y-563880D02*
G01X244348Y-630682D01*
G01X244348Y-563880D02*
G01X199898Y-630682D01*
G01X199898Y-563880D02*
G01X199898Y-630682D01*
G01X169418Y-563880D02*
G01X169418Y-630682D01*
G01X169418Y-563880D02*
G01X147066Y-563880D01*
G01X137668Y-567182D01*
G01X131318Y-573532D01*
G01X128016Y-579882D01*
G01X124968Y-589280D01*
G01X124968Y-605282D01*
G01X128016Y-614680D01*
G01X131318Y-621030D01*
G01X137668Y-627380D01*
G01X147066Y-630682D01*
G01X169418Y-630682D01*
G01X335280Y-309880D02*
G01X335280Y-376682D01*
G01X335280Y-309880D02*
G01X306578Y-309880D01*
G01X297180Y-313182D01*
G01X293878Y-316230D01*
G01X290830Y-322580D01*
G01X290830Y-332232D01*
G01X293878Y-338582D01*
G01X297180Y-341630D01*
G01X306578Y-344932D01*
G01X335280Y-344932D01*
G01X260350Y-309880D02*
G01X260350Y-376682D01*
G01X260350Y-309880D02*
G01X231648Y-309880D01*
G01X222250Y-313182D01*
G01X218948Y-316230D01*
G01X215900Y-322580D01*
G01X215900Y-328930D01*
G01X218948Y-335280D01*
G01X222250Y-338582D01*
G01X231648Y-341630D01*
G01X260350Y-341630D02*
G01X231648Y-341630D01*
G01X222250Y-344932D01*
G01X218948Y-347980D01*
G01X215900Y-354330D01*
G01X215900Y-363982D01*
G01X218948Y-370332D01*
G01X222250Y-373380D01*
G01X231648Y-376682D01*
G01X260350Y-376682D01*
G01X185420Y-322580D02*
G01X179070Y-319532D01*
G01X169418Y-309880D01*
G01X169418Y-376682D01*
G01X100838Y-309880D02*
G01X132588Y-309880D01*
G01X135636Y-338582D01*
G01X132588Y-335280D01*
G01X122936Y-332232D01*
G01X113538Y-332232D01*
G01X103886Y-335280D01*
G01X97536Y-341630D01*
G01X94488Y-351282D01*
G01X94488Y-357632D01*
G01X97536Y-367030D01*
G01X103886Y-373380D01*
G01X113538Y-376682D01*
G01X122936Y-376682D01*
G01X132588Y-373380D01*
G01X135636Y-370332D01*
G01X138938Y-363982D01*
G01X335280Y-436880D02*
G01X335280Y-503682D01*
G01X335280Y-436880D02*
G01X306578Y-436880D01*
G01X297180Y-440182D01*
G01X293878Y-443230D01*
G01X290830Y-449580D01*
G01X290830Y-459232D01*
G01X293878Y-465582D01*
G01X297180Y-468630D01*
G01X306578Y-471932D01*
G01X335280Y-471932D01*
G01X260350Y-436880D02*
G01X260350Y-503682D01*
G01X260350Y-436880D02*
G01X231648Y-436880D01*
G01X222250Y-440182D01*
G01X218948Y-443230D01*
G01X215900Y-449580D01*
G01X215900Y-455930D01*
G01X218948Y-462280D01*
G01X222250Y-465582D01*
G01X231648Y-468630D01*
G01X260350Y-468630D02*
G01X231648Y-468630D01*
G01X222250Y-471932D01*
G01X218948Y-474980D01*
G01X215900Y-481330D01*
G01X215900Y-490982D01*
G01X218948Y-497332D01*
G01X222250Y-500380D01*
G01X231648Y-503682D01*
G01X260350Y-503682D01*
G01X185420Y-449580D02*
G01X179070Y-446532D01*
G01X169418Y-436880D01*
G01X169418Y-503682D01*
G01X107188Y-436880D02*
G01X138938Y-481330D01*
G01X91186Y-481330D01*
G01X107188Y-436880D02*
G01X107188Y-503682D01*
G01X763778Y1255268D02*
G01X763778Y1198118D01*
G01X792480Y1226820D02*
G01X735330Y1226820D01*
G01X1173480Y1214120D02*
G01X1116330Y1214120D01*
G01X300228Y-815340D02*
G01X300228Y-882142D01*
G01X322580Y-815340D02*
G01X278130Y-815340D01*
G01X247650Y-815340D02*
G01X203200Y-882142D01*
G01X203200Y-815340D02*
G01X247650Y-882142D01*
G01X50546Y-918210D02*
G01X56896Y-912114D01*
G01X66040Y-909066D01*
G01X78486Y-909066D01*
G01X87884Y-912114D01*
G01X93980Y-918210D01*
G01X93980Y-924560D01*
G01X90932Y-930656D01*
G01X87884Y-933704D01*
G01X81534Y-936752D01*
G01X62992Y-943102D01*
G01X56896Y-946150D01*
G01X53848Y-949198D01*
G01X50546Y-955548D01*
G01X50546Y-964692D01*
G01X56896Y-971042D01*
G01X66040Y-974090D01*
G01X78486Y-974090D01*
G01X87884Y-971042D01*
G01X93980Y-964692D01*
G01X20320Y-909066D02*
G01X5080Y-974090D01*
G01X-10414Y-909066D02*
G01X5080Y-974090D01*
G01X-10414Y-909066D02*
G01X-25908Y-974090D01*
G01X-41402Y-909066D02*
G01X-25908Y-974090D01*
G01X-71628Y-921512D02*
G01X-77724Y-918210D01*
G01X-86868Y-909066D01*
G01X-86868Y-974090D01*
G01X360680Y-172466D02*
G01X360680Y-237490D01*
G01X360680Y-172466D02*
G01X332740Y-172466D01*
G01X323596Y-175514D01*
G01X320548Y-178562D01*
G01X317246Y-184912D01*
G01X317246Y-191008D01*
G01X320548Y-197104D01*
G01X323596Y-200152D01*
G01X332740Y-203454D01*
G01X360680Y-203454D01*
G01X339090Y-203454D02*
G01X317246Y-237490D01*
G01X243840Y-172466D02*
G01X274828Y-237490D01*
G01X287020Y-172466D02*
G01X243840Y-172466D01*
G01X491998Y383540D02*
G01X495046Y389890D01*
G01X501396Y395986D01*
G01X507492Y399034D01*
G01X519938Y399034D01*
G01X526034Y395986D01*
G01X532384Y389890D01*
G01X535432Y383540D01*
G01X538480Y374396D01*
G01X538480Y358902D01*
G01X535432Y349504D01*
G01X532384Y343408D01*
G01X526034Y337058D01*
G01X519938Y334010D01*
G01X507492Y334010D01*
G01X501396Y337058D01*
G01X495046Y343408D01*
G01X491998Y349504D01*
G01X446532Y399034D02*
G01X455676Y395986D01*
G01X458724Y389890D01*
G01X458724Y383540D01*
G01X455676Y377444D01*
G01X449580Y374396D01*
G01X437134Y371348D01*
G01X427736Y368046D01*
G01X421640Y361950D01*
G01X418592Y355854D01*
G01X418592Y346456D01*
G01X421640Y340360D01*
G01X424688Y337058D01*
G01X434086Y334010D01*
G01X446532Y334010D01*
G01X455676Y337058D01*
G01X458724Y340360D01*
G01X461772Y346456D01*
G01X461772Y355854D01*
G01X458724Y361950D01*
G01X452628Y368046D01*
G01X443230Y371348D01*
G01X431038Y374396D01*
G01X424688Y377444D01*
G01X421640Y383540D01*
G01X421640Y389890D01*
G01X424688Y395986D01*
G01X434086Y399034D01*
G01X446532Y399034D01*
G01X275590Y990854D02*
G01X281686Y984504D01*
G01X284734Y975360D01*
G01X284734Y962914D01*
G01X281686Y953516D01*
G01X275590Y947420D01*
G01X269240Y947420D01*
G01X263144Y950468D01*
G01X260096Y953516D01*
G01X257048Y959866D01*
G01X250698Y978408D01*
G01X247650Y984504D01*
G01X244602Y987552D01*
G01X238252Y990854D01*
G01X229108Y990854D01*
G01X222758Y984504D01*
G01X219710Y975360D01*
G01X219710Y962914D01*
G01X222758Y953516D01*
G01X229108Y947420D01*
G01X284734Y1021080D02*
G01X219710Y1036320D01*
G01X284734Y1051814D02*
G01X219710Y1036320D01*
G01X284734Y1051814D02*
G01X219710Y1067308D01*
G01X284734Y1082802D02*
G01X219710Y1067308D01*
G01X269240Y1116076D02*
G01X272288Y1116076D01*
G01X278638Y1119124D01*
G01X281686Y1122172D01*
G01X284734Y1128268D01*
G01X284734Y1140714D01*
G01X281686Y1147064D01*
G01X278638Y1150112D01*
G01X272288Y1153160D01*
G01X266192Y1153160D01*
G01X260096Y1150112D01*
G01X250698Y1143762D01*
G01X219710Y1113028D01*
G01X219710Y1156208D01*
G01X-1277366Y-474980D02*
G01X-1323848Y-474980D01*
G01X-1332992Y-471932D01*
G01X-1339342Y-465582D01*
G01X-1342390Y-456438D01*
G01X-1342390Y-450088D01*
G01X-1339342Y-440944D01*
G01X-1332992Y-434848D01*
G01X-1323848Y-431546D01*
G01X-1277366Y-431546D01*
G01X-1277366Y-370586D02*
G01X-1320546Y-401320D01*
G01X-1320546Y-355092D01*
G01X-1277366Y-370586D02*
G01X-1342390Y-370586D01*
G01X-883920Y-274066D02*
G01X-883920Y-339090D01*
G01X-883920Y-339090D02*
G01X-921004Y-339090D01*
G01X-957326Y-274066D02*
G01X-991362Y-274066D01*
G01X-972820Y-298704D01*
G01X-981964Y-298704D01*
G01X-988314Y-301752D01*
G01X-991362Y-305054D01*
G01X-994410Y-314198D01*
G01X-994410Y-320548D01*
G01X-991362Y-329692D01*
G01X-985266Y-336042D01*
G01X-975868Y-339090D01*
G01X-966470Y-339090D01*
G01X-957326Y-336042D01*
G01X-954278Y-332740D01*
G01X-951230Y-326644D01*
G01X-883920Y-375666D02*
G01X-883920Y-440690D01*
G01X-883920Y-375666D02*
G01X-911860Y-375666D01*
G01X-921004Y-378714D01*
G01X-924052Y-381762D01*
G01X-927354Y-388112D01*
G01X-927354Y-394208D01*
G01X-924052Y-400304D01*
G01X-921004Y-403352D01*
G01X-911860Y-406654D01*
G01X-883920Y-406654D01*
G01X-905510Y-406654D02*
G01X-927354Y-440690D01*
G01X-957580Y-388112D02*
G01X-963676Y-384810D01*
G01X-972820Y-375666D01*
G01X-972820Y-440690D01*
G01X-930402Y-492760D02*
G01X-927354Y-486410D01*
G01X-921004Y-480314D01*
G01X-914908Y-477266D01*
G01X-902462Y-477266D01*
G01X-896366Y-480314D01*
G01X-890016Y-486410D01*
G01X-886968Y-492760D01*
G01X-883920Y-501904D01*
G01X-883920Y-517398D01*
G01X-886968Y-526796D01*
G01X-890016Y-532892D01*
G01X-896366Y-539242D01*
G01X-902462Y-542290D01*
G01X-914908Y-542290D01*
G01X-921004Y-539242D01*
G01X-927354Y-532892D01*
G01X-930402Y-526796D01*
G01X-997712Y-486410D02*
G01X-994664Y-480314D01*
G01X-985266Y-477266D01*
G01X-979170Y-477266D01*
G01X-969772Y-480314D01*
G01X-963676Y-489712D01*
G01X-960628Y-504952D01*
G01X-960628Y-520446D01*
G01X-963676Y-532892D01*
G01X-969772Y-539242D01*
G01X-979170Y-542290D01*
G01X-982218Y-542290D01*
G01X-991362Y-539242D01*
G01X-997712Y-532892D01*
G01X-1000760Y-523748D01*
G01X-1000760Y-520446D01*
G01X-997712Y-511302D01*
G01X-991362Y-504952D01*
G01X-982218Y-501904D01*
G01X-979170Y-501904D01*
G01X-969772Y-504952D01*
G01X-963676Y-511302D01*
G01X-960628Y-520446D01*
G01X-795274Y-162560D02*
G01X-792226Y-156210D01*
G01X-785876Y-150114D01*
G01X-779780Y-147066D01*
G01X-767334Y-147066D01*
G01X-761238Y-150114D01*
G01X-754888Y-156210D01*
G01X-751840Y-162560D01*
G01X-748792Y-171704D01*
G01X-748792Y-187198D01*
G01X-751840Y-196596D01*
G01X-754888Y-202692D01*
G01X-761238Y-209042D01*
G01X-767334Y-212090D01*
G01X-779780Y-212090D01*
G01X-785876Y-209042D01*
G01X-792226Y-202692D01*
G01X-795274Y-196596D01*
G01X-828548Y-162560D02*
G01X-828548Y-159512D01*
G01X-831596Y-153162D01*
G01X-834644Y-150114D01*
G01X-840740Y-147066D01*
G01X-853186Y-147066D01*
G01X-859536Y-150114D01*
G01X-862584Y-153162D01*
G01X-865632Y-159512D01*
G01X-865632Y-165608D01*
G01X-862584Y-171704D01*
G01X-856234Y-181102D01*
G01X-825500Y-212090D01*
G01X-868680Y-212090D01*
G01X-693420Y424434D02*
G01X-736854Y359410D01*
G01X-736854Y424434D02*
G01X-693420Y359410D01*
G01X-770128Y408940D02*
G01X-770128Y411988D01*
G01X-773176Y418338D01*
G01X-776224Y421386D01*
G01X-782320Y424434D01*
G01X-794766Y424434D01*
G01X-801116Y421386D01*
G01X-804164Y418338D01*
G01X-807212Y411988D01*
G01X-807212Y405892D01*
G01X-804164Y399796D01*
G01X-797814Y390398D01*
G01X-767080Y359410D01*
G01X-810260Y359410D01*
G01X-502920Y-380746D02*
G01X-502920Y-445770D01*
G01X-502920Y-445770D02*
G01X-540004Y-445770D01*
G01X-600964Y-380746D02*
G01X-570230Y-423926D01*
G01X-616458Y-423926D01*
G01X-600964Y-380746D02*
G01X-600964Y-445770D01*
G01X-96520Y-312166D02*
G01X-96520Y-358648D01*
G01X-99568Y-367792D01*
G01X-105918Y-374142D01*
G01X-115062Y-377190D01*
G01X-121412Y-377190D01*
G01X-130556Y-374142D01*
G01X-136652Y-367792D01*
G01X-139954Y-358648D01*
G01X-139954Y-312166D01*
G01X-207264Y-321310D02*
G01X-204216Y-315214D01*
G01X-194818Y-312166D01*
G01X-188722Y-312166D01*
G01X-179324Y-315214D01*
G01X-173228Y-324612D01*
G01X-170180Y-339852D01*
G01X-170180Y-355346D01*
G01X-173228Y-367792D01*
G01X-179324Y-374142D01*
G01X-188722Y-377190D01*
G01X-191770Y-377190D01*
G01X-200914Y-374142D01*
G01X-207264Y-367792D01*
G01X-210312Y-358648D01*
G01X-210312Y-355346D01*
G01X-207264Y-346202D01*
G01X-200914Y-339852D01*
G01X-191770Y-336804D01*
G01X-188722Y-336804D01*
G01X-179324Y-339852D01*
G01X-173228Y-346202D01*
G01X-170180Y-355346D01*
G01X-319755Y-753478D02*
G01X-396446Y-768745D01*
G01X-350467Y-722766D02*
G01X-365734Y-799457D01*
G01X-380641Y-710194D02*
G01X-382616Y-703548D01*
G01X-382616Y-690617D01*
G01X-428595Y-736595D01*
G01X-332455Y618122D02*
G01X-378434Y572143D01*
G01X-378434Y572143D02*
G01X-404656Y598365D01*
G01X-388851Y656916D02*
G01X-390826Y663562D01*
G01X-390826Y676493D01*
G01X-436805Y630514D01*
G01X-41402Y-670560D02*
G01X-38354Y-664210D01*
G01X-32004Y-658114D01*
G01X-25908Y-655066D01*
G01X-13462Y-655066D01*
G01X-7366Y-658114D01*
G01X-1016Y-664210D01*
G01X2032Y-670560D01*
G01X5080Y-679704D01*
G01X5080Y-695198D01*
G01X2032Y-704596D01*
G01X-1016Y-710692D01*
G01X-7366Y-717042D01*
G01X-13462Y-720090D01*
G01X-25908Y-720090D01*
G01X-32004Y-717042D01*
G01X-38354Y-710692D01*
G01X-41402Y-704596D01*
G01X-111760Y-676656D02*
G01X-108712Y-686054D01*
G01X-102362Y-692150D01*
G01X-93218Y-695198D01*
G01X-90170Y-695198D01*
G01X-80772Y-692150D01*
G01X-74676Y-686054D01*
G01X-71628Y-676656D01*
G01X-71628Y-673608D01*
G01X-74676Y-664210D01*
G01X-80772Y-658114D01*
G01X-90170Y-655066D01*
G01X-93218Y-655066D01*
G01X-102362Y-658114D01*
G01X-108712Y-664210D01*
G01X-111760Y-676656D01*
G01X-111760Y-692150D01*
G01X-108712Y-707644D01*
G01X-102362Y-717042D01*
G01X-93218Y-720090D01*
G01X-86868Y-720090D01*
G01X-77724Y-717042D01*
G01X-74676Y-710692D01*
G01X-411433Y792122D02*
G01X-413768Y798767D01*
G01X-413589Y807568D01*
G01X-411433Y814034D01*
G01X-402633Y822834D01*
G01X-396167Y824989D01*
G01X-387366Y825169D01*
G01X-380721Y822834D01*
G01X-372100Y818524D01*
G01X-361144Y807568D01*
G01X-356654Y798767D01*
G01X-354499Y792301D01*
G01X-354499Y783321D01*
G01X-356654Y776855D01*
G01X-365455Y768055D01*
G01X-371920Y765899D01*
G01X-380901Y765899D01*
G01X-387366Y768055D01*
G01X-469985Y755482D02*
G01X-448073Y777394D01*
G01X-426341Y759972D01*
G01X-430651Y759972D01*
G01X-439272Y755662D01*
G01X-445918Y749016D01*
G01X-450408Y740216D01*
G01X-450228Y731415D01*
G01X-445918Y722794D01*
G01X-441428Y718304D01*
G01X-432806Y713993D01*
G01X-424006Y713814D01*
G01X-415205Y718304D01*
G01X-408560Y724949D01*
G01X-404249Y733570D01*
G01X-404429Y738061D01*
G01X-406584Y744526D01*
G01X-7620Y-769366D02*
G01X-7620Y-834390D01*
G01X-7620Y-769366D02*
G01X-35560Y-769366D01*
G01X-44704Y-772414D01*
G01X-47752Y-775462D01*
G01X-51054Y-781812D01*
G01X-51054Y-787908D01*
G01X-47752Y-794004D01*
G01X-44704Y-797052D01*
G01X-35560Y-800354D01*
G01X-7620Y-800354D01*
G01X-29210Y-800354D02*
G01X-51054Y-834390D01*
G01X-96520Y-769366D02*
G01X-87376Y-772414D01*
G01X-84328Y-778510D01*
G01X-84328Y-784860D01*
G01X-87376Y-790956D01*
G01X-93472Y-794004D01*
G01X-105918Y-797052D01*
G01X-115316Y-800354D01*
G01X-121412Y-806450D01*
G01X-124460Y-812546D01*
G01X-124460Y-821944D01*
G01X-121412Y-828040D01*
G01X-118364Y-831342D01*
G01X-108966Y-834390D01*
G01X-96520Y-834390D01*
G01X-87376Y-831342D01*
G01X-84328Y-828040D01*
G01X-81280Y-821944D01*
G01X-81280Y-812546D01*
G01X-84328Y-806450D01*
G01X-90424Y-800354D01*
G01X-99822Y-797052D01*
G01X-112014Y-794004D01*
G01X-118364Y-790956D01*
G01X-121412Y-784860D01*
G01X-121412Y-778510D01*
G01X-118364Y-772414D01*
G01X-108966Y-769366D01*
G01X-96520Y-769366D01*
G01X297180Y-1277366D02*
G01X297180Y-1342390D01*
G01X297180Y-1277366D02*
G01X269240Y-1277366D01*
G01X260096Y-1280414D01*
G01X257048Y-1283462D01*
G01X253746Y-1289812D01*
G01X253746Y-1295908D01*
G01X257048Y-1302004D01*
G01X260096Y-1305052D01*
G01X269240Y-1308354D01*
G01X297180Y-1308354D01*
G01X275590Y-1308354D02*
G01X253746Y-1342390D01*
G01X223520Y-1289812D02*
G01X217424Y-1286510D01*
G01X208280Y-1277366D01*
G01X208280Y-1342390D01*
G01X175006Y-1292860D02*
G01X175006Y-1289812D01*
G01X171958Y-1283462D01*
G01X168910Y-1280414D01*
G01X162814Y-1277366D01*
G01X150368Y-1277366D01*
G01X144018Y-1280414D01*
G01X140970Y-1283462D01*
G01X137922Y-1289812D01*
G01X137922Y-1295908D01*
G01X140970Y-1302004D01*
G01X147320Y-1311402D01*
G01X178054Y-1342390D01*
G01X134874Y-1342390D01*
G01X-160378Y614633D02*
G01X-153733Y616968D01*
G01X-144932Y616789D01*
G01X-138466Y614633D01*
G01X-129666Y605833D01*
G01X-127511Y599367D01*
G01X-127331Y590566D01*
G01X-129666Y583921D01*
G01X-133976Y575300D01*
G01X-144932Y564344D01*
G01X-153733Y559854D01*
G01X-160199Y557699D01*
G01X-169179Y557699D01*
G01X-175645Y559854D01*
G01X-184445Y568655D01*
G01X-186601Y575120D01*
G01X-186601Y584101D01*
G01X-184445Y590566D01*
G01X-192528Y668695D02*
G01X-201328Y616430D01*
G01X-234016Y649118D01*
G01X-192528Y668695D02*
G01X-238507Y622716D01*
G01X360934Y-55880D02*
G01X314452Y-55880D01*
G01X305308Y-52832D01*
G01X298958Y-46482D01*
G01X295910Y-37338D01*
G01X295910Y-30988D01*
G01X298958Y-21844D01*
G01X305308Y-15748D01*
G01X314452Y-12446D01*
G01X360934Y-12446D01*
G01X360934Y54864D02*
G01X360934Y23876D01*
G01X333248Y20828D01*
G01X336296Y23876D01*
G01X339344Y33020D01*
G01X339344Y42418D01*
G01X336296Y51816D01*
G01X329946Y57912D01*
G01X320802Y60960D01*
G01X314452Y60960D01*
G01X305308Y57912D01*
G01X298958Y51816D01*
G01X295910Y42418D01*
G01X295910Y33020D01*
G01X298958Y23876D01*
G01X302260Y20828D01*
G01X308356Y17780D01*
G04 Text End*

G04 PolygonModel Start*
G01X440581Y-204160D02*
G01X395028Y-204160D01*
G01X395028Y-204160D02*
G01X395028Y-126040D01*
G01X395028Y-126040D02*
G01X440581Y-126040D01*
G01X473819Y-204160D02*
G01X519372Y-204160D01*
G01X519372Y-204160D02*
G01X519372Y-126040D01*
G01X519372Y-126040D02*
G01X473819Y-126040D01*
G01X280340Y266670D02*
G01X280340Y345679D01*
G01X380060Y345679D02*
G01X380060Y266670D01*
G01X364820Y251430D02*
G01X295580Y251430D01*
G01X280340Y469930D02*
G01X280340Y390921D01*
G01X380060Y390921D02*
G01X380060Y469930D01*
G01X364820Y485170D02*
G01X295580Y485170D01*
G01X380060Y266670D02*
G02X364820Y251430I-15240J0D01*
G01X295580Y251430D02*
G02X280340Y266670I0J15240D01*
G01X380060Y469930D02*
G03X364820Y485170I-15240J0D01*
G01X295580Y485170D02*
G03X280340Y469930I0J-15240D01*
G01X207620Y-1211720D02*
G01X-207620Y-1211720D01*
G01X207620Y-896480D02*
G01X207620Y-965779D01*
G01X207620Y-1211720D02*
G01X207620Y-1142421D01*
G01X-207620Y-1211720D02*
G01X-207620Y-1142421D01*
G01X207620Y-896480D02*
G01X-207620Y-896480D01*
G01X-207620Y-896480D02*
G01X-207620Y-965779D01*
G54D11*
G01X-58362Y1079261D02*
G01X-58362Y1206807D01*
G01X-58362Y1206807D02*
G01X101641Y1206807D01*
G01X101641Y1079261D02*
G01X-58362Y1079261D01*
G01X300233Y1404259D02*
G01X180233Y1404259D01*
G01X300233Y724261D02*
G01X180233Y724261D01*
G01X99637Y789262D02*
G01X99637Y1339263D01*
G01X389633Y1341148D02*
G01X389633Y1340150D01*
G01X389633Y914260D02*
G01X389633Y1064260D01*
G01X-1208349Y-389884D02*
G01X-1208349Y-440684D01*
G01X-1208349Y-440684D02*
G01X-1259149Y-440684D01*
G01X-1259149Y-440684D02*
G01X-1259149Y-389884D01*
G01X-1259149Y-389884D02*
G01X-1208349Y-389884D01*
G01X-1116950Y-309288D02*
G01X-1452148Y-310286D01*
G01X-1436949Y-520285D02*
G01X-1116955Y-520283D01*
G54D10*
G01X-715119Y-356560D02*
G01X-751964Y-356560D01*
G01X-751964Y-356560D02*
G01X-767204Y-341320D01*
G01X-767204Y-341320D02*
G01X-767204Y-293680D01*
G01X-767204Y-293680D02*
G01X-751964Y-278440D01*
G01X-751964Y-278440D02*
G01X-715119Y-278440D01*
G01X-681881Y-356560D02*
G01X-645036Y-356560D01*
G01X-645036Y-356560D02*
G01X-629796Y-341320D01*
G01X-629796Y-341320D02*
G01X-629796Y-293680D01*
G01X-629796Y-293680D02*
G01X-645036Y-278440D01*
G01X-645036Y-278440D02*
G01X-681881Y-278440D01*
G01X-715754Y-454566D02*
G01X-761307Y-454566D01*
G01X-761307Y-454566D02*
G01X-761307Y-376446D01*
G01X-761307Y-376446D02*
G01X-715754Y-376446D01*
G01X-682516Y-454566D02*
G01X-636963Y-454566D01*
G01X-636963Y-454566D02*
G01X-636963Y-376446D01*
G01X-636963Y-376446D02*
G01X-682516Y-376446D01*
G01X-547918Y-574365D02*
G01X-626928Y-574365D01*
G01X-626928Y-474644D02*
G01X-547918Y-474644D01*
G01X-532678Y-489884D02*
G01X-532678Y-559125D01*
G01X-751179Y-574365D02*
G01X-672170Y-574365D01*
G01X-672170Y-474644D02*
G01X-751179Y-474644D01*
G01X-766419Y-489884D02*
G01X-766419Y-559125D01*
G01X-547918Y-474644D02*
G02X-532678Y-489884I0J-15240D01*
G01X-532678Y-559125D02*
G02X-547918Y-574365I-15240J0D01*
G01X-751179Y-474644D02*
G03X-766419Y-489884I0J-15240D01*
G01X-766419Y-559125D02*
G03X-751179Y-574365I15240J0D01*
G01X-631500Y-134496D02*
G01X-631500Y-171341D01*
G01X-709620Y-171341D02*
G01X-709620Y-134496D01*
G01X-694380Y-119256D02*
G01X-646740Y-119256D01*
G01X-631500Y-241424D02*
G01X-631500Y-204579D01*
G01X-709620Y-204579D02*
G01X-709620Y-241424D01*
G01X-694380Y-256664D02*
G01X-646740Y-256664D01*
G01X-709620Y-134496D02*
G02X-694380Y-119256I15240J0D01*
G01X-646740Y-119256D02*
G02X-631500Y-134496I0J-15240D01*
G01X-709620Y-241424D02*
G03X-694380Y-256664I15240J0D01*
G01X-646740Y-256664D02*
G03X-631500Y-241424I0J15240D01*
G01X-403556Y332398D02*
G01X-527843Y456685D01*
G01X-527843Y456685D02*
G01X-725409Y259119D01*
G01X-725409Y259119D02*
G01X-600404Y134114D01*
G01X-600404Y134114D02*
G01X-402838Y331680D01*
G01X-402838Y331680D02*
G01X-420831Y349575D01*
G01X-518630Y-282244D02*
G01X-481784Y-282244D01*
G01X-481784Y-282244D02*
G01X-466544Y-297484D01*
G01X-466544Y-297484D02*
G01X-466544Y-345125D01*
G01X-466544Y-345125D02*
G01X-481784Y-360365D01*
G01X-481784Y-360365D02*
G01X-518630Y-360365D01*
G01X-551868Y-282244D02*
G01X-588713Y-282244D01*
G01X-588713Y-282244D02*
G01X-603953Y-297484D01*
G01X-603953Y-297484D02*
G01X-603953Y-345125D01*
G01X-603953Y-345125D02*
G01X-588713Y-360365D01*
G01X-588713Y-360365D02*
G01X-551868Y-360365D01*
G54D11*
G01X-508001Y105566D02*
G01X-457963Y155604D01*
G01X-508001Y105566D02*
G01X-508001Y155604D01*
G01X-508001Y155604D02*
G01X-457963Y155604D01*
G01X-457905Y-250796D02*
G01X-508001Y-250796D01*
G01X-508001Y-250796D02*
G01X-508001Y-200712D01*
G01X-151677Y155604D02*
G01X-101601Y155604D01*
G01X-101601Y155604D02*
G01X-101601Y105518D01*
G01X-101601Y-200707D02*
G01X-101601Y-250796D01*
G01X-101601Y-250796D02*
G01X-151677Y-250796D01*
G01X-457905Y-250796D02*
G01X-469901Y-250796D01*
G36*
G01X-508001Y105566D02*
G01X-508001Y155604D01*
G01X-457963Y155604D01*
G01X-508001Y105566D01*
G37*
G54D10*
G01X-429389Y-410471D02*
G01X-326296Y-307378D01*
G01X-326296Y-307378D02*
G01X-237391Y-396283D01*
G01X-322165Y-343838D02*
G01X-328810Y-337193D01*
G01X-328810Y-337193D02*
G01X-516677Y-525060D01*
G01X-516677Y-525060D02*
G01X-286244Y-755493D01*
G01X-286244Y-755493D02*
G01X-98377Y-567626D01*
G01X-98377Y-567626D02*
G01X-322165Y-343838D01*
G01X-334024Y302295D02*
G01X-312355Y302171D01*
G01X-312355Y302171D02*
G01X-240482Y374044D01*
G01X-240482Y374044D02*
G01X-242005Y394314D01*
G01X-421610Y573919D02*
G01X-443188Y574142D01*
G01X-443188Y574142D02*
G01X-515061Y502269D01*
G01X-515061Y502269D02*
G01X-513534Y481995D01*
G54D12*
G01X-241863Y394172D02*
G01X-295745Y448054D01*
G01X-513680Y482141D02*
G01X-459798Y428259D01*
G01X-333787Y302248D02*
G01X-387669Y356130D01*
G01X-421756Y574065D02*
G01X-367874Y520183D01*
G54D10*
G01X157604Y-731832D02*
G01X120759Y-731832D01*
G01X120759Y-653712D02*
G01X157604Y-653712D01*
G01X172844Y-668952D02*
G01X172844Y-716592D01*
G01X50676Y-731832D02*
G01X87521Y-731832D01*
G01X87521Y-653712D02*
G01X50676Y-653712D01*
G01X35436Y-668952D02*
G01X35436Y-716592D01*
G01X157604Y-653712D02*
G02X172844Y-668952I0J-15240D01*
G01X172844Y-716592D02*
G02X157604Y-731832I-15240J0D01*
G01X50676Y-653712D02*
G03X35436Y-668952I0J-15240D01*
G01X35436Y-716592D02*
G03X50676Y-731832I15240J0D01*
G01X-444940Y646653D02*
G01X-389072Y702521D01*
G01X-318559Y632008D02*
G01X-374427Y576140D01*
G01X-395980Y576140D02*
G01X-444940Y625100D01*
G01X-301213Y790380D02*
G01X-357081Y734512D01*
G01X-286568Y663999D02*
G01X-230700Y719867D01*
G01X-230700Y741420D02*
G01X-279660Y790380D01*
G01X-374427Y576140D02*
G02X-395980Y576140I-10776J10776D01*
G01X-444940Y625100D02*
G02X-444940Y646653I10776J10776D01*
G01X-230700Y719867D02*
G03X-230700Y741420I-10776J10776D01*
G01X-279660Y790380D02*
G03X-301213Y790380I-10776J-10776D01*
G01X83528Y-840405D02*
G01X37976Y-840405D01*
G01X37976Y-840405D02*
G01X37976Y-762284D01*
G01X37976Y-762284D02*
G01X83528Y-762284D01*
G01X116766Y-840405D02*
G01X162319Y-840405D01*
G01X162319Y-840405D02*
G01X162319Y-762284D01*
G01X162319Y-762284D02*
G01X116766Y-762284D01*
G01X37140Y-1291481D02*
G01X37140Y-1245928D01*
G01X37140Y-1245928D02*
G01X115260Y-1245928D01*
G01X115260Y-1245928D02*
G01X115260Y-1291481D01*
G01X37140Y-1324719D02*
G01X37140Y-1370272D01*
G01X37140Y-1370272D02*
G01X115260Y-1370272D01*
G01X115260Y-1370272D02*
G01X115260Y-1324719D01*
G01X-352891Y549229D02*
G01X-317535Y513873D01*
G01X-303934Y619742D02*
G01X-352894Y570781D01*
G01X-247024Y584385D02*
G01X-282380Y619740D01*
G01X-180511Y517570D02*
G01X-215866Y552925D01*
G01X-286374Y482417D02*
G01X-251019Y447062D01*
G01X-229468Y447057D02*
G01X-180506Y496019D01*
G01X-251020Y447060D02*
G03X-229468Y447060I10776J10776D01*
G01X-180508Y496021D02*
G03X-180508Y517573I-10776J10776D01*
G01X-282380Y619740D02*
G03X-303932Y619740I-10776J-10776D01*
G01X-352892Y570779D02*
G03X-352892Y549227I10776J-10776D01*
G54D11*
G01X252730Y165097D02*
G01X392427Y165103D01*
G01X280335Y-126997D02*
G01X364813Y-126997D01*
G01X233677Y50797D02*
G01X233677Y-25397D01*

G04 Circle Start*
G01X-81331Y-1054100D02*
G03X81331Y-1054100I81331J0D01*
G03X-81331Y-1054100I-81331J0D01*
G54D13*
G01X-479909Y193704D02*
G03X-459894Y193704I10008J0D01*
G03X-479909Y193704I-10008J0D01*
G54D14*
G01X508559Y108722D02*
G03X538582Y108722I15011J0D01*
G03X508559Y108722I-15011J0D01*
G04 Circle End*

M02*

