G04 Layer: DrillDrawingLayer*
G04 EasyEDA Pro v3.2.121, 2026-04-28 17:19:32*
G04 Gerber Generator version 0.3*
G04 Scale: 100 percent, Rotated: No, Reflected: No*
G04 Dimensions in millimeters*
G04 Leading zeros omitted, absolute positions, 4 integers and 5 decimals*
G04 Generated by one-click*
%FSLAX45Y45*%
%MOMM*%
%AMIconRect*4,1,4,0.28,-0.28,-0.28,-0.28,-0.28,0.28,0.28,0.28,0.28,-0.28,0*4,0,4,0.233333,-0.233333,0.233333,0.233333,-0.233333,0.233333,-0.233333,-0.233333,0.233333,-0.233333,0*%
%AMIconTriangle*4,1,3,-0.339593,0.240473,0.339593,0.240473,0,-0.37884,-0.339593,0.240473,0*4,0,3,-0.265673,0.19404,0,-0.27342,0.266233,0.19404,-0.265673,0.19404,0*%
%AMIconStar6*4,1,12,0.12068,0.20888,0.298527,0.172713,0.241313,0,0.298527,-0.17206,0.12068,-0.208227,0,-0.344073,-0.120073,-0.208227,-0.298573,-0.17206,-0.240707,0,-0.298573,0.17206,-0.120073,0.20888,0,0.344073,0.12068,0.20888,0*4,0,12,-0.000467,0.273467,-0.090067,0.171733,-0.237533,0.136733,-0.193667,-0.007467,-0.237533,-0.1372,-0.090067,-0.171733,-0.000467,-0.273933,0.090067,-0.171733,0.237533,-0.1372,0.194133,0.007,0.237533,0.1372,0.090067,0.171267,-0.000467,0.273467,0*%
%ADD10IconRect*%
%ADD11C,0.616X0.522667*%
%ADD12IconTriangle*%
%ADD13IconStar6*%
%ADD14C,0.2032*%
%ADD15C,0.254*%
G75*


G04 Drill Drawing Start*
G54D10*
G01X-669320Y663059D03*
G54D11*
G01X953501Y1676400D03*
G01X1078499Y1676400D03*
G54D12*
G01X239624Y1214272D03*
G01X239624Y914273D03*
G54D13*
G01X-838200Y-1849023D03*
G01X-838200Y-1446091D03*
G01X-838200Y-1181100D03*
G01X-838200Y-956733D03*
G01X-838200Y-732367D03*
G01X-838200Y-508000D03*
G01X-838200Y-316738D03*
G01X-838200Y-62738D03*
G01X-838200Y191262D03*
G01X-838200Y445262D03*
G01X-838200Y787400D03*
G01X-838200Y990600D03*
G01X-838200Y1193800D03*
G01X-787400Y1292403D03*
G01X-736600Y1397000D03*
G01X-635000Y990600D03*
G01X-635000Y1194135D03*
G01X-634000Y112092D03*
G01X-612140Y-88900D03*
G01X-596900Y-1083733D03*
G01X-596900Y-956733D03*
G01X-571620Y-1308100D03*
G01X-520700Y-241300D03*
G01X-482600Y-673100D03*
G01X-456037Y790380D03*
G01X-431800Y-1849023D03*
G01X-431800Y-1447800D03*
G01X-391169Y-133956D03*
G01X-391169Y-47596D03*
G01X-391169Y38764D03*
G01X-371517Y1671705D03*
G01X-368300Y-1079500D03*
G01X-368300Y-956733D03*
G01X-304809Y-133956D03*
G01X-304801Y-47596D03*
G01X-304800Y38764D03*
G01X-266700Y1828800D03*
G01X-262038Y1599417D03*
G01X-254120Y-1308100D03*
G01X-218449Y-133956D03*
G01X-218449Y-47596D03*
G01X-218449Y38764D03*
G01X-159405Y424795D03*
G01X-152400Y-1485900D03*
G01X-152400Y-698500D03*
G01X-152400Y889000D03*
G01X-150899Y1195780D03*
G01X-63500Y-292100D03*
G01X-50800Y-1485900D03*
G01X-49408Y1670687D03*
G01X0Y114300D03*
G01X27940Y33020D03*
G01X38100Y-1485900D03*
G01X49803Y1599417D03*
G01X50355Y583755D03*
G01X54252Y328846D03*
G01X76200Y-431800D03*
G01X99060Y-86054D03*
G01X101600Y1193800D03*
G01X105235Y892073D03*
G01X139700Y-1485900D03*
G01X152400Y546100D03*
G01X196885Y-349285D03*
G01X213360Y312420D03*
G01X220980Y454660D03*
G01X241300Y1828800D03*
G01X317500Y-1854200D03*
G01X317500Y-1511300D03*
G01X329545Y-795675D03*
G01X330200Y-598364D03*
G01X330200Y-474980D03*
G01X330200Y-342900D03*
G01X431800Y190500D03*
G01X444500Y-1229528D03*
G01X444500Y-1016000D03*
G01X464820Y1043940D03*
G01X533400Y1562100D03*
G01X565150Y-1854200D03*
G01X565247Y-1511300D03*
G01X660400Y1181100D03*
G01X749300Y1828800D03*
G01X812800Y-1854200D03*
G01X812800Y-1181100D03*
G01X812995Y-1511300D03*
G01X962025Y1181100D03*
G01X962025Y1397000D03*
G01X1054100Y-1181100D03*
G01X1060450Y-1854200D03*
G01X1060742Y-1511300D03*
G01X1070317Y1828800D03*
G01X1263650Y1181100D03*
G01X1305108Y-1181100D03*
G01X1308100Y-1854200D03*
G01X1308489Y-1511300D03*
G01X1398091Y1828800D03*
G01X1565275Y1181100D03*
G01X1625161Y-1181100D03*
G01X1854200Y-1181100D03*
G01X1866900Y1181100D03*
G01X1866900Y1397000D03*
G04 Drill Drawing End*

G04 Text Start*
G54D14*
G01X4241518Y1720384D02*
G01X4241518Y1600242D01*
G01X4241518Y1720384D02*
G01X4287238Y1600242D01*
G01X4332958Y1720384D02*
G01X4287238Y1600242D01*
G01X4332958Y1720384D02*
G01X4332958Y1600242D01*
G01X4449290Y1680252D02*
G01X4449290Y1600242D01*
G01X4449290Y1663234D02*
G01X4437860Y1674664D01*
G01X4426430Y1680252D01*
G01X4409412Y1680252D01*
G01X4397982Y1674664D01*
G01X4386552Y1663234D01*
G01X4380710Y1645962D01*
G01X4380710Y1634532D01*
G01X4386552Y1617514D01*
G01X4397982Y1606084D01*
G01X4409412Y1600242D01*
G01X4426430Y1600242D01*
G01X4437860Y1606084D01*
G01X4449290Y1617514D01*
G01X4497042Y1680252D02*
G01X4497042Y1600242D01*
G01X4497042Y1645962D02*
G01X4502884Y1663234D01*
G01X4514314Y1674664D01*
G01X4525744Y1680252D01*
G01X4542762Y1680252D01*
G01X4590514Y1720384D02*
G01X4590514Y1600242D01*
G01X4647664Y1680252D02*
G01X4590514Y1623102D01*
G01X4613374Y1645962D02*
G01X4653506Y1600242D01*
G01X5778798Y1691682D02*
G01X5772956Y1703112D01*
G01X5761526Y1714542D01*
G01X5750096Y1720384D01*
G01X5727236Y1720384D01*
G01X5715806Y1714542D01*
G01X5704376Y1703112D01*
G01X5698788Y1691682D01*
G01X5692946Y1674664D01*
G01X5692946Y1645962D01*
G01X5698788Y1628944D01*
G01X5704376Y1617514D01*
G01X5715806Y1606084D01*
G01X5727236Y1600242D01*
G01X5750096Y1600242D01*
G01X5761526Y1606084D01*
G01X5772956Y1617514D01*
G01X5778798Y1628944D01*
G01X5855252Y1680252D02*
G01X5843822Y1674664D01*
G01X5832392Y1663234D01*
G01X5826550Y1645962D01*
G01X5826550Y1634532D01*
G01X5832392Y1617514D01*
G01X5843822Y1606084D01*
G01X5855252Y1600242D01*
G01X5872270Y1600242D01*
G01X5883700Y1606084D01*
G01X5895130Y1617514D01*
G01X5900972Y1634532D01*
G01X5900972Y1645962D01*
G01X5895130Y1663234D01*
G01X5883700Y1674664D01*
G01X5872270Y1680252D01*
G01X5855252Y1680252D01*
G01X5948724Y1680252D02*
G01X5948724Y1623102D01*
G01X5954566Y1606084D01*
G01X5965996Y1600242D01*
G01X5983014Y1600242D01*
G01X5994444Y1606084D01*
G01X6011716Y1623102D01*
G01X6011716Y1680252D02*
G01X6011716Y1600242D01*
G01X6059468Y1680252D02*
G01X6059468Y1600242D01*
G01X6059468Y1657392D02*
G01X6076740Y1674664D01*
G01X6088170Y1680252D01*
G01X6105188Y1680252D01*
G01X6116618Y1674664D01*
G01X6122460Y1657392D01*
G01X6122460Y1600242D01*
G01X6187484Y1720384D02*
G01X6187484Y1623102D01*
G01X6193072Y1606084D01*
G01X6204502Y1600242D01*
G01X6215932Y1600242D01*
G01X6170212Y1680252D02*
G01X6210344Y1680252D01*
G01X7187119Y1703112D02*
G01X7175689Y1714542D01*
G01X7158671Y1720384D01*
G01X7135811Y1720384D01*
G01X7118539Y1714542D01*
G01X7107109Y1703112D01*
G01X7107109Y1691682D01*
G01X7112951Y1680252D01*
G01X7118539Y1674664D01*
G01X7129969Y1668822D01*
G01X7164259Y1657392D01*
G01X7175689Y1651804D01*
G01X7181531Y1645962D01*
G01X7187119Y1634532D01*
G01X7187119Y1617514D01*
G01X7175689Y1606084D01*
G01X7158671Y1600242D01*
G01X7135811Y1600242D01*
G01X7118539Y1606084D01*
G01X7107109Y1617514D01*
G01X7234871Y1720384D02*
G01X7240713Y1714542D01*
G01X7246301Y1720384D01*
G01X7240713Y1725972D01*
G01X7234871Y1720384D01*
G01X7240713Y1680252D02*
G01X7240713Y1600242D01*
G01X7357045Y1680252D02*
G01X7294053Y1600242D01*
G01X7294053Y1680252D02*
G01X7357045Y1680252D01*
G01X7294053Y1600242D02*
G01X7357045Y1600242D01*
G01X7404797Y1645962D02*
G01X7473377Y1645962D01*
G01X7473377Y1657392D01*
G01X7467789Y1668822D01*
G01X7461947Y1674664D01*
G01X7450517Y1680252D01*
G01X7433499Y1680252D01*
G01X7422069Y1674664D01*
G01X7410639Y1663234D01*
G01X7404797Y1645962D01*
G01X7404797Y1634532D01*
G01X7410639Y1617514D01*
G01X7422069Y1606084D01*
G01X7433499Y1600242D01*
G01X7450517Y1600242D01*
G01X7461947Y1606084D01*
G01X7473377Y1617514D01*
G01X10978215Y1720384D02*
G01X10978215Y1600242D01*
G01X10978215Y1720384D02*
G01X11029777Y1720384D01*
G01X11046795Y1714542D01*
G01X11052637Y1708954D01*
G01X11058225Y1697524D01*
G01X11058225Y1680252D01*
G01X11052637Y1668822D01*
G01X11046795Y1663234D01*
G01X11029777Y1657392D01*
G01X10978215Y1657392D01*
G01X11105977Y1720384D02*
G01X11105977Y1600242D01*
G01X11222309Y1680252D02*
G01X11222309Y1600242D01*
G01X11222309Y1663234D02*
G01X11210879Y1674664D01*
G01X11199449Y1680252D01*
G01X11182431Y1680252D01*
G01X11171001Y1674664D01*
G01X11159571Y1663234D01*
G01X11153729Y1645962D01*
G01X11153729Y1634532D01*
G01X11159571Y1617514D01*
G01X11171001Y1606084D01*
G01X11182431Y1600242D01*
G01X11199449Y1600242D01*
G01X11210879Y1606084D01*
G01X11222309Y1617514D01*
G01X11287333Y1720384D02*
G01X11287333Y1623102D01*
G01X11292921Y1606084D01*
G01X11304351Y1600242D01*
G01X11315781Y1600242D01*
G01X11270061Y1680252D02*
G01X11310193Y1680252D01*
G01X11363533Y1645962D02*
G01X11432113Y1645962D01*
G01X11432113Y1657392D01*
G01X11426525Y1668822D01*
G01X11420683Y1674664D01*
G01X11409253Y1680252D01*
G01X11392235Y1680252D01*
G01X11380805Y1674664D01*
G01X11369375Y1663234D01*
G01X11363533Y1645962D01*
G01X11363533Y1634532D01*
G01X11369375Y1617514D01*
G01X11380805Y1606084D01*
G01X11392235Y1600242D01*
G01X11409253Y1600242D01*
G01X11420683Y1606084D01*
G01X11432113Y1617514D01*
G01X11548445Y1720384D02*
G01X11548445Y1600242D01*
G01X11548445Y1663234D02*
G01X11537015Y1674664D01*
G01X11525585Y1680252D01*
G01X11508567Y1680252D01*
G01X11497137Y1674664D01*
G01X11485707Y1663234D01*
G01X11479865Y1645962D01*
G01X11479865Y1634532D01*
G01X11485707Y1617514D01*
G01X11497137Y1606084D01*
G01X11508567Y1600242D01*
G01X11525585Y1600242D01*
G01X11537015Y1606084D01*
G01X11548445Y1617514D01*
G01X12519632Y1703112D02*
G01X12508202Y1714542D01*
G01X12491184Y1720384D01*
G01X12468324Y1720384D01*
G01X12451052Y1714542D01*
G01X12439622Y1703112D01*
G01X12439622Y1691682D01*
G01X12445464Y1680252D01*
G01X12451052Y1674664D01*
G01X12462482Y1668822D01*
G01X12496772Y1657392D01*
G01X12508202Y1651804D01*
G01X12514044Y1645962D01*
G01X12519632Y1634532D01*
G01X12519632Y1617514D01*
G01X12508202Y1606084D01*
G01X12491184Y1600242D01*
G01X12468324Y1600242D01*
G01X12451052Y1606084D01*
G01X12439622Y1617514D01*
G01X12567384Y1720384D02*
G01X12567384Y1600242D01*
G01X12567384Y1657392D02*
G01X12584656Y1674664D01*
G01X12596086Y1680252D01*
G01X12613104Y1680252D01*
G01X12624534Y1674664D01*
G01X12630376Y1657392D01*
G01X12630376Y1600242D01*
G01X12746708Y1680252D02*
G01X12746708Y1600242D01*
G01X12746708Y1663234D02*
G01X12735278Y1674664D01*
G01X12723848Y1680252D01*
G01X12706830Y1680252D01*
G01X12695400Y1674664D01*
G01X12683970Y1663234D01*
G01X12678128Y1645962D01*
G01X12678128Y1634532D01*
G01X12683970Y1617514D01*
G01X12695400Y1606084D01*
G01X12706830Y1600242D01*
G01X12723848Y1600242D01*
G01X12735278Y1606084D01*
G01X12746708Y1617514D01*
G01X12794460Y1680252D02*
G01X12794460Y1560364D01*
G01X12794460Y1663234D02*
G01X12805890Y1674664D01*
G01X12817320Y1680252D01*
G01X12834592Y1680252D01*
G01X12846022Y1674664D01*
G01X12857452Y1663234D01*
G01X12863040Y1645962D01*
G01X12863040Y1634532D01*
G01X12857452Y1617514D01*
G01X12846022Y1606084D01*
G01X12834592Y1600242D01*
G01X12817320Y1600242D01*
G01X12805890Y1606084D01*
G01X12794460Y1617514D01*
G01X12910792Y1645962D02*
G01X12979372Y1645962D01*
G01X12979372Y1657392D01*
G01X12973784Y1668822D01*
G01X12967942Y1674664D01*
G01X12956512Y1680252D01*
G01X12939494Y1680252D01*
G01X12928064Y1674664D01*
G01X12916634Y1663234D01*
G01X12910792Y1645962D01*
G01X12910792Y1634532D01*
G01X12916634Y1617514D01*
G01X12928064Y1606084D01*
G01X12939494Y1600242D01*
G01X12956512Y1600242D01*
G01X12967942Y1606084D01*
G01X12979372Y1617514D01*
G01X13870803Y1720384D02*
G01X13916523Y1600242D01*
G01X13962243Y1720384D02*
G01X13916523Y1600242D01*
G01X14009995Y1720384D02*
G01X14015837Y1714542D01*
G01X14021425Y1720384D01*
G01X14015837Y1725972D01*
G01X14009995Y1720384D01*
G01X14015837Y1680252D02*
G01X14015837Y1600242D01*
G01X14137757Y1680252D02*
G01X14137757Y1600242D01*
G01X14137757Y1663234D02*
G01X14126327Y1674664D01*
G01X14114897Y1680252D01*
G01X14097879Y1680252D01*
G01X14086449Y1674664D01*
G01X14075019Y1663234D01*
G01X14069177Y1645962D01*
G01X14069177Y1634532D01*
G01X14075019Y1617514D01*
G01X14086449Y1606084D01*
G01X14097879Y1600242D01*
G01X14114897Y1600242D01*
G01X14126327Y1606084D01*
G01X14137757Y1617514D01*
G01X14288379Y1743244D02*
G01X14185509Y1560364D01*
G01X14336131Y1720384D02*
G01X14336131Y1600242D01*
G01X14336131Y1720384D02*
G01X14387693Y1720384D01*
G01X14404711Y1714542D01*
G01X14410553Y1708954D01*
G01X14416141Y1697524D01*
G01X14416141Y1680252D01*
G01X14410553Y1668822D01*
G01X14404711Y1663234D01*
G01X14387693Y1657392D01*
G01X14336131Y1657392D01*
G01X14532473Y1680252D02*
G01X14532473Y1600242D01*
G01X14532473Y1663234D02*
G01X14521043Y1674664D01*
G01X14509613Y1680252D01*
G01X14492595Y1680252D01*
G01X14481165Y1674664D01*
G01X14469735Y1663234D01*
G01X14463893Y1645962D01*
G01X14463893Y1634532D01*
G01X14469735Y1617514D01*
G01X14481165Y1606084D01*
G01X14492595Y1600242D01*
G01X14509613Y1600242D01*
G01X14521043Y1606084D01*
G01X14532473Y1617514D01*
G01X14648805Y1720384D02*
G01X14648805Y1600242D01*
G01X14648805Y1663234D02*
G01X14637375Y1674664D01*
G01X14625945Y1680252D01*
G01X14608927Y1680252D01*
G01X14597497Y1674664D01*
G01X14586067Y1663234D01*
G01X14580225Y1645962D01*
G01X14580225Y1634532D01*
G01X14586067Y1617514D01*
G01X14597497Y1606084D01*
G01X14608927Y1600242D01*
G01X14625945Y1600242D01*
G01X14637375Y1606084D01*
G01X14648805Y1617514D01*
G01X15539982Y1720384D02*
G01X15539982Y1600242D01*
G01X15539982Y1720384D02*
G01X15591544Y1720384D01*
G01X15608562Y1714542D01*
G01X15614404Y1708954D01*
G01X15619992Y1697524D01*
G01X15619992Y1680252D01*
G01X15614404Y1668822D01*
G01X15608562Y1663234D01*
G01X15591544Y1657392D01*
G01X15539982Y1657392D01*
G01X15736324Y1680252D02*
G01X15736324Y1600242D01*
G01X15736324Y1663234D02*
G01X15724894Y1674664D01*
G01X15713464Y1680252D01*
G01X15696446Y1680252D01*
G01X15685016Y1674664D01*
G01X15673586Y1663234D01*
G01X15667744Y1645962D01*
G01X15667744Y1634532D01*
G01X15673586Y1617514D01*
G01X15685016Y1606084D01*
G01X15696446Y1600242D01*
G01X15713464Y1600242D01*
G01X15724894Y1606084D01*
G01X15736324Y1617514D01*
G01X15852656Y1720384D02*
G01X15852656Y1600242D01*
G01X15852656Y1663234D02*
G01X15841226Y1674664D01*
G01X15829796Y1680252D01*
G01X15812778Y1680252D01*
G01X15801348Y1674664D01*
G01X15789918Y1663234D01*
G01X15784076Y1645962D01*
G01X15784076Y1634532D01*
G01X15789918Y1617514D01*
G01X15801348Y1606084D01*
G01X15812778Y1600242D01*
G01X15829796Y1600242D01*
G01X15841226Y1606084D01*
G01X15852656Y1617514D01*
G01X16108434Y1703112D02*
G01X16097004Y1714542D01*
G01X16079986Y1720384D01*
G01X16057126Y1720384D01*
G01X16039854Y1714542D01*
G01X16028424Y1703112D01*
G01X16028424Y1691682D01*
G01X16034266Y1680252D01*
G01X16039854Y1674664D01*
G01X16051284Y1668822D01*
G01X16085574Y1657392D01*
G01X16097004Y1651804D01*
G01X16102846Y1645962D01*
G01X16108434Y1634532D01*
G01X16108434Y1617514D01*
G01X16097004Y1606084D01*
G01X16079986Y1600242D01*
G01X16057126Y1600242D01*
G01X16039854Y1606084D01*
G01X16028424Y1617514D01*
G01X16156186Y1720384D02*
G01X16156186Y1600242D01*
G01X16156186Y1657392D02*
G01X16173458Y1674664D01*
G01X16184888Y1680252D01*
G01X16201906Y1680252D01*
G01X16213336Y1674664D01*
G01X16219178Y1657392D01*
G01X16219178Y1600242D01*
G01X16335510Y1680252D02*
G01X16335510Y1600242D01*
G01X16335510Y1663234D02*
G01X16324080Y1674664D01*
G01X16312650Y1680252D01*
G01X16295632Y1680252D01*
G01X16284202Y1674664D01*
G01X16272772Y1663234D01*
G01X16266930Y1645962D01*
G01X16266930Y1634532D01*
G01X16272772Y1617514D01*
G01X16284202Y1606084D01*
G01X16295632Y1600242D01*
G01X16312650Y1600242D01*
G01X16324080Y1606084D01*
G01X16335510Y1617514D01*
G01X16383262Y1680252D02*
G01X16383262Y1560364D01*
G01X16383262Y1663234D02*
G01X16394692Y1674664D01*
G01X16406122Y1680252D01*
G01X16423394Y1680252D01*
G01X16434824Y1674664D01*
G01X16446254Y1663234D01*
G01X16451842Y1645962D01*
G01X16451842Y1634532D01*
G01X16446254Y1617514D01*
G01X16434824Y1606084D01*
G01X16423394Y1600242D01*
G01X16406122Y1600242D01*
G01X16394692Y1606084D01*
G01X16383262Y1617514D01*
G01X16499594Y1645962D02*
G01X16568174Y1645962D01*
G01X16568174Y1657392D01*
G01X16562586Y1668822D01*
G01X16556744Y1674664D01*
G01X16545314Y1680252D01*
G01X16528296Y1680252D01*
G01X16516866Y1674664D01*
G01X16505436Y1663234D01*
G01X16499594Y1645962D01*
G01X16499594Y1634532D01*
G01X16505436Y1617514D01*
G01X16516866Y1606084D01*
G01X16528296Y1600242D01*
G01X16545314Y1600242D01*
G01X16556744Y1606084D01*
G01X16568174Y1617514D01*
G01X17459351Y1720384D02*
G01X17459351Y1600242D01*
G01X17459351Y1600242D02*
G01X17527931Y1600242D01*
G01X17644263Y1680252D02*
G01X17644263Y1600242D01*
G01X17644263Y1663234D02*
G01X17632833Y1674664D01*
G01X17621403Y1680252D01*
G01X17604385Y1680252D01*
G01X17592955Y1674664D01*
G01X17581525Y1663234D01*
G01X17575683Y1645962D01*
G01X17575683Y1634532D01*
G01X17581525Y1617514D01*
G01X17592955Y1606084D01*
G01X17604385Y1600242D01*
G01X17621403Y1600242D01*
G01X17632833Y1606084D01*
G01X17644263Y1617514D01*
G01X17697857Y1680252D02*
G01X17732147Y1600242D01*
G01X17766437Y1680252D02*
G01X17732147Y1600242D01*
G01X17720717Y1577382D01*
G01X17709287Y1565952D01*
G01X17697857Y1560364D01*
G01X17692015Y1560364D01*
G01X17814189Y1645962D02*
G01X17882769Y1645962D01*
G01X17882769Y1657392D01*
G01X17877181Y1668822D01*
G01X17871339Y1674664D01*
G01X17859909Y1680252D01*
G01X17842891Y1680252D01*
G01X17831461Y1674664D01*
G01X17820031Y1663234D01*
G01X17814189Y1645962D01*
G01X17814189Y1634532D01*
G01X17820031Y1617514D01*
G01X17831461Y1606084D01*
G01X17842891Y1600242D01*
G01X17859909Y1600242D01*
G01X17871339Y1606084D01*
G01X17882769Y1617514D01*
G01X17930521Y1680252D02*
G01X17930521Y1600242D01*
G01X17930521Y1645962D02*
G01X17936363Y1663234D01*
G01X17947793Y1674664D01*
G01X17959223Y1680252D01*
G01X17976241Y1680252D01*
G01X18152009Y1720384D02*
G01X18152009Y1600242D01*
G01X18152009Y1720384D02*
G01X18203571Y1720384D01*
G01X18220589Y1714542D01*
G01X18226431Y1708954D01*
G01X18232019Y1697524D01*
G01X18232019Y1680252D01*
G01X18226431Y1668822D01*
G01X18220589Y1663234D01*
G01X18203571Y1657392D01*
G01X18152009Y1657392D01*
G01X18348351Y1680252D02*
G01X18348351Y1600242D01*
G01X18348351Y1663234D02*
G01X18336921Y1674664D01*
G01X18325491Y1680252D01*
G01X18308473Y1680252D01*
G01X18297043Y1674664D01*
G01X18285613Y1663234D01*
G01X18279771Y1645962D01*
G01X18279771Y1634532D01*
G01X18285613Y1617514D01*
G01X18297043Y1606084D01*
G01X18308473Y1600242D01*
G01X18325491Y1600242D01*
G01X18336921Y1606084D01*
G01X18348351Y1617514D01*
G01X18396103Y1720384D02*
G01X18401945Y1714542D01*
G01X18407533Y1720384D01*
G01X18401945Y1725972D01*
G01X18396103Y1720384D01*
G01X18401945Y1680252D02*
G01X18401945Y1600242D01*
G01X18455285Y1680252D02*
G01X18455285Y1600242D01*
G01X18455285Y1645962D02*
G01X18461127Y1663234D01*
G01X18472557Y1674664D01*
G01X18483987Y1680252D01*
G01X18501005Y1680252D01*
G01X5692946Y1116953D02*
G01X5704376Y1122541D01*
G01X5721648Y1139813D01*
G01X5721648Y1019671D01*
G01X7181531Y1099681D02*
G01X7175689Y1082663D01*
G01X7164259Y1071233D01*
G01X7147241Y1065391D01*
G01X7141399Y1065391D01*
G01X7124381Y1071233D01*
G01X7112951Y1082663D01*
G01X7107109Y1099681D01*
G01X7107109Y1105523D01*
G01X7112951Y1122541D01*
G01X7124381Y1133971D01*
G01X7141399Y1139813D01*
G01X7147241Y1139813D01*
G01X7164259Y1133971D01*
G01X7175689Y1122541D01*
G01X7181531Y1099681D01*
G01X7181531Y1071233D01*
G01X7175689Y1042531D01*
G01X7164259Y1025513D01*
G01X7147241Y1019671D01*
G01X7135811Y1019671D01*
G01X7118539Y1025513D01*
G01X7112951Y1036943D01*
G01X7257985Y1139813D02*
G01X7240713Y1133971D01*
G01X7235125Y1122541D01*
G01X7235125Y1111111D01*
G01X7240713Y1099681D01*
G01X7252143Y1094093D01*
G01X7275003Y1088251D01*
G01X7292275Y1082663D01*
G01X7303705Y1071233D01*
G01X7309293Y1059803D01*
G01X7309293Y1042531D01*
G01X7303705Y1031101D01*
G01X7297863Y1025513D01*
G01X7280845Y1019671D01*
G01X7257985Y1019671D01*
G01X7240713Y1025513D01*
G01X7235125Y1031101D01*
G01X7229283Y1042531D01*
G01X7229283Y1059803D01*
G01X7235125Y1071233D01*
G01X7246555Y1082663D01*
G01X7263573Y1088251D01*
G01X7286433Y1094093D01*
G01X7297863Y1099681D01*
G01X7303705Y1111111D01*
G01X7303705Y1122541D01*
G01X7297863Y1133971D01*
G01X7280845Y1139813D01*
G01X7257985Y1139813D01*
G01X7362887Y1048373D02*
G01X7357045Y1042531D01*
G01X7362887Y1036943D01*
G01X7368475Y1042531D01*
G01X7362887Y1048373D01*
G01X7473377Y1139813D02*
G01X7416227Y1059803D01*
G01X7502079Y1059803D01*
G01X7473377Y1139813D02*
G01X7473377Y1019671D01*
G01X7549831Y1099681D02*
G01X7549831Y1019671D01*
G01X7549831Y1076821D02*
G01X7567103Y1094093D01*
G01X7578533Y1099681D01*
G01X7595551Y1099681D01*
G01X7606981Y1094093D01*
G01X7612823Y1076821D01*
G01X7612823Y1019671D01*
G01X7612823Y1076821D02*
G01X7629841Y1094093D01*
G01X7641271Y1099681D01*
G01X7658543Y1099681D01*
G01X7669973Y1094093D01*
G01X7675561Y1076821D01*
G01X7675561Y1019671D01*
G01X7723313Y1139813D02*
G01X7729155Y1133971D01*
G01X7734743Y1139813D01*
G01X7729155Y1145401D01*
G01X7723313Y1139813D01*
G01X7729155Y1099681D02*
G01X7729155Y1019671D01*
G01X7782495Y1139813D02*
G01X7782495Y1019671D01*
G01X7870379Y1162673D02*
G01X7858949Y1151243D01*
G01X7847519Y1133971D01*
G01X7836089Y1111111D01*
G01X7830247Y1082663D01*
G01X7830247Y1059803D01*
G01X7836089Y1031101D01*
G01X7847519Y1008241D01*
G01X7858949Y991223D01*
G01X7870379Y979793D01*
G01X7923973Y1111111D02*
G01X7923973Y1116953D01*
G01X7929561Y1128383D01*
G01X7935403Y1133971D01*
G01X7946833Y1139813D01*
G01X7969693Y1139813D01*
G01X7981123Y1133971D01*
G01X7986711Y1128383D01*
G01X7992553Y1116953D01*
G01X7992553Y1105523D01*
G01X7986711Y1094093D01*
G01X7975281Y1076821D01*
G01X7918131Y1019671D01*
G01X7998141Y1019671D01*
G01X8051735Y1048373D02*
G01X8045893Y1042531D01*
G01X8051735Y1036943D01*
G01X8057323Y1042531D01*
G01X8051735Y1048373D01*
G01X8173655Y1139813D02*
G01X8116505Y1139813D01*
G01X8110917Y1088251D01*
G01X8116505Y1094093D01*
G01X8133777Y1099681D01*
G01X8150795Y1099681D01*
G01X8168067Y1094093D01*
G01X8179497Y1082663D01*
G01X8185085Y1065391D01*
G01X8185085Y1053961D01*
G01X8179497Y1036943D01*
G01X8168067Y1025513D01*
G01X8150795Y1019671D01*
G01X8133777Y1019671D01*
G01X8116505Y1025513D01*
G01X8110917Y1031101D01*
G01X8105075Y1042531D01*
G01X8267127Y1139813D02*
G01X8250109Y1133971D01*
G01X8238679Y1116953D01*
G01X8232837Y1088251D01*
G01X8232837Y1071233D01*
G01X8238679Y1042531D01*
G01X8250109Y1025513D01*
G01X8267127Y1019671D01*
G01X8278557Y1019671D01*
G01X8295829Y1025513D01*
G01X8307259Y1042531D01*
G01X8312847Y1071233D01*
G01X8312847Y1088251D01*
G01X8307259Y1116953D01*
G01X8295829Y1133971D01*
G01X8278557Y1139813D01*
G01X8267127Y1139813D01*
G01X8394889Y1139813D02*
G01X8377871Y1133971D01*
G01X8366441Y1116953D01*
G01X8360599Y1088251D01*
G01X8360599Y1071233D01*
G01X8366441Y1042531D01*
G01X8377871Y1025513D01*
G01X8394889Y1019671D01*
G01X8406319Y1019671D01*
G01X8423591Y1025513D01*
G01X8435021Y1042531D01*
G01X8440609Y1071233D01*
G01X8440609Y1088251D01*
G01X8435021Y1116953D01*
G01X8423591Y1133971D01*
G01X8406319Y1139813D01*
G01X8394889Y1139813D01*
G01X8488361Y1099681D02*
G01X8488361Y1019671D01*
G01X8488361Y1076821D02*
G01X8505633Y1094093D01*
G01X8517063Y1099681D01*
G01X8534081Y1099681D01*
G01X8545511Y1094093D01*
G01X8551353Y1076821D01*
G01X8551353Y1019671D01*
G01X8551353Y1076821D02*
G01X8568371Y1094093D01*
G01X8579801Y1099681D01*
G01X8597073Y1099681D01*
G01X8608503Y1094093D01*
G01X8614091Y1076821D01*
G01X8614091Y1019671D01*
G01X8661843Y1099681D02*
G01X8661843Y1019671D01*
G01X8661843Y1076821D02*
G01X8679115Y1094093D01*
G01X8690545Y1099681D01*
G01X8707563Y1099681D01*
G01X8718993Y1094093D01*
G01X8724835Y1076821D01*
G01X8724835Y1019671D01*
G01X8724835Y1076821D02*
G01X8741853Y1094093D01*
G01X8753283Y1099681D01*
G01X8770555Y1099681D01*
G01X8781985Y1094093D01*
G01X8787573Y1076821D01*
G01X8787573Y1019671D01*
G01X8835325Y1162673D02*
G01X8846755Y1151243D01*
G01X8858185Y1133971D01*
G01X8869615Y1111111D01*
G01X8875457Y1082663D01*
G01X8875457Y1059803D01*
G01X8869615Y1031101D01*
G01X8858185Y1008241D01*
G01X8846755Y991223D01*
G01X8835325Y979793D01*
G01X10978215Y1139813D02*
G01X10978215Y1019671D01*
G01X10978215Y1139813D02*
G01X11058225Y1019671D01*
G01X11058225Y1139813D02*
G01X11058225Y1019671D01*
G01X11105977Y1139813D02*
G01X11105977Y1019671D01*
G01X11105977Y1139813D02*
G01X11157539Y1139813D01*
G01X11174557Y1133971D01*
G01X11180399Y1128383D01*
G01X11185987Y1116953D01*
G01X11185987Y1099681D01*
G01X11180399Y1088251D01*
G01X11174557Y1082663D01*
G01X11157539Y1076821D01*
G01X11105977Y1076821D01*
G01X11273871Y1139813D02*
G01X11273871Y1019671D01*
G01X11233739Y1139813D02*
G01X11313749Y1139813D01*
G01X11361501Y1139813D02*
G01X11361501Y1019671D01*
G01X11441511Y1139813D02*
G01X11441511Y1019671D01*
G01X11361501Y1082663D02*
G01X11441511Y1082663D01*
G01X12439622Y1139813D02*
G01X12439622Y1019671D01*
G01X12439622Y1139813D02*
G01X12491184Y1139813D01*
G01X12508202Y1133971D01*
G01X12514044Y1128383D01*
G01X12519632Y1116953D01*
G01X12519632Y1105523D01*
G01X12514044Y1094093D01*
G01X12508202Y1088251D01*
G01X12491184Y1082663D01*
G01X12439622Y1082663D01*
G01X12479754Y1082663D02*
G01X12519632Y1019671D01*
G01X12596086Y1099681D02*
G01X12584656Y1094093D01*
G01X12573226Y1082663D01*
G01X12567384Y1065391D01*
G01X12567384Y1053961D01*
G01X12573226Y1036943D01*
G01X12584656Y1025513D01*
G01X12596086Y1019671D01*
G01X12613104Y1019671D01*
G01X12624534Y1025513D01*
G01X12635964Y1036943D01*
G01X12641806Y1053961D01*
G01X12641806Y1065391D01*
G01X12635964Y1082663D01*
G01X12624534Y1094093D01*
G01X12613104Y1099681D01*
G01X12596086Y1099681D01*
G01X12689558Y1099681D02*
G01X12689558Y1042531D01*
G01X12695400Y1025513D01*
G01X12706830Y1019671D01*
G01X12723848Y1019671D01*
G01X12735278Y1025513D01*
G01X12752550Y1042531D01*
G01X12752550Y1099681D02*
G01X12752550Y1019671D01*
G01X12800302Y1099681D02*
G01X12800302Y1019671D01*
G01X12800302Y1076821D02*
G01X12817574Y1094093D01*
G01X12829004Y1099681D01*
G01X12846022Y1099681D01*
G01X12857452Y1094093D01*
G01X12863294Y1076821D01*
G01X12863294Y1019671D01*
G01X12979626Y1139813D02*
G01X12979626Y1019671D01*
G01X12979626Y1082663D02*
G01X12968196Y1094093D01*
G01X12956766Y1099681D01*
G01X12939748Y1099681D01*
G01X12928318Y1094093D01*
G01X12916888Y1082663D01*
G01X12911046Y1065391D01*
G01X12911046Y1053961D01*
G01X12916888Y1036943D01*
G01X12928318Y1025513D01*
G01X12939748Y1019671D01*
G01X12956766Y1019671D01*
G01X12968196Y1025513D01*
G01X12979626Y1036943D01*
G01X13870803Y1139813D02*
G01X13916523Y1019671D01*
G01X13962243Y1139813D02*
G01X13916523Y1019671D01*
G01X14009995Y1139813D02*
G01X14015837Y1133971D01*
G01X14021425Y1139813D01*
G01X14015837Y1145401D01*
G01X14009995Y1139813D01*
G01X14015837Y1099681D02*
G01X14015837Y1019671D01*
G01X14137757Y1099681D02*
G01X14137757Y1019671D01*
G01X14137757Y1082663D02*
G01X14126327Y1094093D01*
G01X14114897Y1099681D01*
G01X14097879Y1099681D01*
G01X14086449Y1094093D01*
G01X14075019Y1082663D01*
G01X14069177Y1065391D01*
G01X14069177Y1053961D01*
G01X14075019Y1036943D01*
G01X14086449Y1025513D01*
G01X14097879Y1019671D01*
G01X14114897Y1019671D01*
G01X14126327Y1025513D01*
G01X14137757Y1036943D01*
G01X17499483Y1139813D02*
G01X17499483Y1019671D01*
G01X17459351Y1139813D02*
G01X17539361Y1139813D01*
G01X17615815Y1099681D02*
G01X17604385Y1094093D01*
G01X17592955Y1082663D01*
G01X17587113Y1065391D01*
G01X17587113Y1053961D01*
G01X17592955Y1036943D01*
G01X17604385Y1025513D01*
G01X17615815Y1019671D01*
G01X17632833Y1019671D01*
G01X17644263Y1025513D01*
G01X17655693Y1036943D01*
G01X17661535Y1053961D01*
G01X17661535Y1065391D01*
G01X17655693Y1082663D01*
G01X17644263Y1094093D01*
G01X17632833Y1099681D01*
G01X17615815Y1099681D01*
G01X17709287Y1099681D02*
G01X17709287Y979793D01*
G01X17709287Y1082663D02*
G01X17720717Y1094093D01*
G01X17732147Y1099681D01*
G01X17749419Y1099681D01*
G01X17760849Y1094093D01*
G01X17772279Y1082663D01*
G01X17777867Y1065391D01*
G01X17777867Y1053961D01*
G01X17772279Y1036943D01*
G01X17760849Y1025513D01*
G01X17749419Y1019671D01*
G01X17732147Y1019671D01*
G01X17720717Y1025513D01*
G01X17709287Y1036943D01*
G01X17953635Y1139813D02*
G01X17953635Y1019671D01*
G01X17953635Y1019671D02*
G01X18022215Y1019671D01*
G01X18138547Y1099681D02*
G01X18138547Y1019671D01*
G01X18138547Y1082663D02*
G01X18127117Y1094093D01*
G01X18115687Y1099681D01*
G01X18098669Y1099681D01*
G01X18087239Y1094093D01*
G01X18075809Y1082663D01*
G01X18069967Y1065391D01*
G01X18069967Y1053961D01*
G01X18075809Y1036943D01*
G01X18087239Y1025513D01*
G01X18098669Y1019671D01*
G01X18115687Y1019671D01*
G01X18127117Y1025513D01*
G01X18138547Y1036943D01*
G01X18192141Y1099681D02*
G01X18226431Y1019671D01*
G01X18260721Y1099681D02*
G01X18226431Y1019671D01*
G01X18215001Y996811D01*
G01X18203571Y985381D01*
G01X18192141Y979793D01*
G01X18186299Y979793D01*
G01X18308473Y1065391D02*
G01X18377053Y1065391D01*
G01X18377053Y1076821D01*
G01X18371465Y1088251D01*
G01X18365623Y1094093D01*
G01X18354193Y1099681D01*
G01X18337175Y1099681D01*
G01X18325745Y1094093D01*
G01X18314315Y1082663D01*
G01X18308473Y1065391D01*
G01X18308473Y1053961D01*
G01X18314315Y1036943D01*
G01X18325745Y1025513D01*
G01X18337175Y1019671D01*
G01X18354193Y1019671D01*
G01X18365623Y1025513D01*
G01X18377053Y1036943D01*
G01X18424805Y1099681D02*
G01X18424805Y1019671D01*
G01X18424805Y1065391D02*
G01X18430647Y1082663D01*
G01X18442077Y1094093D01*
G01X18453507Y1099681D01*
G01X18470525Y1099681D01*
G01X18518277Y1071233D02*
G01X18621147Y1071233D01*
G01X18668899Y1139813D02*
G01X18668899Y1019671D01*
G01X18668899Y1139813D02*
G01X18720461Y1139813D01*
G01X18737479Y1133971D01*
G01X18743321Y1128383D01*
G01X18748909Y1116953D01*
G01X18748909Y1105523D01*
G01X18743321Y1094093D01*
G01X18737479Y1088251D01*
G01X18720461Y1082663D01*
G01X18668899Y1082663D02*
G01X18720461Y1082663D01*
G01X18737479Y1076821D01*
G01X18743321Y1071233D01*
G01X18748909Y1059803D01*
G01X18748909Y1042531D01*
G01X18743321Y1031101D01*
G01X18737479Y1025513D01*
G01X18720461Y1019671D01*
G01X18668899Y1019671D01*
G01X18825363Y1099681D02*
G01X18813933Y1094093D01*
G01X18802503Y1082663D01*
G01X18796661Y1065391D01*
G01X18796661Y1053961D01*
G01X18802503Y1036943D01*
G01X18813933Y1025513D01*
G01X18825363Y1019671D01*
G01X18842381Y1019671D01*
G01X18853811Y1025513D01*
G01X18865241Y1036943D01*
G01X18871083Y1053961D01*
G01X18871083Y1065391D01*
G01X18865241Y1082663D01*
G01X18853811Y1094093D01*
G01X18842381Y1099681D01*
G01X18825363Y1099681D01*
G01X18936107Y1139813D02*
G01X18936107Y1042531D01*
G01X18941695Y1025513D01*
G01X18953125Y1019671D01*
G01X18964555Y1019671D01*
G01X18918835Y1099681D02*
G01X18958967Y1099681D01*
G01X19029579Y1139813D02*
G01X19029579Y1042531D01*
G01X19035167Y1025513D01*
G01X19046597Y1019671D01*
G01X19058027Y1019671D01*
G01X19012307Y1099681D02*
G01X19052439Y1099681D01*
G01X19134481Y1099681D02*
G01X19123051Y1094093D01*
G01X19111621Y1082663D01*
G01X19105779Y1065391D01*
G01X19105779Y1053961D01*
G01X19111621Y1036943D01*
G01X19123051Y1025513D01*
G01X19134481Y1019671D01*
G01X19151499Y1019671D01*
G01X19162929Y1025513D01*
G01X19174359Y1036943D01*
G01X19180201Y1053961D01*
G01X19180201Y1065391D01*
G01X19174359Y1082663D01*
G01X19162929Y1094093D01*
G01X19151499Y1099681D01*
G01X19134481Y1099681D01*
G01X19227953Y1099681D02*
G01X19227953Y1019671D01*
G01X19227953Y1076821D02*
G01X19245225Y1094093D01*
G01X19256655Y1099681D01*
G01X19273673Y1099681D01*
G01X19285103Y1094093D01*
G01X19290945Y1076821D01*
G01X19290945Y1019671D01*
G01X19290945Y1076821D02*
G01X19307963Y1094093D01*
G01X19319393Y1099681D01*
G01X19336665Y1099681D01*
G01X19348095Y1094093D01*
G01X19353683Y1076821D01*
G01X19353683Y1019671D01*
G01X19529451Y1139813D02*
G01X19529451Y1019671D01*
G01X19529451Y1019671D02*
G01X19598031Y1019671D01*
G01X19714363Y1099681D02*
G01X19714363Y1019671D01*
G01X19714363Y1082663D02*
G01X19702933Y1094093D01*
G01X19691503Y1099681D01*
G01X19674485Y1099681D01*
G01X19663055Y1094093D01*
G01X19651625Y1082663D01*
G01X19645783Y1065391D01*
G01X19645783Y1053961D01*
G01X19651625Y1036943D01*
G01X19663055Y1025513D01*
G01X19674485Y1019671D01*
G01X19691503Y1019671D01*
G01X19702933Y1025513D01*
G01X19714363Y1036943D01*
G01X19767957Y1099681D02*
G01X19802247Y1019671D01*
G01X19836537Y1099681D02*
G01X19802247Y1019671D01*
G01X19790817Y996811D01*
G01X19779387Y985381D01*
G01X19767957Y979793D01*
G01X19762115Y979793D01*
G01X19884289Y1065391D02*
G01X19952869Y1065391D01*
G01X19952869Y1076821D01*
G01X19947281Y1088251D01*
G01X19941439Y1094093D01*
G01X19930009Y1099681D01*
G01X19912991Y1099681D01*
G01X19901561Y1094093D01*
G01X19890131Y1082663D01*
G01X19884289Y1065391D01*
G01X19884289Y1053961D01*
G01X19890131Y1036943D01*
G01X19901561Y1025513D01*
G01X19912991Y1019671D01*
G01X19930009Y1019671D01*
G01X19941439Y1025513D01*
G01X19952869Y1036943D01*
G01X20000621Y1099681D02*
G01X20000621Y1019671D01*
G01X20000621Y1065391D02*
G01X20006463Y1082663D01*
G01X20017893Y1094093D01*
G01X20029323Y1099681D01*
G01X20046341Y1099681D01*
G01X5698788Y530540D02*
G01X5698788Y536382D01*
G01X5704376Y547812D01*
G01X5710218Y553400D01*
G01X5721648Y559242D01*
G01X5744508Y559242D01*
G01X5755938Y553400D01*
G01X5761526Y547812D01*
G01X5767368Y536382D01*
G01X5767368Y524952D01*
G01X5761526Y513522D01*
G01X5750096Y496250D01*
G01X5692946Y439100D01*
G01X5772956Y439100D01*
G01X7112951Y530540D02*
G01X7112951Y536382D01*
G01X7118539Y547812D01*
G01X7124381Y553400D01*
G01X7135811Y559242D01*
G01X7158671Y559242D01*
G01X7170101Y553400D01*
G01X7175689Y547812D01*
G01X7181531Y536382D01*
G01X7181531Y524952D01*
G01X7175689Y513522D01*
G01X7164259Y496250D01*
G01X7107109Y439100D01*
G01X7187119Y439100D01*
G01X7246301Y559242D02*
G01X7309293Y559242D01*
G01X7275003Y513522D01*
G01X7292021Y513522D01*
G01X7303451Y507680D01*
G01X7309293Y502092D01*
G01X7314881Y484820D01*
G01X7314881Y473390D01*
G01X7309293Y456372D01*
G01X7297863Y444942D01*
G01X7280591Y439100D01*
G01X7263573Y439100D01*
G01X7246301Y444942D01*
G01X7240713Y450530D01*
G01X7234871Y461960D01*
G01X7368475Y467802D02*
G01X7362633Y461960D01*
G01X7368475Y456372D01*
G01X7374063Y461960D01*
G01X7368475Y467802D01*
G01X7490395Y541970D02*
G01X7484807Y553400D01*
G01X7467535Y559242D01*
G01X7456105Y559242D01*
G01X7439087Y553400D01*
G01X7427657Y536382D01*
G01X7421815Y507680D01*
G01X7421815Y479232D01*
G01X7427657Y456372D01*
G01X7439087Y444942D01*
G01X7456105Y439100D01*
G01X7461947Y439100D01*
G01X7478965Y444942D01*
G01X7490395Y456372D01*
G01X7496237Y473390D01*
G01X7496237Y479232D01*
G01X7490395Y496250D01*
G01X7478965Y507680D01*
G01X7461947Y513522D01*
G01X7456105Y513522D01*
G01X7439087Y507680D01*
G01X7427657Y496250D01*
G01X7421815Y479232D01*
G01X7543989Y519110D02*
G01X7606981Y439100D01*
G01X7606981Y519110D02*
G01X7543989Y439100D01*
G01X7660575Y530540D02*
G01X7660575Y536382D01*
G01X7666163Y547812D01*
G01X7672005Y553400D01*
G01X7683435Y559242D01*
G01X7706295Y559242D01*
G01X7717725Y553400D01*
G01X7723313Y547812D01*
G01X7729155Y536382D01*
G01X7729155Y524952D01*
G01X7723313Y513522D01*
G01X7711883Y496250D01*
G01X7654733Y439100D01*
G01X7734743Y439100D01*
G01X7793925Y559242D02*
G01X7856917Y559242D01*
G01X7822627Y513522D01*
G01X7839645Y513522D01*
G01X7851075Y507680D01*
G01X7856917Y502092D01*
G01X7862505Y484820D01*
G01X7862505Y473390D01*
G01X7856917Y456372D01*
G01X7845487Y444942D01*
G01X7828215Y439100D01*
G01X7811197Y439100D01*
G01X7793925Y444942D01*
G01X7788337Y450530D01*
G01X7782495Y461960D01*
G01X7916099Y467802D02*
G01X7910257Y461960D01*
G01X7916099Y456372D01*
G01X7921687Y461960D01*
G01X7916099Y467802D01*
G01X8038019Y541970D02*
G01X8032431Y553400D01*
G01X8015159Y559242D01*
G01X8003729Y559242D01*
G01X7986711Y553400D01*
G01X7975281Y536382D01*
G01X7969439Y507680D01*
G01X7969439Y479232D01*
G01X7975281Y456372D01*
G01X7986711Y444942D01*
G01X8003729Y439100D01*
G01X8009571Y439100D01*
G01X8026589Y444942D01*
G01X8038019Y456372D01*
G01X8043861Y473390D01*
G01X8043861Y479232D01*
G01X8038019Y496250D01*
G01X8026589Y507680D01*
G01X8009571Y513522D01*
G01X8003729Y513522D01*
G01X7986711Y507680D01*
G01X7975281Y496250D01*
G01X7969439Y479232D01*
G01X8091613Y519110D02*
G01X8091613Y439100D01*
G01X8091613Y496250D02*
G01X8108885Y513522D01*
G01X8120315Y519110D01*
G01X8137333Y519110D01*
G01X8148763Y513522D01*
G01X8154605Y496250D01*
G01X8154605Y439100D01*
G01X8154605Y496250D02*
G01X8171623Y513522D01*
G01X8183053Y519110D01*
G01X8200325Y519110D01*
G01X8211755Y513522D01*
G01X8217343Y496250D01*
G01X8217343Y439100D01*
G01X8265095Y559242D02*
G01X8270937Y553400D01*
G01X8276525Y559242D01*
G01X8270937Y564830D01*
G01X8265095Y559242D01*
G01X8270937Y519110D02*
G01X8270937Y439100D01*
G01X8324277Y559242D02*
G01X8324277Y439100D01*
G01X8412161Y582102D02*
G01X8400731Y570672D01*
G01X8389301Y553400D01*
G01X8377871Y530540D01*
G01X8372029Y502092D01*
G01X8372029Y479232D01*
G01X8377871Y450530D01*
G01X8389301Y427670D01*
G01X8400731Y410652D01*
G01X8412161Y399222D01*
G01X8494203Y559242D02*
G01X8477185Y553400D01*
G01X8465755Y536382D01*
G01X8459913Y507680D01*
G01X8459913Y490662D01*
G01X8465755Y461960D01*
G01X8477185Y444942D01*
G01X8494203Y439100D01*
G01X8505633Y439100D01*
G01X8522905Y444942D01*
G01X8534335Y461960D01*
G01X8539923Y490662D01*
G01X8539923Y507680D01*
G01X8534335Y536382D01*
G01X8522905Y553400D01*
G01X8505633Y559242D01*
G01X8494203Y559242D01*
G01X8593517Y467802D02*
G01X8587675Y461960D01*
G01X8593517Y456372D01*
G01X8599105Y461960D01*
G01X8593517Y467802D01*
G01X8715437Y541970D02*
G01X8709849Y553400D01*
G01X8692577Y559242D01*
G01X8681147Y559242D01*
G01X8664129Y553400D01*
G01X8652699Y536382D01*
G01X8646857Y507680D01*
G01X8646857Y479232D01*
G01X8652699Y456372D01*
G01X8664129Y444942D01*
G01X8681147Y439100D01*
G01X8686989Y439100D01*
G01X8704007Y444942D01*
G01X8715437Y456372D01*
G01X8721279Y473390D01*
G01X8721279Y479232D01*
G01X8715437Y496250D01*
G01X8704007Y507680D01*
G01X8686989Y513522D01*
G01X8681147Y513522D01*
G01X8664129Y507680D01*
G01X8652699Y496250D01*
G01X8646857Y479232D01*
G01X8803321Y559242D02*
G01X8786303Y553400D01*
G01X8774873Y536382D01*
G01X8769031Y507680D01*
G01X8769031Y490662D01*
G01X8774873Y461960D01*
G01X8786303Y444942D01*
G01X8803321Y439100D01*
G01X8814751Y439100D01*
G01X8832023Y444942D01*
G01X8843453Y461960D01*
G01X8849041Y490662D01*
G01X8849041Y507680D01*
G01X8843453Y536382D01*
G01X8832023Y553400D01*
G01X8814751Y559242D01*
G01X8803321Y559242D01*
G01X8931083Y559242D02*
G01X8914065Y553400D01*
G01X8902635Y536382D01*
G01X8896793Y507680D01*
G01X8896793Y490662D01*
G01X8902635Y461960D01*
G01X8914065Y444942D01*
G01X8931083Y439100D01*
G01X8942513Y439100D01*
G01X8959785Y444942D01*
G01X8971215Y461960D01*
G01X8976803Y490662D01*
G01X8976803Y507680D01*
G01X8971215Y536382D01*
G01X8959785Y553400D01*
G01X8942513Y559242D01*
G01X8931083Y559242D01*
G01X9024555Y519110D02*
G01X9087547Y439100D01*
G01X9087547Y519110D02*
G01X9024555Y439100D01*
G01X9169589Y559242D02*
G01X9152571Y553400D01*
G01X9141141Y536382D01*
G01X9135299Y507680D01*
G01X9135299Y490662D01*
G01X9141141Y461960D01*
G01X9152571Y444942D01*
G01X9169589Y439100D01*
G01X9181019Y439100D01*
G01X9198291Y444942D01*
G01X9209721Y461960D01*
G01X9215309Y490662D01*
G01X9215309Y507680D01*
G01X9209721Y536382D01*
G01X9198291Y553400D01*
G01X9181019Y559242D01*
G01X9169589Y559242D01*
G01X9268903Y467802D02*
G01X9263061Y461960D01*
G01X9268903Y456372D01*
G01X9274491Y461960D01*
G01X9268903Y467802D01*
G01X9390823Y541970D02*
G01X9385235Y553400D01*
G01X9367963Y559242D01*
G01X9356533Y559242D01*
G01X9339515Y553400D01*
G01X9328085Y536382D01*
G01X9322243Y507680D01*
G01X9322243Y479232D01*
G01X9328085Y456372D01*
G01X9339515Y444942D01*
G01X9356533Y439100D01*
G01X9362375Y439100D01*
G01X9379393Y444942D01*
G01X9390823Y456372D01*
G01X9396665Y473390D01*
G01X9396665Y479232D01*
G01X9390823Y496250D01*
G01X9379393Y507680D01*
G01X9362375Y513522D01*
G01X9356533Y513522D01*
G01X9339515Y507680D01*
G01X9328085Y496250D01*
G01X9322243Y479232D01*
G01X9478707Y559242D02*
G01X9461689Y553400D01*
G01X9450259Y536382D01*
G01X9444417Y507680D01*
G01X9444417Y490662D01*
G01X9450259Y461960D01*
G01X9461689Y444942D01*
G01X9478707Y439100D01*
G01X9490137Y439100D01*
G01X9507409Y444942D01*
G01X9518839Y461960D01*
G01X9524427Y490662D01*
G01X9524427Y507680D01*
G01X9518839Y536382D01*
G01X9507409Y553400D01*
G01X9490137Y559242D01*
G01X9478707Y559242D01*
G01X9606469Y559242D02*
G01X9589451Y553400D01*
G01X9578021Y536382D01*
G01X9572179Y507680D01*
G01X9572179Y490662D01*
G01X9578021Y461960D01*
G01X9589451Y444942D01*
G01X9606469Y439100D01*
G01X9617899Y439100D01*
G01X9635171Y444942D01*
G01X9646601Y461960D01*
G01X9652189Y490662D01*
G01X9652189Y507680D01*
G01X9646601Y536382D01*
G01X9635171Y553400D01*
G01X9617899Y559242D01*
G01X9606469Y559242D01*
G01X9699941Y519110D02*
G01X9699941Y439100D01*
G01X9699941Y496250D02*
G01X9717213Y513522D01*
G01X9728643Y519110D01*
G01X9745661Y519110D01*
G01X9757091Y513522D01*
G01X9762933Y496250D01*
G01X9762933Y439100D01*
G01X9762933Y496250D02*
G01X9779951Y513522D01*
G01X9791381Y519110D01*
G01X9808653Y519110D01*
G01X9820083Y513522D01*
G01X9825671Y496250D01*
G01X9825671Y439100D01*
G01X9873423Y519110D02*
G01X9873423Y439100D01*
G01X9873423Y496250D02*
G01X9890695Y513522D01*
G01X9902125Y519110D01*
G01X9919143Y519110D01*
G01X9930573Y513522D01*
G01X9936415Y496250D01*
G01X9936415Y439100D01*
G01X9936415Y496250D02*
G01X9953433Y513522D01*
G01X9964863Y519110D01*
G01X9982135Y519110D01*
G01X9993565Y513522D01*
G01X9999153Y496250D01*
G01X9999153Y439100D01*
G01X10046905Y582102D02*
G01X10058335Y570672D01*
G01X10069765Y553400D01*
G01X10081195Y530540D01*
G01X10087037Y502092D01*
G01X10087037Y479232D01*
G01X10081195Y450530D01*
G01X10069765Y427670D01*
G01X10058335Y410652D01*
G01X10046905Y399222D01*
G01X10978215Y559242D02*
G01X10978215Y439100D01*
G01X10978215Y559242D02*
G01X11029777Y559242D01*
G01X11046795Y553400D01*
G01X11052637Y547812D01*
G01X11058225Y536382D01*
G01X11058225Y519110D01*
G01X11052637Y507680D01*
G01X11046795Y502092D01*
G01X11029777Y496250D01*
G01X10978215Y496250D01*
G01X11146109Y559242D02*
G01X11146109Y439100D01*
G01X11105977Y559242D02*
G01X11185987Y559242D01*
G01X11233739Y559242D02*
G01X11233739Y439100D01*
G01X11313749Y559242D02*
G01X11313749Y439100D01*
G01X11233739Y502092D02*
G01X11313749Y502092D01*
G01X12439622Y559242D02*
G01X12439622Y439100D01*
G01X12439622Y559242D02*
G01X12491184Y559242D01*
G01X12508202Y553400D01*
G01X12514044Y547812D01*
G01X12519632Y536382D01*
G01X12519632Y524952D01*
G01X12514044Y513522D01*
G01X12508202Y507680D01*
G01X12491184Y502092D01*
G01X12439622Y502092D01*
G01X12479754Y502092D02*
G01X12519632Y439100D01*
G01X12596086Y519110D02*
G01X12584656Y513522D01*
G01X12573226Y502092D01*
G01X12567384Y484820D01*
G01X12567384Y473390D01*
G01X12573226Y456372D01*
G01X12584656Y444942D01*
G01X12596086Y439100D01*
G01X12613104Y439100D01*
G01X12624534Y444942D01*
G01X12635964Y456372D01*
G01X12641806Y473390D01*
G01X12641806Y484820D01*
G01X12635964Y502092D01*
G01X12624534Y513522D01*
G01X12613104Y519110D01*
G01X12596086Y519110D01*
G01X12689558Y519110D02*
G01X12689558Y461960D01*
G01X12695400Y444942D01*
G01X12706830Y439100D01*
G01X12723848Y439100D01*
G01X12735278Y444942D01*
G01X12752550Y461960D01*
G01X12752550Y519110D02*
G01X12752550Y439100D01*
G01X12800302Y519110D02*
G01X12800302Y439100D01*
G01X12800302Y496250D02*
G01X12817574Y513522D01*
G01X12829004Y519110D01*
G01X12846022Y519110D01*
G01X12857452Y513522D01*
G01X12863294Y496250D01*
G01X12863294Y439100D01*
G01X12979626Y559242D02*
G01X12979626Y439100D01*
G01X12979626Y502092D02*
G01X12968196Y513522D01*
G01X12956766Y519110D01*
G01X12939748Y519110D01*
G01X12928318Y513522D01*
G01X12916888Y502092D01*
G01X12911046Y484820D01*
G01X12911046Y473390D01*
G01X12916888Y456372D01*
G01X12928318Y444942D01*
G01X12939748Y439100D01*
G01X12956766Y439100D01*
G01X12968196Y444942D01*
G01X12979626Y456372D01*
G01X13870803Y559242D02*
G01X13870803Y439100D01*
G01X13870803Y559242D02*
G01X13922365Y559242D01*
G01X13939383Y553400D01*
G01X13945225Y547812D01*
G01X13950813Y536382D01*
G01X13950813Y519110D01*
G01X13945225Y507680D01*
G01X13939383Y502092D01*
G01X13922365Y496250D01*
G01X13870803Y496250D01*
G01X14067145Y519110D02*
G01X14067145Y439100D01*
G01X14067145Y502092D02*
G01X14055715Y513522D01*
G01X14044285Y519110D01*
G01X14027267Y519110D01*
G01X14015837Y513522D01*
G01X14004407Y502092D01*
G01X13998565Y484820D01*
G01X13998565Y473390D01*
G01X14004407Y456372D01*
G01X14015837Y444942D01*
G01X14027267Y439100D01*
G01X14044285Y439100D01*
G01X14055715Y444942D01*
G01X14067145Y456372D01*
G01X14183477Y559242D02*
G01X14183477Y439100D01*
G01X14183477Y502092D02*
G01X14172047Y513522D01*
G01X14160617Y519110D01*
G01X14143599Y519110D01*
G01X14132169Y513522D01*
G01X14120739Y502092D01*
G01X14114897Y484820D01*
G01X14114897Y473390D01*
G01X14120739Y456372D01*
G01X14132169Y444942D01*
G01X14143599Y439100D01*
G01X14160617Y439100D01*
G01X14172047Y444942D01*
G01X14183477Y456372D01*
G01X15580114Y582102D02*
G01X15568684Y570672D01*
G01X15557254Y553400D01*
G01X15545824Y530540D01*
G01X15539982Y502092D01*
G01X15539982Y479232D01*
G01X15545824Y450530D01*
G01X15557254Y427670D01*
G01X15568684Y410652D01*
G01X15580114Y399222D01*
G01X15627866Y559242D02*
G01X15627866Y439100D01*
G01X15627866Y559242D02*
G01X15673586Y439100D01*
G01X15719306Y559242D02*
G01X15673586Y439100D01*
G01X15719306Y559242D02*
G01X15719306Y439100D01*
G01X15767058Y559242D02*
G01X15772900Y553400D01*
G01X15778488Y559242D01*
G01X15772900Y564830D01*
G01X15767058Y559242D01*
G01X15772900Y519110D02*
G01X15772900Y439100D01*
G01X15826240Y519110D02*
G01X15889232Y439100D01*
G01X15889232Y519110D02*
G01X15826240Y439100D01*
G01X15936984Y484820D02*
G01X16005564Y484820D01*
G01X16005564Y496250D01*
G01X15999976Y507680D01*
G01X15994134Y513522D01*
G01X15982704Y519110D01*
G01X15965686Y519110D01*
G01X15954256Y513522D01*
G01X15942826Y502092D01*
G01X15936984Y484820D01*
G01X15936984Y473390D01*
G01X15942826Y456372D01*
G01X15954256Y444942D01*
G01X15965686Y439100D01*
G01X15982704Y439100D01*
G01X15994134Y444942D01*
G01X16005564Y456372D01*
G01X16121896Y559242D02*
G01X16121896Y439100D01*
G01X16121896Y502092D02*
G01X16110466Y513522D01*
G01X16099036Y519110D01*
G01X16082018Y519110D01*
G01X16070588Y513522D01*
G01X16059158Y502092D01*
G01X16053316Y484820D01*
G01X16053316Y473390D01*
G01X16059158Y456372D01*
G01X16070588Y444942D01*
G01X16082018Y439100D01*
G01X16099036Y439100D01*
G01X16110466Y444942D01*
G01X16121896Y456372D01*
G01X16169648Y582102D02*
G01X16181078Y570672D01*
G01X16192508Y553400D01*
G01X16203938Y530540D01*
G01X16209780Y502092D01*
G01X16209780Y479232D01*
G01X16203938Y450530D01*
G01X16192508Y427670D01*
G01X16181078Y410652D01*
G01X16169648Y399222D01*
G01X17499483Y559242D02*
G01X17499483Y439100D01*
G01X17459351Y559242D02*
G01X17539361Y559242D01*
G01X17615815Y519110D02*
G01X17604385Y513522D01*
G01X17592955Y502092D01*
G01X17587113Y484820D01*
G01X17587113Y473390D01*
G01X17592955Y456372D01*
G01X17604385Y444942D01*
G01X17615815Y439100D01*
G01X17632833Y439100D01*
G01X17644263Y444942D01*
G01X17655693Y456372D01*
G01X17661535Y473390D01*
G01X17661535Y484820D01*
G01X17655693Y502092D01*
G01X17644263Y513522D01*
G01X17632833Y519110D01*
G01X17615815Y519110D01*
G01X17709287Y519110D02*
G01X17709287Y399222D01*
G01X17709287Y502092D02*
G01X17720717Y513522D01*
G01X17732147Y519110D01*
G01X17749419Y519110D01*
G01X17760849Y513522D01*
G01X17772279Y502092D01*
G01X17777867Y484820D01*
G01X17777867Y473390D01*
G01X17772279Y456372D01*
G01X17760849Y444942D01*
G01X17749419Y439100D01*
G01X17732147Y439100D01*
G01X17720717Y444942D01*
G01X17709287Y456372D01*
G01X17953635Y559242D02*
G01X17953635Y439100D01*
G01X17953635Y439100D02*
G01X18022215Y439100D01*
G01X18138547Y519110D02*
G01X18138547Y439100D01*
G01X18138547Y502092D02*
G01X18127117Y513522D01*
G01X18115687Y519110D01*
G01X18098669Y519110D01*
G01X18087239Y513522D01*
G01X18075809Y502092D01*
G01X18069967Y484820D01*
G01X18069967Y473390D01*
G01X18075809Y456372D01*
G01X18087239Y444942D01*
G01X18098669Y439100D01*
G01X18115687Y439100D01*
G01X18127117Y444942D01*
G01X18138547Y456372D01*
G01X18192141Y519110D02*
G01X18226431Y439100D01*
G01X18260721Y519110D02*
G01X18226431Y439100D01*
G01X18215001Y416240D01*
G01X18203571Y404810D01*
G01X18192141Y399222D01*
G01X18186299Y399222D01*
G01X18308473Y484820D02*
G01X18377053Y484820D01*
G01X18377053Y496250D01*
G01X18371465Y507680D01*
G01X18365623Y513522D01*
G01X18354193Y519110D01*
G01X18337175Y519110D01*
G01X18325745Y513522D01*
G01X18314315Y502092D01*
G01X18308473Y484820D01*
G01X18308473Y473390D01*
G01X18314315Y456372D01*
G01X18325745Y444942D01*
G01X18337175Y439100D01*
G01X18354193Y439100D01*
G01X18365623Y444942D01*
G01X18377053Y456372D01*
G01X18424805Y519110D02*
G01X18424805Y439100D01*
G01X18424805Y484820D02*
G01X18430647Y502092D01*
G01X18442077Y513522D01*
G01X18453507Y519110D01*
G01X18470525Y519110D01*
G01X18518277Y490662D02*
G01X18621147Y490662D01*
G01X18668899Y559242D02*
G01X18668899Y439100D01*
G01X18668899Y559242D02*
G01X18720461Y559242D01*
G01X18737479Y553400D01*
G01X18743321Y547812D01*
G01X18748909Y536382D01*
G01X18748909Y524952D01*
G01X18743321Y513522D01*
G01X18737479Y507680D01*
G01X18720461Y502092D01*
G01X18668899Y502092D02*
G01X18720461Y502092D01*
G01X18737479Y496250D01*
G01X18743321Y490662D01*
G01X18748909Y479232D01*
G01X18748909Y461960D01*
G01X18743321Y450530D01*
G01X18737479Y444942D01*
G01X18720461Y439100D01*
G01X18668899Y439100D01*
G01X18825363Y519110D02*
G01X18813933Y513522D01*
G01X18802503Y502092D01*
G01X18796661Y484820D01*
G01X18796661Y473390D01*
G01X18802503Y456372D01*
G01X18813933Y444942D01*
G01X18825363Y439100D01*
G01X18842381Y439100D01*
G01X18853811Y444942D01*
G01X18865241Y456372D01*
G01X18871083Y473390D01*
G01X18871083Y484820D01*
G01X18865241Y502092D01*
G01X18853811Y513522D01*
G01X18842381Y519110D01*
G01X18825363Y519110D01*
G01X18936107Y559242D02*
G01X18936107Y461960D01*
G01X18941695Y444942D01*
G01X18953125Y439100D01*
G01X18964555Y439100D01*
G01X18918835Y519110D02*
G01X18958967Y519110D01*
G01X19029579Y559242D02*
G01X19029579Y461960D01*
G01X19035167Y444942D01*
G01X19046597Y439100D01*
G01X19058027Y439100D01*
G01X19012307Y519110D02*
G01X19052439Y519110D01*
G01X19134481Y519110D02*
G01X19123051Y513522D01*
G01X19111621Y502092D01*
G01X19105779Y484820D01*
G01X19105779Y473390D01*
G01X19111621Y456372D01*
G01X19123051Y444942D01*
G01X19134481Y439100D01*
G01X19151499Y439100D01*
G01X19162929Y444942D01*
G01X19174359Y456372D01*
G01X19180201Y473390D01*
G01X19180201Y484820D01*
G01X19174359Y502092D01*
G01X19162929Y513522D01*
G01X19151499Y519110D01*
G01X19134481Y519110D01*
G01X19227953Y519110D02*
G01X19227953Y439100D01*
G01X19227953Y496250D02*
G01X19245225Y513522D01*
G01X19256655Y519110D01*
G01X19273673Y519110D01*
G01X19285103Y513522D01*
G01X19290945Y496250D01*
G01X19290945Y439100D01*
G01X19290945Y496250D02*
G01X19307963Y513522D01*
G01X19319393Y519110D01*
G01X19336665Y519110D01*
G01X19348095Y513522D01*
G01X19353683Y496250D01*
G01X19353683Y439100D01*
G01X19529451Y559242D02*
G01X19529451Y439100D01*
G01X19529451Y439100D02*
G01X19598031Y439100D01*
G01X19714363Y519110D02*
G01X19714363Y439100D01*
G01X19714363Y502092D02*
G01X19702933Y513522D01*
G01X19691503Y519110D01*
G01X19674485Y519110D01*
G01X19663055Y513522D01*
G01X19651625Y502092D01*
G01X19645783Y484820D01*
G01X19645783Y473390D01*
G01X19651625Y456372D01*
G01X19663055Y444942D01*
G01X19674485Y439100D01*
G01X19691503Y439100D01*
G01X19702933Y444942D01*
G01X19714363Y456372D01*
G01X19767957Y519110D02*
G01X19802247Y439100D01*
G01X19836537Y519110D02*
G01X19802247Y439100D01*
G01X19790817Y416240D01*
G01X19779387Y404810D01*
G01X19767957Y399222D01*
G01X19762115Y399222D01*
G01X19884289Y484820D02*
G01X19952869Y484820D01*
G01X19952869Y496250D01*
G01X19947281Y507680D01*
G01X19941439Y513522D01*
G01X19930009Y519110D01*
G01X19912991Y519110D01*
G01X19901561Y513522D01*
G01X19890131Y502092D01*
G01X19884289Y484820D01*
G01X19884289Y473390D01*
G01X19890131Y456372D01*
G01X19901561Y444942D01*
G01X19912991Y439100D01*
G01X19930009Y439100D01*
G01X19941439Y444942D01*
G01X19952869Y456372D01*
G01X20000621Y519110D02*
G01X20000621Y439100D01*
G01X20000621Y484820D02*
G01X20006463Y502092D01*
G01X20017893Y513522D01*
G01X20029323Y519110D01*
G01X20046341Y519110D01*
G01X5698788Y-50032D02*
G01X5698788Y-44190D01*
G01X5704376Y-32760D01*
G01X5710218Y-27172D01*
G01X5721648Y-21330D01*
G01X5744508Y-21330D01*
G01X5755938Y-27172D01*
G01X5761526Y-32760D01*
G01X5767368Y-44190D01*
G01X5767368Y-55620D01*
G01X5761526Y-67050D01*
G01X5750096Y-84322D01*
G01X5692946Y-141472D01*
G01X5772956Y-141472D01*
G01X7118539Y-21330D02*
G01X7181531Y-21330D01*
G01X7147241Y-67050D01*
G01X7164259Y-67050D01*
G01X7175689Y-72892D01*
G01X7181531Y-78480D01*
G01X7187119Y-95752D01*
G01X7187119Y-107182D01*
G01X7181531Y-124200D01*
G01X7170101Y-135630D01*
G01X7152829Y-141472D01*
G01X7135811Y-141472D01*
G01X7118539Y-135630D01*
G01X7112951Y-130042D01*
G01X7107109Y-118612D01*
G01X7303451Y-21330D02*
G01X7246301Y-21330D01*
G01X7240713Y-72892D01*
G01X7246301Y-67050D01*
G01X7263573Y-61462D01*
G01X7280591Y-61462D01*
G01X7297863Y-67050D01*
G01X7309293Y-78480D01*
G01X7314881Y-95752D01*
G01X7314881Y-107182D01*
G01X7309293Y-124200D01*
G01X7297863Y-135630D01*
G01X7280591Y-141472D01*
G01X7263573Y-141472D01*
G01X7246301Y-135630D01*
G01X7240713Y-130042D01*
G01X7234871Y-118612D01*
G01X7368475Y-112770D02*
G01X7362633Y-118612D01*
G01X7368475Y-124200D01*
G01X7374063Y-118612D01*
G01X7368475Y-112770D01*
G01X7478965Y-21330D02*
G01X7421815Y-101340D01*
G01X7507667Y-101340D01*
G01X7478965Y-21330D02*
G01X7478965Y-141472D01*
G01X7555419Y-61462D02*
G01X7555419Y-141472D01*
G01X7555419Y-84322D02*
G01X7572691Y-67050D01*
G01X7584121Y-61462D01*
G01X7601139Y-61462D01*
G01X7612569Y-67050D01*
G01X7618411Y-84322D01*
G01X7618411Y-141472D01*
G01X7618411Y-84322D02*
G01X7635429Y-67050D01*
G01X7646859Y-61462D01*
G01X7664131Y-61462D01*
G01X7675561Y-67050D01*
G01X7681149Y-84322D01*
G01X7681149Y-141472D01*
G01X7728901Y-21330D02*
G01X7734743Y-27172D01*
G01X7740331Y-21330D01*
G01X7734743Y-15742D01*
G01X7728901Y-21330D01*
G01X7734743Y-61462D02*
G01X7734743Y-141472D01*
G01X7788083Y-21330D02*
G01X7788083Y-141472D01*
G01X7875967Y1530D02*
G01X7864537Y-9900D01*
G01X7853107Y-27172D01*
G01X7841677Y-50032D01*
G01X7835835Y-78480D01*
G01X7835835Y-101340D01*
G01X7841677Y-130042D01*
G01X7853107Y-152902D01*
G01X7864537Y-169920D01*
G01X7875967Y-181350D01*
G01X7958009Y-21330D02*
G01X7940991Y-27172D01*
G01X7929561Y-44190D01*
G01X7923719Y-72892D01*
G01X7923719Y-89910D01*
G01X7929561Y-118612D01*
G01X7940991Y-135630D01*
G01X7958009Y-141472D01*
G01X7969439Y-141472D01*
G01X7986711Y-135630D01*
G01X7998141Y-118612D01*
G01X8003729Y-89910D01*
G01X8003729Y-72892D01*
G01X7998141Y-44190D01*
G01X7986711Y-27172D01*
G01X7969439Y-21330D01*
G01X7958009Y-21330D01*
G01X8057323Y-112770D02*
G01X8051481Y-118612D01*
G01X8057323Y-124200D01*
G01X8062911Y-118612D01*
G01X8057323Y-112770D01*
G01X8185085Y-61462D02*
G01X8179243Y-78480D01*
G01X8167813Y-89910D01*
G01X8150795Y-95752D01*
G01X8144953Y-95752D01*
G01X8127935Y-89910D01*
G01X8116505Y-78480D01*
G01X8110663Y-61462D01*
G01X8110663Y-55620D01*
G01X8116505Y-38602D01*
G01X8127935Y-27172D01*
G01X8144953Y-21330D01*
G01X8150795Y-21330D01*
G01X8167813Y-27172D01*
G01X8179243Y-38602D01*
G01X8185085Y-61462D01*
G01X8185085Y-89910D01*
G01X8179243Y-118612D01*
G01X8167813Y-135630D01*
G01X8150795Y-141472D01*
G01X8139365Y-141472D01*
G01X8122093Y-135630D01*
G01X8116505Y-124200D01*
G01X8267127Y-21330D02*
G01X8250109Y-27172D01*
G01X8238679Y-44190D01*
G01X8232837Y-72892D01*
G01X8232837Y-89910D01*
G01X8238679Y-118612D01*
G01X8250109Y-135630D01*
G01X8267127Y-141472D01*
G01X8278557Y-141472D01*
G01X8295829Y-135630D01*
G01X8307259Y-118612D01*
G01X8312847Y-89910D01*
G01X8312847Y-72892D01*
G01X8307259Y-44190D01*
G01X8295829Y-27172D01*
G01X8278557Y-21330D01*
G01X8267127Y-21330D01*
G01X8394889Y-21330D02*
G01X8377871Y-27172D01*
G01X8366441Y-44190D01*
G01X8360599Y-72892D01*
G01X8360599Y-89910D01*
G01X8366441Y-118612D01*
G01X8377871Y-135630D01*
G01X8394889Y-141472D01*
G01X8406319Y-141472D01*
G01X8423591Y-135630D01*
G01X8435021Y-118612D01*
G01X8440609Y-89910D01*
G01X8440609Y-72892D01*
G01X8435021Y-44190D01*
G01X8423591Y-27172D01*
G01X8406319Y-21330D01*
G01X8394889Y-21330D01*
G01X8488361Y-61462D02*
G01X8488361Y-141472D01*
G01X8488361Y-84322D02*
G01X8505633Y-67050D01*
G01X8517063Y-61462D01*
G01X8534081Y-61462D01*
G01X8545511Y-67050D01*
G01X8551353Y-84322D01*
G01X8551353Y-141472D01*
G01X8551353Y-84322D02*
G01X8568371Y-67050D01*
G01X8579801Y-61462D01*
G01X8597073Y-61462D01*
G01X8608503Y-67050D01*
G01X8614091Y-84322D01*
G01X8614091Y-141472D01*
G01X8661843Y-61462D02*
G01X8661843Y-141472D01*
G01X8661843Y-84322D02*
G01X8679115Y-67050D01*
G01X8690545Y-61462D01*
G01X8707563Y-61462D01*
G01X8718993Y-67050D01*
G01X8724835Y-84322D01*
G01X8724835Y-141472D01*
G01X8724835Y-84322D02*
G01X8741853Y-67050D01*
G01X8753283Y-61462D01*
G01X8770555Y-61462D01*
G01X8781985Y-67050D01*
G01X8787573Y-84322D01*
G01X8787573Y-141472D01*
G01X8835325Y1530D02*
G01X8846755Y-9900D01*
G01X8858185Y-27172D01*
G01X8869615Y-50032D01*
G01X8875457Y-78480D01*
G01X8875457Y-101340D01*
G01X8869615Y-130042D01*
G01X8858185Y-152902D01*
G01X8846755Y-169920D01*
G01X8835325Y-181350D01*
G01X10978215Y-21330D02*
G01X10978215Y-141472D01*
G01X10978215Y-21330D02*
G01X11058225Y-141472D01*
G01X11058225Y-21330D02*
G01X11058225Y-141472D01*
G01X11105977Y-21330D02*
G01X11105977Y-141472D01*
G01X11105977Y-21330D02*
G01X11157539Y-21330D01*
G01X11174557Y-27172D01*
G01X11180399Y-32760D01*
G01X11185987Y-44190D01*
G01X11185987Y-61462D01*
G01X11180399Y-72892D01*
G01X11174557Y-78480D01*
G01X11157539Y-84322D01*
G01X11105977Y-84322D01*
G01X11273871Y-21330D02*
G01X11273871Y-141472D01*
G01X11233739Y-21330D02*
G01X11313749Y-21330D01*
G01X11361501Y-21330D02*
G01X11361501Y-141472D01*
G01X11441511Y-21330D02*
G01X11441511Y-141472D01*
G01X11361501Y-78480D02*
G01X11441511Y-78480D01*
G01X12439622Y-21330D02*
G01X12439622Y-141472D01*
G01X12439622Y-21330D02*
G01X12491184Y-21330D01*
G01X12508202Y-27172D01*
G01X12514044Y-32760D01*
G01X12519632Y-44190D01*
G01X12519632Y-55620D01*
G01X12514044Y-67050D01*
G01X12508202Y-72892D01*
G01X12491184Y-78480D01*
G01X12439622Y-78480D01*
G01X12479754Y-78480D02*
G01X12519632Y-141472D01*
G01X12596086Y-61462D02*
G01X12584656Y-67050D01*
G01X12573226Y-78480D01*
G01X12567384Y-95752D01*
G01X12567384Y-107182D01*
G01X12573226Y-124200D01*
G01X12584656Y-135630D01*
G01X12596086Y-141472D01*
G01X12613104Y-141472D01*
G01X12624534Y-135630D01*
G01X12635964Y-124200D01*
G01X12641806Y-107182D01*
G01X12641806Y-95752D01*
G01X12635964Y-78480D01*
G01X12624534Y-67050D01*
G01X12613104Y-61462D01*
G01X12596086Y-61462D01*
G01X12689558Y-61462D02*
G01X12689558Y-118612D01*
G01X12695400Y-135630D01*
G01X12706830Y-141472D01*
G01X12723848Y-141472D01*
G01X12735278Y-135630D01*
G01X12752550Y-118612D01*
G01X12752550Y-61462D02*
G01X12752550Y-141472D01*
G01X12800302Y-61462D02*
G01X12800302Y-141472D01*
G01X12800302Y-84322D02*
G01X12817574Y-67050D01*
G01X12829004Y-61462D01*
G01X12846022Y-61462D01*
G01X12857452Y-67050D01*
G01X12863294Y-84322D01*
G01X12863294Y-141472D01*
G01X12979626Y-21330D02*
G01X12979626Y-141472D01*
G01X12979626Y-78480D02*
G01X12968196Y-67050D01*
G01X12956766Y-61462D01*
G01X12939748Y-61462D01*
G01X12928318Y-67050D01*
G01X12916888Y-78480D01*
G01X12911046Y-95752D01*
G01X12911046Y-107182D01*
G01X12916888Y-124200D01*
G01X12928318Y-135630D01*
G01X12939748Y-141472D01*
G01X12956766Y-141472D01*
G01X12968196Y-135630D01*
G01X12979626Y-124200D01*
G01X13870803Y-21330D02*
G01X13916523Y-141472D01*
G01X13962243Y-21330D02*
G01X13916523Y-141472D01*
G01X14009995Y-21330D02*
G01X14015837Y-27172D01*
G01X14021425Y-21330D01*
G01X14015837Y-15742D01*
G01X14009995Y-21330D01*
G01X14015837Y-61462D02*
G01X14015837Y-141472D01*
G01X14137757Y-61462D02*
G01X14137757Y-141472D01*
G01X14137757Y-78480D02*
G01X14126327Y-67050D01*
G01X14114897Y-61462D01*
G01X14097879Y-61462D01*
G01X14086449Y-67050D01*
G01X14075019Y-78480D01*
G01X14069177Y-95752D01*
G01X14069177Y-107182D01*
G01X14075019Y-124200D01*
G01X14086449Y-135630D01*
G01X14097879Y-141472D01*
G01X14114897Y-141472D01*
G01X14126327Y-135630D01*
G01X14137757Y-124200D01*
G01X17499483Y-21330D02*
G01X17499483Y-141472D01*
G01X17459351Y-21330D02*
G01X17539361Y-21330D01*
G01X17615815Y-61462D02*
G01X17604385Y-67050D01*
G01X17592955Y-78480D01*
G01X17587113Y-95752D01*
G01X17587113Y-107182D01*
G01X17592955Y-124200D01*
G01X17604385Y-135630D01*
G01X17615815Y-141472D01*
G01X17632833Y-141472D01*
G01X17644263Y-135630D01*
G01X17655693Y-124200D01*
G01X17661535Y-107182D01*
G01X17661535Y-95752D01*
G01X17655693Y-78480D01*
G01X17644263Y-67050D01*
G01X17632833Y-61462D01*
G01X17615815Y-61462D01*
G01X17709287Y-61462D02*
G01X17709287Y-181350D01*
G01X17709287Y-78480D02*
G01X17720717Y-67050D01*
G01X17732147Y-61462D01*
G01X17749419Y-61462D01*
G01X17760849Y-67050D01*
G01X17772279Y-78480D01*
G01X17777867Y-95752D01*
G01X17777867Y-107182D01*
G01X17772279Y-124200D01*
G01X17760849Y-135630D01*
G01X17749419Y-141472D01*
G01X17732147Y-141472D01*
G01X17720717Y-135630D01*
G01X17709287Y-124200D01*
G01X17953635Y-21330D02*
G01X17953635Y-141472D01*
G01X17953635Y-141472D02*
G01X18022215Y-141472D01*
G01X18138547Y-61462D02*
G01X18138547Y-141472D01*
G01X18138547Y-78480D02*
G01X18127117Y-67050D01*
G01X18115687Y-61462D01*
G01X18098669Y-61462D01*
G01X18087239Y-67050D01*
G01X18075809Y-78480D01*
G01X18069967Y-95752D01*
G01X18069967Y-107182D01*
G01X18075809Y-124200D01*
G01X18087239Y-135630D01*
G01X18098669Y-141472D01*
G01X18115687Y-141472D01*
G01X18127117Y-135630D01*
G01X18138547Y-124200D01*
G01X18192141Y-61462D02*
G01X18226431Y-141472D01*
G01X18260721Y-61462D02*
G01X18226431Y-141472D01*
G01X18215001Y-164332D01*
G01X18203571Y-175762D01*
G01X18192141Y-181350D01*
G01X18186299Y-181350D01*
G01X18308473Y-95752D02*
G01X18377053Y-95752D01*
G01X18377053Y-84322D01*
G01X18371465Y-72892D01*
G01X18365623Y-67050D01*
G01X18354193Y-61462D01*
G01X18337175Y-61462D01*
G01X18325745Y-67050D01*
G01X18314315Y-78480D01*
G01X18308473Y-95752D01*
G01X18308473Y-107182D01*
G01X18314315Y-124200D01*
G01X18325745Y-135630D01*
G01X18337175Y-141472D01*
G01X18354193Y-141472D01*
G01X18365623Y-135630D01*
G01X18377053Y-124200D01*
G01X18424805Y-61462D02*
G01X18424805Y-141472D01*
G01X18424805Y-95752D02*
G01X18430647Y-78480D01*
G01X18442077Y-67050D01*
G01X18453507Y-61462D01*
G01X18470525Y-61462D01*
G01X18518277Y-89910D02*
G01X18621147Y-89910D01*
G01X18668899Y-21330D02*
G01X18668899Y-141472D01*
G01X18668899Y-21330D02*
G01X18720461Y-21330D01*
G01X18737479Y-27172D01*
G01X18743321Y-32760D01*
G01X18748909Y-44190D01*
G01X18748909Y-55620D01*
G01X18743321Y-67050D01*
G01X18737479Y-72892D01*
G01X18720461Y-78480D01*
G01X18668899Y-78480D02*
G01X18720461Y-78480D01*
G01X18737479Y-84322D01*
G01X18743321Y-89910D01*
G01X18748909Y-101340D01*
G01X18748909Y-118612D01*
G01X18743321Y-130042D01*
G01X18737479Y-135630D01*
G01X18720461Y-141472D01*
G01X18668899Y-141472D01*
G01X18825363Y-61462D02*
G01X18813933Y-67050D01*
G01X18802503Y-78480D01*
G01X18796661Y-95752D01*
G01X18796661Y-107182D01*
G01X18802503Y-124200D01*
G01X18813933Y-135630D01*
G01X18825363Y-141472D01*
G01X18842381Y-141472D01*
G01X18853811Y-135630D01*
G01X18865241Y-124200D01*
G01X18871083Y-107182D01*
G01X18871083Y-95752D01*
G01X18865241Y-78480D01*
G01X18853811Y-67050D01*
G01X18842381Y-61462D01*
G01X18825363Y-61462D01*
G01X18936107Y-21330D02*
G01X18936107Y-118612D01*
G01X18941695Y-135630D01*
G01X18953125Y-141472D01*
G01X18964555Y-141472D01*
G01X18918835Y-61462D02*
G01X18958967Y-61462D01*
G01X19029579Y-21330D02*
G01X19029579Y-118612D01*
G01X19035167Y-135630D01*
G01X19046597Y-141472D01*
G01X19058027Y-141472D01*
G01X19012307Y-61462D02*
G01X19052439Y-61462D01*
G01X19134481Y-61462D02*
G01X19123051Y-67050D01*
G01X19111621Y-78480D01*
G01X19105779Y-95752D01*
G01X19105779Y-107182D01*
G01X19111621Y-124200D01*
G01X19123051Y-135630D01*
G01X19134481Y-141472D01*
G01X19151499Y-141472D01*
G01X19162929Y-135630D01*
G01X19174359Y-124200D01*
G01X19180201Y-107182D01*
G01X19180201Y-95752D01*
G01X19174359Y-78480D01*
G01X19162929Y-67050D01*
G01X19151499Y-61462D01*
G01X19134481Y-61462D01*
G01X19227953Y-61462D02*
G01X19227953Y-141472D01*
G01X19227953Y-84322D02*
G01X19245225Y-67050D01*
G01X19256655Y-61462D01*
G01X19273673Y-61462D01*
G01X19285103Y-67050D01*
G01X19290945Y-84322D01*
G01X19290945Y-141472D01*
G01X19290945Y-84322D02*
G01X19307963Y-67050D01*
G01X19319393Y-61462D01*
G01X19336665Y-61462D01*
G01X19348095Y-67050D01*
G01X19353683Y-84322D01*
G01X19353683Y-141472D01*
G01X19529451Y-21330D02*
G01X19529451Y-141472D01*
G01X19529451Y-141472D02*
G01X19598031Y-141472D01*
G01X19714363Y-61462D02*
G01X19714363Y-141472D01*
G01X19714363Y-78480D02*
G01X19702933Y-67050D01*
G01X19691503Y-61462D01*
G01X19674485Y-61462D01*
G01X19663055Y-67050D01*
G01X19651625Y-78480D01*
G01X19645783Y-95752D01*
G01X19645783Y-107182D01*
G01X19651625Y-124200D01*
G01X19663055Y-135630D01*
G01X19674485Y-141472D01*
G01X19691503Y-141472D01*
G01X19702933Y-135630D01*
G01X19714363Y-124200D01*
G01X19767957Y-61462D02*
G01X19802247Y-141472D01*
G01X19836537Y-61462D02*
G01X19802247Y-141472D01*
G01X19790817Y-164332D01*
G01X19779387Y-175762D01*
G01X19767957Y-181350D01*
G01X19762115Y-181350D01*
G01X19884289Y-95752D02*
G01X19952869Y-95752D01*
G01X19952869Y-84322D01*
G01X19947281Y-72892D01*
G01X19941439Y-67050D01*
G01X19930009Y-61462D01*
G01X19912991Y-61462D01*
G01X19901561Y-67050D01*
G01X19890131Y-78480D01*
G01X19884289Y-95752D01*
G01X19884289Y-107182D01*
G01X19890131Y-124200D01*
G01X19901561Y-135630D01*
G01X19912991Y-141472D01*
G01X19930009Y-141472D01*
G01X19941439Y-135630D01*
G01X19952869Y-124200D01*
G01X20000621Y-61462D02*
G01X20000621Y-141472D01*
G01X20000621Y-95752D02*
G01X20006463Y-78480D01*
G01X20017893Y-67050D01*
G01X20029323Y-61462D01*
G01X20046341Y-61462D01*
G01X5692946Y-624761D02*
G01X5704376Y-619173D01*
G01X5721648Y-601901D01*
G01X5721648Y-722043D01*
G01X5803690Y-601901D02*
G01X5786672Y-607743D01*
G01X5775242Y-624761D01*
G01X5769400Y-653463D01*
G01X5769400Y-670481D01*
G01X5775242Y-699183D01*
G01X5786672Y-716201D01*
G01X5803690Y-722043D01*
G01X5815120Y-722043D01*
G01X5832392Y-716201D01*
G01X5843822Y-699183D01*
G01X5849410Y-670481D01*
G01X5849410Y-653463D01*
G01X5843822Y-624761D01*
G01X5832392Y-607743D01*
G01X5815120Y-601901D01*
G01X5803690Y-601901D01*
G01X5931452Y-601901D02*
G01X5914434Y-607743D01*
G01X5903004Y-624761D01*
G01X5897162Y-653463D01*
G01X5897162Y-670481D01*
G01X5903004Y-699183D01*
G01X5914434Y-716201D01*
G01X5931452Y-722043D01*
G01X5942882Y-722043D01*
G01X5960154Y-716201D01*
G01X5971584Y-699183D01*
G01X5977172Y-670481D01*
G01X5977172Y-653463D01*
G01X5971584Y-624761D01*
G01X5960154Y-607743D01*
G01X5942882Y-601901D01*
G01X5931452Y-601901D01*
G01X7107109Y-624761D02*
G01X7118539Y-619173D01*
G01X7135811Y-601901D01*
G01X7135811Y-722043D01*
G01X7189405Y-630603D02*
G01X7189405Y-624761D01*
G01X7194993Y-613331D01*
G01X7200835Y-607743D01*
G01X7212265Y-601901D01*
G01X7235125Y-601901D01*
G01X7246555Y-607743D01*
G01X7252143Y-613331D01*
G01X7257985Y-624761D01*
G01X7257985Y-636191D01*
G01X7252143Y-647621D01*
G01X7240713Y-664893D01*
G01X7183563Y-722043D01*
G01X7263573Y-722043D01*
G01X7317167Y-693341D02*
G01X7311325Y-699183D01*
G01X7317167Y-704771D01*
G01X7322755Y-699183D01*
G01X7317167Y-693341D01*
G01X7404797Y-601901D02*
G01X7387779Y-607743D01*
G01X7376349Y-624761D01*
G01X7370507Y-653463D01*
G01X7370507Y-670481D01*
G01X7376349Y-699183D01*
G01X7387779Y-716201D01*
G01X7404797Y-722043D01*
G01X7416227Y-722043D01*
G01X7433499Y-716201D01*
G01X7444929Y-699183D01*
G01X7450517Y-670481D01*
G01X7450517Y-653463D01*
G01X7444929Y-624761D01*
G01X7433499Y-607743D01*
G01X7416227Y-601901D01*
G01X7404797Y-601901D01*
G01X7498269Y-642033D02*
G01X7498269Y-722043D01*
G01X7498269Y-664893D02*
G01X7515541Y-647621D01*
G01X7526971Y-642033D01*
G01X7543989Y-642033D01*
G01X7555419Y-647621D01*
G01X7561261Y-664893D01*
G01X7561261Y-722043D01*
G01X7561261Y-664893D02*
G01X7578279Y-647621D01*
G01X7589709Y-642033D01*
G01X7606981Y-642033D01*
G01X7618411Y-647621D01*
G01X7623999Y-664893D01*
G01X7623999Y-722043D01*
G01X7671751Y-601901D02*
G01X7677593Y-607743D01*
G01X7683181Y-601901D01*
G01X7677593Y-596313D01*
G01X7671751Y-601901D01*
G01X7677593Y-642033D02*
G01X7677593Y-722043D01*
G01X7730933Y-601901D02*
G01X7730933Y-722043D01*
G01X7818817Y-579041D02*
G01X7807387Y-590471D01*
G01X7795957Y-607743D01*
G01X7784527Y-630603D01*
G01X7778685Y-659051D01*
G01X7778685Y-681911D01*
G01X7784527Y-710613D01*
G01X7795957Y-733473D01*
G01X7807387Y-750491D01*
G01X7818817Y-761921D01*
G01X7900859Y-601901D02*
G01X7883841Y-607743D01*
G01X7872411Y-624761D01*
G01X7866569Y-653463D01*
G01X7866569Y-670481D01*
G01X7872411Y-699183D01*
G01X7883841Y-716201D01*
G01X7900859Y-722043D01*
G01X7912289Y-722043D01*
G01X7929561Y-716201D01*
G01X7940991Y-699183D01*
G01X7946579Y-670481D01*
G01X7946579Y-653463D01*
G01X7940991Y-624761D01*
G01X7929561Y-607743D01*
G01X7912289Y-601901D01*
G01X7900859Y-601901D01*
G01X8000173Y-693341D02*
G01X7994331Y-699183D01*
G01X8000173Y-704771D01*
G01X8005761Y-699183D01*
G01X8000173Y-693341D01*
G01X8064943Y-601901D02*
G01X8127935Y-601901D01*
G01X8093645Y-647621D01*
G01X8110663Y-647621D01*
G01X8122093Y-653463D01*
G01X8127935Y-659051D01*
G01X8133523Y-676323D01*
G01X8133523Y-687753D01*
G01X8127935Y-704771D01*
G01X8116505Y-716201D01*
G01X8099233Y-722043D01*
G01X8082215Y-722043D01*
G01X8064943Y-716201D01*
G01X8059355Y-710613D01*
G01X8053513Y-699183D01*
G01X8215565Y-601901D02*
G01X8198547Y-607743D01*
G01X8187117Y-624761D01*
G01X8181275Y-653463D01*
G01X8181275Y-670481D01*
G01X8187117Y-699183D01*
G01X8198547Y-716201D01*
G01X8215565Y-722043D01*
G01X8226995Y-722043D01*
G01X8244267Y-716201D01*
G01X8255697Y-699183D01*
G01X8261285Y-670481D01*
G01X8261285Y-653463D01*
G01X8255697Y-624761D01*
G01X8244267Y-607743D01*
G01X8226995Y-601901D01*
G01X8215565Y-601901D01*
G01X8377617Y-601901D02*
G01X8320467Y-601901D01*
G01X8314879Y-653463D01*
G01X8320467Y-647621D01*
G01X8337739Y-642033D01*
G01X8354757Y-642033D01*
G01X8372029Y-647621D01*
G01X8383459Y-659051D01*
G01X8389047Y-676323D01*
G01X8389047Y-687753D01*
G01X8383459Y-704771D01*
G01X8372029Y-716201D01*
G01X8354757Y-722043D01*
G01X8337739Y-722043D01*
G01X8320467Y-716201D01*
G01X8314879Y-710613D01*
G01X8309037Y-699183D01*
G01X8436799Y-642033D02*
G01X8436799Y-722043D01*
G01X8436799Y-664893D02*
G01X8454071Y-647621D01*
G01X8465501Y-642033D01*
G01X8482519Y-642033D01*
G01X8493949Y-647621D01*
G01X8499791Y-664893D01*
G01X8499791Y-722043D01*
G01X8499791Y-664893D02*
G01X8516809Y-647621D01*
G01X8528239Y-642033D01*
G01X8545511Y-642033D01*
G01X8556941Y-647621D01*
G01X8562529Y-664893D01*
G01X8562529Y-722043D01*
G01X8610281Y-642033D02*
G01X8610281Y-722043D01*
G01X8610281Y-664893D02*
G01X8627553Y-647621D01*
G01X8638983Y-642033D01*
G01X8656001Y-642033D01*
G01X8667431Y-647621D01*
G01X8673273Y-664893D01*
G01X8673273Y-722043D01*
G01X8673273Y-664893D02*
G01X8690291Y-647621D01*
G01X8701721Y-642033D01*
G01X8718993Y-642033D01*
G01X8730423Y-647621D01*
G01X8736011Y-664893D01*
G01X8736011Y-722043D01*
G01X8783763Y-579041D02*
G01X8795193Y-590471D01*
G01X8806623Y-607743D01*
G01X8818053Y-630603D01*
G01X8823895Y-659051D01*
G01X8823895Y-681911D01*
G01X8818053Y-710613D01*
G01X8806623Y-733473D01*
G01X8795193Y-750491D01*
G01X8783763Y-761921D01*
G01X10978215Y-601901D02*
G01X10978215Y-722043D01*
G01X10978215Y-601901D02*
G01X11029777Y-601901D01*
G01X11046795Y-607743D01*
G01X11052637Y-613331D01*
G01X11058225Y-624761D01*
G01X11058225Y-642033D01*
G01X11052637Y-653463D01*
G01X11046795Y-659051D01*
G01X11029777Y-664893D01*
G01X10978215Y-664893D01*
G01X11146109Y-601901D02*
G01X11146109Y-722043D01*
G01X11105977Y-601901D02*
G01X11185987Y-601901D01*
G01X11233739Y-601901D02*
G01X11233739Y-722043D01*
G01X11313749Y-601901D02*
G01X11313749Y-722043D01*
G01X11233739Y-659051D02*
G01X11313749Y-659051D01*
G01X12439622Y-601901D02*
G01X12439622Y-722043D01*
G01X12439622Y-601901D02*
G01X12491184Y-601901D01*
G01X12508202Y-607743D01*
G01X12514044Y-613331D01*
G01X12519632Y-624761D01*
G01X12519632Y-636191D01*
G01X12514044Y-647621D01*
G01X12508202Y-653463D01*
G01X12491184Y-659051D01*
G01X12439622Y-659051D01*
G01X12479754Y-659051D02*
G01X12519632Y-722043D01*
G01X12596086Y-642033D02*
G01X12584656Y-647621D01*
G01X12573226Y-659051D01*
G01X12567384Y-676323D01*
G01X12567384Y-687753D01*
G01X12573226Y-704771D01*
G01X12584656Y-716201D01*
G01X12596086Y-722043D01*
G01X12613104Y-722043D01*
G01X12624534Y-716201D01*
G01X12635964Y-704771D01*
G01X12641806Y-687753D01*
G01X12641806Y-676323D01*
G01X12635964Y-659051D01*
G01X12624534Y-647621D01*
G01X12613104Y-642033D01*
G01X12596086Y-642033D01*
G01X12689558Y-642033D02*
G01X12689558Y-699183D01*
G01X12695400Y-716201D01*
G01X12706830Y-722043D01*
G01X12723848Y-722043D01*
G01X12735278Y-716201D01*
G01X12752550Y-699183D01*
G01X12752550Y-642033D02*
G01X12752550Y-722043D01*
G01X12800302Y-642033D02*
G01X12800302Y-722043D01*
G01X12800302Y-664893D02*
G01X12817574Y-647621D01*
G01X12829004Y-642033D01*
G01X12846022Y-642033D01*
G01X12857452Y-647621D01*
G01X12863294Y-664893D01*
G01X12863294Y-722043D01*
G01X12979626Y-601901D02*
G01X12979626Y-722043D01*
G01X12979626Y-659051D02*
G01X12968196Y-647621D01*
G01X12956766Y-642033D01*
G01X12939748Y-642033D01*
G01X12928318Y-647621D01*
G01X12916888Y-659051D01*
G01X12911046Y-676323D01*
G01X12911046Y-687753D01*
G01X12916888Y-704771D01*
G01X12928318Y-716201D01*
G01X12939748Y-722043D01*
G01X12956766Y-722043D01*
G01X12968196Y-716201D01*
G01X12979626Y-704771D01*
G01X13870803Y-601901D02*
G01X13916523Y-722043D01*
G01X13962243Y-601901D02*
G01X13916523Y-722043D01*
G01X14009995Y-601901D02*
G01X14015837Y-607743D01*
G01X14021425Y-601901D01*
G01X14015837Y-596313D01*
G01X14009995Y-601901D01*
G01X14015837Y-642033D02*
G01X14015837Y-722043D01*
G01X14137757Y-642033D02*
G01X14137757Y-722043D01*
G01X14137757Y-659051D02*
G01X14126327Y-647621D01*
G01X14114897Y-642033D01*
G01X14097879Y-642033D01*
G01X14086449Y-647621D01*
G01X14075019Y-659051D01*
G01X14069177Y-676323D01*
G01X14069177Y-687753D01*
G01X14075019Y-704771D01*
G01X14086449Y-716201D01*
G01X14097879Y-722043D01*
G01X14114897Y-722043D01*
G01X14126327Y-716201D01*
G01X14137757Y-704771D01*
G01X17499483Y-601901D02*
G01X17499483Y-722043D01*
G01X17459351Y-601901D02*
G01X17539361Y-601901D01*
G01X17615815Y-642033D02*
G01X17604385Y-647621D01*
G01X17592955Y-659051D01*
G01X17587113Y-676323D01*
G01X17587113Y-687753D01*
G01X17592955Y-704771D01*
G01X17604385Y-716201D01*
G01X17615815Y-722043D01*
G01X17632833Y-722043D01*
G01X17644263Y-716201D01*
G01X17655693Y-704771D01*
G01X17661535Y-687753D01*
G01X17661535Y-676323D01*
G01X17655693Y-659051D01*
G01X17644263Y-647621D01*
G01X17632833Y-642033D01*
G01X17615815Y-642033D01*
G01X17709287Y-642033D02*
G01X17709287Y-761921D01*
G01X17709287Y-659051D02*
G01X17720717Y-647621D01*
G01X17732147Y-642033D01*
G01X17749419Y-642033D01*
G01X17760849Y-647621D01*
G01X17772279Y-659051D01*
G01X17777867Y-676323D01*
G01X17777867Y-687753D01*
G01X17772279Y-704771D01*
G01X17760849Y-716201D01*
G01X17749419Y-722043D01*
G01X17732147Y-722043D01*
G01X17720717Y-716201D01*
G01X17709287Y-704771D01*
G01X17953635Y-601901D02*
G01X17953635Y-722043D01*
G01X17953635Y-722043D02*
G01X18022215Y-722043D01*
G01X18138547Y-642033D02*
G01X18138547Y-722043D01*
G01X18138547Y-659051D02*
G01X18127117Y-647621D01*
G01X18115687Y-642033D01*
G01X18098669Y-642033D01*
G01X18087239Y-647621D01*
G01X18075809Y-659051D01*
G01X18069967Y-676323D01*
G01X18069967Y-687753D01*
G01X18075809Y-704771D01*
G01X18087239Y-716201D01*
G01X18098669Y-722043D01*
G01X18115687Y-722043D01*
G01X18127117Y-716201D01*
G01X18138547Y-704771D01*
G01X18192141Y-642033D02*
G01X18226431Y-722043D01*
G01X18260721Y-642033D02*
G01X18226431Y-722043D01*
G01X18215001Y-744903D01*
G01X18203571Y-756333D01*
G01X18192141Y-761921D01*
G01X18186299Y-761921D01*
G01X18308473Y-676323D02*
G01X18377053Y-676323D01*
G01X18377053Y-664893D01*
G01X18371465Y-653463D01*
G01X18365623Y-647621D01*
G01X18354193Y-642033D01*
G01X18337175Y-642033D01*
G01X18325745Y-647621D01*
G01X18314315Y-659051D01*
G01X18308473Y-676323D01*
G01X18308473Y-687753D01*
G01X18314315Y-704771D01*
G01X18325745Y-716201D01*
G01X18337175Y-722043D01*
G01X18354193Y-722043D01*
G01X18365623Y-716201D01*
G01X18377053Y-704771D01*
G01X18424805Y-642033D02*
G01X18424805Y-722043D01*
G01X18424805Y-676323D02*
G01X18430647Y-659051D01*
G01X18442077Y-647621D01*
G01X18453507Y-642033D01*
G01X18470525Y-642033D01*
G01X18518277Y-670481D02*
G01X18621147Y-670481D01*
G01X18668899Y-601901D02*
G01X18668899Y-722043D01*
G01X18668899Y-601901D02*
G01X18720461Y-601901D01*
G01X18737479Y-607743D01*
G01X18743321Y-613331D01*
G01X18748909Y-624761D01*
G01X18748909Y-636191D01*
G01X18743321Y-647621D01*
G01X18737479Y-653463D01*
G01X18720461Y-659051D01*
G01X18668899Y-659051D02*
G01X18720461Y-659051D01*
G01X18737479Y-664893D01*
G01X18743321Y-670481D01*
G01X18748909Y-681911D01*
G01X18748909Y-699183D01*
G01X18743321Y-710613D01*
G01X18737479Y-716201D01*
G01X18720461Y-722043D01*
G01X18668899Y-722043D01*
G01X18825363Y-642033D02*
G01X18813933Y-647621D01*
G01X18802503Y-659051D01*
G01X18796661Y-676323D01*
G01X18796661Y-687753D01*
G01X18802503Y-704771D01*
G01X18813933Y-716201D01*
G01X18825363Y-722043D01*
G01X18842381Y-722043D01*
G01X18853811Y-716201D01*
G01X18865241Y-704771D01*
G01X18871083Y-687753D01*
G01X18871083Y-676323D01*
G01X18865241Y-659051D01*
G01X18853811Y-647621D01*
G01X18842381Y-642033D01*
G01X18825363Y-642033D01*
G01X18936107Y-601901D02*
G01X18936107Y-699183D01*
G01X18941695Y-716201D01*
G01X18953125Y-722043D01*
G01X18964555Y-722043D01*
G01X18918835Y-642033D02*
G01X18958967Y-642033D01*
G01X19029579Y-601901D02*
G01X19029579Y-699183D01*
G01X19035167Y-716201D01*
G01X19046597Y-722043D01*
G01X19058027Y-722043D01*
G01X19012307Y-642033D02*
G01X19052439Y-642033D01*
G01X19134481Y-642033D02*
G01X19123051Y-647621D01*
G01X19111621Y-659051D01*
G01X19105779Y-676323D01*
G01X19105779Y-687753D01*
G01X19111621Y-704771D01*
G01X19123051Y-716201D01*
G01X19134481Y-722043D01*
G01X19151499Y-722043D01*
G01X19162929Y-716201D01*
G01X19174359Y-704771D01*
G01X19180201Y-687753D01*
G01X19180201Y-676323D01*
G01X19174359Y-659051D01*
G01X19162929Y-647621D01*
G01X19151499Y-642033D01*
G01X19134481Y-642033D01*
G01X19227953Y-642033D02*
G01X19227953Y-722043D01*
G01X19227953Y-664893D02*
G01X19245225Y-647621D01*
G01X19256655Y-642033D01*
G01X19273673Y-642033D01*
G01X19285103Y-647621D01*
G01X19290945Y-664893D01*
G01X19290945Y-722043D01*
G01X19290945Y-664893D02*
G01X19307963Y-647621D01*
G01X19319393Y-642033D01*
G01X19336665Y-642033D01*
G01X19348095Y-647621D01*
G01X19353683Y-664893D01*
G01X19353683Y-722043D01*
G01X19529451Y-601901D02*
G01X19529451Y-722043D01*
G01X19529451Y-722043D02*
G01X19598031Y-722043D01*
G01X19714363Y-642033D02*
G01X19714363Y-722043D01*
G01X19714363Y-659051D02*
G01X19702933Y-647621D01*
G01X19691503Y-642033D01*
G01X19674485Y-642033D01*
G01X19663055Y-647621D01*
G01X19651625Y-659051D01*
G01X19645783Y-676323D01*
G01X19645783Y-687753D01*
G01X19651625Y-704771D01*
G01X19663055Y-716201D01*
G01X19674485Y-722043D01*
G01X19691503Y-722043D01*
G01X19702933Y-716201D01*
G01X19714363Y-704771D01*
G01X19767957Y-642033D02*
G01X19802247Y-722043D01*
G01X19836537Y-642033D02*
G01X19802247Y-722043D01*
G01X19790817Y-744903D01*
G01X19779387Y-756333D01*
G01X19767957Y-761921D01*
G01X19762115Y-761921D01*
G01X19884289Y-676323D02*
G01X19952869Y-676323D01*
G01X19952869Y-664893D01*
G01X19947281Y-653463D01*
G01X19941439Y-647621D01*
G01X19930009Y-642033D01*
G01X19912991Y-642033D01*
G01X19901561Y-647621D01*
G01X19890131Y-659051D01*
G01X19884289Y-676323D01*
G01X19884289Y-687753D01*
G01X19890131Y-704771D01*
G01X19901561Y-716201D01*
G01X19912991Y-722043D01*
G01X19930009Y-722043D01*
G01X19941439Y-716201D01*
G01X19952869Y-704771D01*
G01X20000621Y-642033D02*
G01X20000621Y-722043D01*
G01X20000621Y-676323D02*
G01X20006463Y-659051D01*
G01X20017893Y-647621D01*
G01X20029323Y-642033D01*
G01X20046341Y-642033D01*

G04 Image Start*
G36*
G01X4528335Y-782513D02*
G01X4422721Y-771033D01*
G01X4379846Y-868238D01*
G01X4336971Y-771033D01*
G01X4231358Y-782513D01*
G01X4294121Y-696788D01*
G01X4254399Y-642534D01*
G01X4285892Y-642534D01*
G01X4325592Y-696788D01*
G01X4285892Y-751043D01*
G01X4352719Y-743778D01*
G01X4352719Y-743778D01*
G01X4379846Y-805272D01*
G01X4406973Y-743778D01*
G01X4473801Y-751043D01*
G01X4434101Y-696788D01*
G01X4473775Y-642559D01*
G01X4406948Y-649824D01*
G01X4379846Y-588305D01*
G01X4352719Y-649798D01*
G01X4285892Y-642534D01*
G01X4254399Y-642534D01*
G01X4231358Y-611063D01*
G01X4336996Y-622544D01*
G01X4379846Y-525338D01*
G01X4422721Y-622544D01*
G01X4528335Y-611063D01*
G01X4465571Y-696788D01*
G01X4528335Y-782513D01*
G37*
G36*
G01X4399341Y331791D02*
G01X4391601Y331203D01*
G01X4383758Y331004D01*
G01X4375915Y331203D01*
G01X4368175Y331791D01*
G01X4360547Y332760D01*
G01X4353042Y334100D01*
G01X4338436Y337855D01*
G01X4324434Y342980D01*
G01X4311112Y349397D01*
G01X4298546Y357030D01*
G01X4286814Y365803D01*
G01X4275992Y375639D01*
G01X4266156Y386461D01*
G01X4257383Y398193D01*
G01X4249750Y410758D01*
G01X4243333Y424080D01*
G01X4238209Y438083D01*
G01X4234454Y452688D01*
G01X4233114Y460194D01*
G01X4232145Y467821D01*
G01X4231556Y475561D01*
G01X4231358Y483404D01*
G01X4256758Y483404D01*
G01X4257415Y470438D01*
G01X4259343Y457842D01*
G01X4262477Y445680D01*
G01X4266754Y434018D01*
G01X4272109Y422918D01*
G01X4278477Y412447D01*
G01X4285795Y402667D01*
G01X4293997Y393644D01*
G01X4303021Y385441D01*
G01X4312800Y378124D01*
G01X4323272Y371755D01*
G01X4334371Y366400D01*
G01X4346034Y362124D01*
G01X4358195Y358989D01*
G01X4358195Y358989D01*
G01X4370791Y357061D01*
G01X4383758Y356404D01*
G01X4396724Y357061D01*
G01X4409320Y358989D01*
G01X4421482Y362124D01*
G01X4433144Y366400D01*
G01X4444244Y371755D01*
G01X4454715Y378124D01*
G01X4464495Y385441D01*
G01X4473518Y393644D01*
G01X4481721Y402667D01*
G01X4489039Y412447D01*
G01X4495407Y422918D01*
G01X4500762Y434018D01*
G01X4505038Y445680D01*
G01X4508173Y457842D01*
G01X4510101Y470438D01*
G01X4510758Y483404D01*
G01X4510101Y496371D01*
G01X4508173Y508967D01*
G01X4505038Y521129D01*
G01X4500762Y532791D01*
G01X4495407Y543890D01*
G01X4489039Y554362D01*
G01X4481721Y564142D01*
G01X4473518Y573165D01*
G01X4464495Y581367D01*
G01X4454715Y588685D01*
G01X4444244Y595054D01*
G01X4433144Y600408D01*
G01X4421482Y604685D01*
G01X4409320Y607820D01*
G01X4396724Y609747D01*
G01X4383758Y610404D01*
G01X4370791Y609747D01*
G01X4358195Y607820D01*
G01X4346034Y604685D01*
G01X4334371Y600408D01*
G01X4323272Y595054D01*
G01X4312800Y588685D01*
G01X4303021Y581367D01*
G01X4293997Y573165D01*
G01X4285795Y564142D01*
G01X4278477Y554362D01*
G01X4272109Y543890D01*
G01X4266754Y532791D01*
G01X4262477Y521129D01*
G01X4259343Y508967D01*
G01X4257415Y496371D01*
G01X4256758Y483404D01*
G01X4231358Y483404D01*
G01X4231556Y491248D01*
G01X4232145Y498988D01*
G01X4233114Y506615D01*
G01X4234454Y514120D01*
G01X4238209Y528726D01*
G01X4243333Y542728D01*
G01X4249750Y556051D01*
G01X4257383Y568616D01*
G01X4266156Y580348D01*
G01X4275992Y591170D01*
G01X4286814Y601006D01*
G01X4298546Y609779D01*
G01X4311112Y617412D01*
G01X4324434Y623829D01*
G01X4338436Y628953D01*
G01X4353042Y632708D01*
G01X4360547Y634049D01*
G01X4368175Y635018D01*
G01X4375915Y635606D01*
G01X4383758Y635804D01*
G01X4391601Y635606D01*
G01X4399341Y635018D01*
G01X4406968Y634049D01*
G01X4414474Y632708D01*
G01X4429080Y628953D01*
G01X4443082Y623829D01*
G01X4456404Y617412D01*
G01X4468969Y609779D01*
G01X4480701Y601006D01*
G01X4491524Y591170D01*
G01X4501359Y580348D01*
G01X4510132Y568616D01*
G01X4517765Y556051D01*
G01X4524182Y542728D01*
G01X4529307Y528726D01*
G01X4533062Y514120D01*
G01X4534402Y506615D01*
G01X4535371Y498988D01*
G01X4535959Y491248D01*
G01X4536158Y483404D01*
G01X4535959Y475561D01*
G01X4535371Y467821D01*
G01X4534402Y460194D01*
G01X4533062Y452688D01*
G01X4529307Y438083D01*
G01X4524182Y424080D01*
G01X4517765Y410758D01*
G01X4510132Y398193D01*
G01X4501359Y386461D01*
G01X4491524Y375639D01*
G01X4480701Y365803D01*
G01X4468969Y357030D01*
G01X4456404Y349397D01*
G01X4443082Y342980D01*
G01X4429080Y337855D01*
G01X4414474Y334100D01*
G01X4406968Y332760D01*
G01X4399341Y331791D01*
G37*
G36*
G01X4231358Y55233D02*
G01X4536158Y55233D01*
G01X4383758Y-208724D01*
G01X4246023Y29833D01*
G01X4275351Y29833D01*
G01X4383758Y-157924D01*
G01X4492165Y29833D01*
G01X4492165Y29833D01*
G01X4275351Y29833D01*
G01X4246023Y29833D01*
G01X4231358Y55233D01*
G37*
G36*
G01X4231358Y1216376D02*
G01X4510758Y1216376D01*
G01X4510758Y936976D01*
G01X4231358Y936976D01*
G01X4231358Y1190976D01*
G01X4256758Y1190976D01*
G01X4256758Y962376D01*
G01X4485358Y962376D01*
G01X4485358Y1190976D01*
G01X4485358Y1190976D01*
G01X4256758Y1190976D01*
G01X4231358Y1190976D01*
G01X4231358Y1216376D01*
G37*

G04 PolygonModel Start*
G54D15*
G01X3941072Y-960767D02*
G01X20637073Y-960767D01*
G01X3941072Y-380196D02*
G01X20637073Y-380196D01*
G01X3941072Y200376D02*
G01X20637073Y200376D01*
G01X3941072Y780947D02*
G01X20637073Y780947D01*
G01X3941072Y1361519D02*
G01X20637073Y1361519D01*
G01X3941072Y1942090D02*
G01X20637073Y1942090D01*
G01X3941072Y1942090D02*
G01X3941072Y-935367D01*
G01X5392501Y1942090D02*
G01X5392501Y-935367D01*
G01X6806664Y1942090D02*
G01X6806664Y-935367D01*
G01X10677769Y1942090D02*
G01X10677769Y-935367D01*
G01X12139176Y1942090D02*
G01X12139176Y-935367D01*
G01X13570357Y1942090D02*
G01X13570357Y-935367D01*
G01X15239536Y1942090D02*
G01X15239536Y-935367D01*
G01X17158905Y1942090D02*
G01X17158905Y-935367D01*
G01X20637073Y1942090D02*
G01X20637073Y-935367D01*

M02*

