G04 Layer: BoardOutlineLayer*
G04 EasyEDA Pro v3.2.121, 2026-04-28 17:19:32*
G04 Gerber Generator version 0.3*
G04 Scale: 100 percent, Rotated: No, Reflected: No*
G04 Dimensions in millimeters*
G04 Leading zeros omitted, absolute positions, 4 integers and 5 decimals*
G04 Generated by one-click*
%FSLAX45Y45*%
%MOMM*%
%ADD10C,0.127*%
%ADD11C,0.4409*%
G75*


G04 PolygonModel Start*
G54D10*
G01X-1786689Y1342952D02*
G03X-1349329Y1780068I193188J244064D01*
G01X-1270883Y1942090D02*
G03X-1349327Y1780070I0J-100000D01*
G01X-1948192Y-1460372D02*
G03X-1751132Y-1467686I102359J99487D01*
G01X-1468539Y-1750614D02*
G03X-1751132Y-1467686I-124962J157778D01*
G01X-1468539Y-1750614D02*
G03X-1484780Y-1917902I106720J-94793D01*
G01X-1786689Y1342952D02*
G03X-1948192Y1264102I-61503J-78850D01*
G01X-1948192Y1264102D02*
G01X-1948192Y-1002904D01*
G01X-1948192Y-1003190D02*
G01X-1948192Y-1460372D01*
G01X443803Y1942090D02*
G01X-1270883Y1942090D01*
G01X1454773Y1942090D02*
G01X443803Y1942090D01*
G01X635905Y-1102888D02*
G01X635876Y1097040D01*
G01X1734352Y-1457482D02*
G03X1451914Y-1740216I-147245J-135347D01*
G01X1941072Y1097040D02*
G01X1941072Y1455303D01*
G01X-1484780Y-1917902D02*
G01X1478388Y-1917902D01*
G01X1941071Y-1461116D02*
G01X1941071Y-1102888D01*
G01X1941072Y1455303D02*
G03X1744758Y1461890I-101630J-100231D01*
G01X1734352Y-1457482D02*
G03X1941071Y-1461116I105090J96598D01*
G01X1462129Y1744780D02*
G03X1744758Y1461890I124981J-157763D01*
G01X1462129Y1744780D02*
G03X1454773Y1942090I-106701J94814D01*
G01X1478388Y-1917902D02*
G03X1451914Y-1740216I-122961J72495D01*
G01X1941071Y-1102888D02*
G01X635905Y-1102888D01*
G01X635876Y1097040D02*
G01X1941072Y1097040D01*

M02*

