G04 Layer: BottomPasteMaskLayer*
G04 EasyEDA Pro v3.2.121, 2026-04-28 17:19:32*
G04 Gerber Generator version 0.3*
G04 Scale: 100 percent, Rotated: No, Reflected: No*
G04 Dimensions in millimeters*
G04 Leading zeros omitted, absolute positions, 4 integers and 5 decimals*
G04 Generated by one-click*
%FSLAX45Y45*%
%MOMM*%
%AMRect*21,1,$1,$2,0,0,$3*%
%ADD10O,1.524X2.54*%
%ADD11R,1.52999X1.35999*%
%ADD12R,0.7X1.2*%
%ADD13R,1.524X0.6*%
%ADD14R,1.0X1.75001*%
%ADD15Rect,0.9X1.3X45.0*%
%ADD16Rect,1.1X0.8X135.0*%
%ADD17Rect,0.5005X0.54X135.0*%
%ADD18Rect,0.5X0.54X135.0*%
%ADD19R,1.0X0.6*%
G75*


G04 PolygonModel Start*
G36*
G01X449100Y-178900D02*
G01X446700Y-181300D01*
G01X420286Y-181300D01*
G01X417888Y-178900D01*
G01X417888Y-151300D01*
G01X420286Y-148900D01*
G01X446700Y-148900D01*
G01X449100Y-151300D01*
G01X449100Y-178900D01*
G37*
G36*
G01X465300Y-178900D02*
G01X465300Y-151300D01*
G01X467700Y-148900D01*
G01X494114Y-148900D01*
G01X496512Y-151300D01*
G01X496512Y-178900D01*
G01X494114Y-181300D01*
G01X467700Y-181300D01*
G01X465300Y-178900D01*
G37*
G36*
G01X307698Y386304D02*
G01X302699Y393301D01*
G01X302699Y441302D01*
G01X307698Y446303D01*
G01X352699Y446303D01*
G01X357698Y441302D01*
G01X357698Y393301D01*
G01X352699Y386304D01*
G01X307698Y386304D01*
G37*
G36*
G01X307698Y290302D02*
G01X302699Y295303D01*
G01X302699Y343301D01*
G01X307698Y350302D01*
G01X352699Y350302D01*
G01X357698Y343301D01*
G01X357698Y295303D01*
G01X352699Y290302D01*
G01X307698Y290302D01*
G37*
G36*
G01X-706600Y-331300D02*
G01X-709000Y-333700D01*
G01X-741944Y-333700D01*
G01X-744344Y-331300D01*
G01X-744344Y-303700D01*
G01X-741944Y-301300D01*
G01X-709000Y-301300D01*
G01X-706600Y-303700D01*
G01X-706600Y-331300D01*
G37*
G36*
G01X-690400Y-331300D02*
G01X-690400Y-303700D01*
G01X-688000Y-301300D01*
G01X-655056Y-301300D01*
G01X-652656Y-303700D01*
G01X-652656Y-331300D01*
G01X-655056Y-333700D01*
G01X-688000Y-333700D01*
G01X-690400Y-331300D01*
G37*
G36*
G01X-707235Y-429306D02*
G01X-709635Y-431706D01*
G01X-736049Y-431706D01*
G01X-738447Y-429306D01*
G01X-738447Y-401706D01*
G01X-736049Y-399306D01*
G01X-709635Y-399306D01*
G01X-707235Y-401706D01*
G01X-707235Y-429306D01*
G37*
G36*
G01X-691035Y-429306D02*
G01X-691035Y-401706D01*
G01X-688635Y-399306D01*
G01X-662221Y-399306D01*
G01X-659823Y-401706D01*
G01X-659823Y-429306D01*
G01X-662221Y-431706D01*
G01X-688635Y-431706D01*
G01X-691035Y-429306D01*
G37*
G36*
G01X-667552Y-547006D02*
G01X-674550Y-552005D01*
G01X-722551Y-552005D01*
G01X-727552Y-547006D01*
G01X-727552Y-502005D01*
G01X-722551Y-497006D01*
G01X-674550Y-497006D01*
G01X-667552Y-502005D01*
G01X-667552Y-547006D01*
G37*
G36*
G01X-571551Y-547006D02*
G01X-576552Y-552005D01*
G01X-624550Y-552005D01*
G01X-631550Y-547006D01*
G01X-631550Y-502005D01*
G01X-624550Y-497006D01*
G01X-576552Y-497006D01*
G01X-571551Y-502005D01*
G01X-571551Y-547006D01*
G37*
G36*
G01X-684360Y-179860D02*
G01X-686760Y-177460D01*
G01X-686760Y-144516D01*
G01X-684360Y-142116D01*
G01X-656760Y-142116D01*
G01X-654360Y-144516D01*
G01X-654360Y-177460D01*
G01X-656760Y-179860D01*
G01X-684360Y-179860D01*
G37*
G36*
G01X-684360Y-196060D02*
G01X-656760Y-196060D01*
G01X-654360Y-198460D01*
G01X-654360Y-231404D01*
G01X-656760Y-233804D01*
G01X-684360Y-233804D01*
G01X-686760Y-231404D01*
G01X-686760Y-198460D01*
G01X-684360Y-196060D01*
G37*
G36*
G01X-527149Y-307505D02*
G01X-524749Y-305104D01*
G01X-491805Y-305104D01*
G01X-489404Y-307505D01*
G01X-489404Y-335104D01*
G01X-491805Y-337505D01*
G01X-524749Y-337505D01*
G01X-527149Y-335104D01*
G01X-527149Y-307505D01*
G37*
G36*
G01X-543349Y-307505D02*
G01X-543349Y-335104D01*
G01X-545749Y-337505D01*
G01X-578693Y-337505D01*
G01X-581093Y-335104D01*
G01X-581093Y-307505D01*
G01X-578693Y-305104D01*
G01X-545749Y-305104D01*
G01X-543349Y-307505D01*
G37*
G36*
G01X-434798Y112404D02*
G01X-434798Y192403D01*
G01X-414799Y192403D01*
G01X-414799Y112404D01*
G01X-434798Y112404D01*
G37*
G36*
G01X-394799Y112404D02*
G01X-394799Y192403D01*
G01X-374799Y192403D01*
G01X-374799Y112404D01*
G01X-394799Y112404D01*
G37*
G36*
G01X-354799Y112404D02*
G01X-354799Y192403D01*
G01X-334799Y192403D01*
G01X-334799Y112404D01*
G01X-354799Y112404D01*
G37*
G36*
G01X-314799Y112404D02*
G01X-314799Y192403D01*
G01X-294799Y192403D01*
G01X-294799Y112404D01*
G01X-314799Y112404D01*
G37*
G36*
G01X-274799Y112404D02*
G01X-274799Y192403D01*
G01X-254799Y192403D01*
G01X-254799Y112404D01*
G01X-274799Y112404D01*
G37*
G36*
G01X-234799Y112404D02*
G01X-234799Y192403D01*
G01X-214799Y192403D01*
G01X-214799Y112404D01*
G01X-234799Y112404D01*
G37*
G36*
G01X-194799Y112404D02*
G01X-194799Y192403D01*
G01X-174799Y192403D01*
G01X-174799Y112404D01*
G01X-194799Y112404D01*
G37*
G36*
G01X-194799Y-287596D02*
G01X-194799Y-207596D01*
G01X-174799Y-207596D01*
G01X-174799Y-287596D01*
G01X-194799Y-287596D01*
G37*
G36*
G01X-234799Y-287596D02*
G01X-234799Y-207596D01*
G01X-214799Y-207596D01*
G01X-214799Y-287596D01*
G01X-234799Y-287596D01*
G37*
G36*
G01X-274799Y-287596D02*
G01X-274799Y-207596D01*
G01X-254799Y-207596D01*
G01X-254799Y-287596D01*
G01X-274799Y-287596D01*
G37*
G36*
G01X-314799Y-287596D02*
G01X-314799Y-207596D01*
G01X-294799Y-207596D01*
G01X-294799Y-287596D01*
G01X-314799Y-287596D01*
G37*
G36*
G01X-354799Y-287596D02*
G01X-354799Y-207596D01*
G01X-334799Y-207596D01*
G01X-334799Y-287596D01*
G01X-354799Y-287596D01*
G37*
G36*
G01X-394799Y-287596D02*
G01X-394799Y-207596D01*
G01X-374799Y-207596D01*
G01X-374799Y-287596D01*
G01X-394799Y-287596D01*
G37*
G36*
G01X-434798Y-287596D02*
G01X-434798Y-207596D01*
G01X-414799Y-207596D01*
G01X-414799Y-287596D01*
G01X-434798Y-287596D01*
G37*
G36*
G01X-64799Y62404D02*
G01X-144799Y62404D01*
G01X-144799Y82404D01*
G01X-64799Y82404D01*
G01X-64799Y62404D01*
G37*
G36*
G01X-64802Y22404D02*
G01X-144802Y22404D01*
G01X-144802Y42404D01*
G01X-64802Y42404D01*
G01X-64802Y22404D01*
G37*
G36*
G01X-64802Y-17599D02*
G01X-144802Y-17599D01*
G01X-144802Y2401D01*
G01X-64802Y2401D01*
G01X-64802Y-17599D01*
G37*
G36*
G01X-64799Y-57593D02*
G01X-144799Y-57593D01*
G01X-144799Y-37594D01*
G01X-64799Y-37594D01*
G01X-64799Y-57593D01*
G37*
G36*
G01X-64802Y-97596D02*
G01X-144802Y-97596D01*
G01X-144802Y-77596D01*
G01X-64802Y-77596D01*
G01X-64802Y-97596D01*
G37*
G36*
G01X-64802Y-137598D02*
G01X-144802Y-137598D01*
G01X-144802Y-117598D01*
G01X-64802Y-117598D01*
G01X-64802Y-137598D01*
G37*
G36*
G01X-64802Y-177593D02*
G01X-144802Y-177593D01*
G01X-144802Y-157593D01*
G01X-64802Y-157593D01*
G01X-64802Y-177593D01*
G37*
G36*
G01X-464801Y-177598D02*
G01X-544801Y-177598D01*
G01X-544801Y-157598D01*
G01X-464801Y-157598D01*
G01X-464801Y-177598D01*
G37*
G36*
G01X-464801Y-137598D02*
G01X-544801Y-137598D01*
G01X-544801Y-117598D01*
G01X-464801Y-117598D01*
G01X-464801Y-137598D01*
G37*
G36*
G01X-464801Y-97598D02*
G01X-544801Y-97598D01*
G01X-544801Y-77599D01*
G01X-464801Y-77599D01*
G01X-464801Y-97598D01*
G37*
G36*
G01X-464801Y-57599D02*
G01X-544801Y-57599D01*
G01X-544801Y-37599D01*
G01X-464801Y-37599D01*
G01X-464801Y-57599D01*
G37*
G36*
G01X-464801Y-17599D02*
G01X-544801Y-17599D01*
G01X-544801Y2401D01*
G01X-464801Y2401D01*
G01X-464801Y-17599D01*
G37*
G36*
G01X-464801Y22401D02*
G01X-544801Y22401D01*
G01X-544801Y42401D01*
G01X-464801Y42401D01*
G01X-464801Y22401D01*
G37*
G36*
G01X-464801Y62401D02*
G01X-544801Y62401D01*
G01X-544801Y82401D01*
G01X-464801Y82401D01*
G01X-464801Y62401D01*
G37*
G36*
G01X-194809Y-157596D02*
G01X-414809Y-157596D01*
G01X-414809Y62404D01*
G01X-194809Y62404D01*
G01X-194809Y-157596D01*
G37*
G36*
G01X-349867Y430474D02*
G01X-309708Y431857D01*
G01X-274121Y396270D01*
G01X-274121Y387218D01*
G01X-326163Y335175D01*
G01X-335215Y335175D01*
G01X-370802Y370762D01*
G01X-369419Y410922D01*
G01X-349867Y430474D01*
G37*
G36*
G01X-385533Y467731D02*
G01X-405085Y448179D01*
G01X-445245Y446796D01*
G01X-480832Y482383D01*
G01X-480832Y491435D01*
G01X-428789Y543478D01*
G01X-419737Y543478D01*
G01X-384150Y507891D01*
G01X-385533Y467731D01*
G37*
G36*
G01X112240Y-678972D02*
G01X114640Y-676572D01*
G01X147584Y-676572D01*
G01X149984Y-678972D01*
G01X149984Y-706572D01*
G01X147584Y-708972D01*
G01X114640Y-708972D01*
G01X112240Y-706572D01*
G01X112240Y-678972D01*
G37*
G36*
G01X96040Y-678972D02*
G01X96040Y-706572D01*
G01X93640Y-708972D01*
G01X60696Y-708972D01*
G01X58296Y-706572D01*
G01X58296Y-678972D01*
G01X60696Y-676572D01*
G01X93640Y-676572D01*
G01X96040Y-678972D01*
G37*
G36*
G01X-341001Y711902D02*
G01X-339587Y720384D01*
G01X-305646Y754326D01*
G01X-298574Y754328D01*
G01X-266754Y722507D01*
G01X-266756Y715436D01*
G01X-300697Y681494D01*
G01X-309180Y680081D01*
G01X-341001Y711902D01*
G37*
G36*
G01X-408884Y644018D02*
G01X-408883Y651089D01*
G01X-374943Y685029D01*
G01X-366458Y686444D01*
G01X-334637Y654624D01*
G01X-336053Y646139D01*
G01X-369993Y612199D01*
G01X-377064Y612197D01*
G01X-408884Y644018D01*
G37*
G36*
G01X92047Y-815144D02*
G01X89647Y-817545D01*
G01X63233Y-817545D01*
G01X60836Y-815144D01*
G01X60836Y-787545D01*
G01X63233Y-785144D01*
G01X89647Y-785144D01*
G01X92047Y-787545D01*
G01X92047Y-815144D01*
G37*
G36*
G01X108247Y-815144D02*
G01X108247Y-787545D01*
G01X110647Y-785144D01*
G01X137061Y-785144D01*
G01X139459Y-787545D01*
G01X139459Y-815144D01*
G01X137061Y-817545D01*
G01X110647Y-817545D01*
G01X108247Y-815144D01*
G37*
G36*
G01X62400Y-1300000D02*
G01X60000Y-1297600D01*
G01X60000Y-1271186D01*
G01X62400Y-1268788D01*
G01X90000Y-1268788D01*
G01X92400Y-1271186D01*
G01X92400Y-1297600D01*
G01X90000Y-1300000D01*
G01X62400Y-1300000D01*
G37*
G36*
G01X62400Y-1316200D02*
G01X90000Y-1316200D01*
G01X92400Y-1318600D01*
G01X92400Y-1345014D01*
G01X90000Y-1347412D01*
G01X62400Y-1347412D01*
G01X60000Y-1345014D01*
G01X60000Y-1318600D01*
G01X62400Y-1316200D01*
G37*

G04 Pad Start*
G54D10*
G01X762000Y1432560D03*
G01X1143000Y1432560D03*
G54D11*
G01X-203505Y-1054100D03*
G01X203505Y-1054100D03*
G54D12*
G01X354635Y1424254D03*
G01X124638Y1424254D03*
G01X124638Y704266D03*
G01X354635Y704266D03*
G54D13*
G01X464642Y1289253D03*
G01X464642Y1139266D03*
G01X464642Y839267D03*
G54D14*
G01X-1126739Y-415284D03*
G01X-1442359Y-415284D03*
G54D15*
G01X-618400Y241805D03*
G01X-510619Y349586D03*
G54D16*
G01X-203698Y-568883D03*
G01X-285005Y-650190D03*
G01X-412255Y-522904D03*
G01X-330948Y-441597D03*
G54D18*
G01X-236993Y503693D03*
G01X-296407Y563107D03*
G54D19*
G01X432580Y12713D03*
G01X432580Y-82283D03*
G01X432580Y107683D03*
G01X212565Y-82309D03*
G01X212565Y107709D03*
G04 Pad End*

M02*

